<svg width="39" height="39" viewBox="0 0 39 39" fill="none" xmlns="http://www.w3.org/2000/svg">
<circle cx="18.25" cy="20.25" r="13.75" fill="#FFC045"/>
<path d="M19.5008 0C8.7344 0 0 8.72313 0 19.4899C0 30.2667 8.7344 39 19.5008 39C30.273 39 39 30.2667 39 19.4899C39 8.72313 30.273 0 19.5008 0ZM20.8904 30.34C20.4376 30.7429 19.9126 30.9457 19.3179 30.9457C18.7028 30.9457 18.1661 30.7468 17.7079 30.3482C17.2492 29.9504 17.0191 29.3931 17.0191 28.6775C17.0191 28.0426 17.2414 27.5083 17.6849 27.075C18.1283 26.6417 18.6724 26.4252 19.3175 26.4252C19.9524 26.4252 20.4867 26.6417 20.9208 27.075C21.3541 27.5083 21.5714 28.0426 21.5714 28.6775C21.571 29.383 21.344 29.9372 20.8904 30.34ZM26.5378 16.3398C26.1899 16.9849 25.7765 17.5414 25.2972 18.0106C24.8194 18.4798 23.9598 19.2679 22.7188 20.3763C22.3768 20.6891 22.1014 20.9637 21.8951 21.2C21.6888 21.4371 21.5347 21.6536 21.4341 21.8505C21.3327 22.0471 21.2551 22.244 21.2001 22.4406C21.1451 22.6364 21.062 22.9823 20.9497 23.4764C20.759 24.5248 20.1591 25.0489 19.1509 25.0489C18.6268 25.0489 18.1864 24.8777 17.8272 24.5349C17.4696 24.1921 17.2913 23.6835 17.2913 23.008C17.2913 22.1617 17.4228 21.4282 17.6849 20.8081C17.9454 20.1876 18.2941 19.6439 18.7274 19.1747C19.1611 18.7056 19.7457 18.149 20.4821 17.504C21.1271 16.9396 21.5936 16.5138 21.8807 16.2267C22.1685 15.9389 22.4099 15.6191 22.6061 15.2665C22.8034 14.9136 22.9005 14.531 22.9005 14.1176C22.9005 13.3107 22.6018 12.6313 22.0012 12.0767C21.4013 11.5225 20.6275 11.2449 19.6798 11.2449C18.5706 11.2449 17.7543 11.5245 17.2301 12.0838C16.7059 12.643 16.2633 13.4667 15.8998 14.5556C15.5562 15.6948 14.9056 16.2646 13.9493 16.2646C13.3849 16.2646 12.9083 16.0657 12.5199 15.6679C12.1322 15.2701 11.9384 14.8391 11.9384 14.375C11.9384 13.4176 12.2461 12.4472 12.8604 11.4644C13.4754 10.4816 14.3725 9.66732 15.5523 9.02304C16.7313 8.37798 18.1076 8.05467 19.6794 8.05467C21.1412 8.05467 22.431 8.32494 23.5495 8.86431C24.6685 9.4029 25.5332 10.1365 26.1431 11.0643C26.7523 11.9913 27.0577 12.9995 27.0577 14.088C27.0597 14.9436 26.8857 15.6944 26.5378 16.3398Z" fill="#6C63FF"/>
</svg>
