<svg width="32" height="32" viewBox="0 0 32 32" fill="none" xmlns="http://www.w3.org/2000/svg">
<path d="M16.079 0.157959C7.28601 0.157959 0.157959 7.28601 0.157959 16.079C0.157959 19.1019 1.00046 21.928 2.46345 24.3354L0.296329 31.5401C0.220249 31.7931 0.361706 31.9279 0.610661 31.8397L7.40874 29.4332C9.90351 31.0562 12.8808 32 16.079 32C24.8719 32 32 24.8719 32 16.079C32 7.28601 24.8718 0.157959 16.079 0.157959Z" fill="#6C63FF"/>
<path d="M9.92859 17.3621C10.8106 17.3621 11.5256 16.647 11.5256 15.765C11.5256 14.883 10.8106 14.168 9.92859 14.168C9.04657 14.168 8.33154 14.883 8.33154 15.765C8.33154 16.647 9.04657 17.3621 9.92859 17.3621Z" fill="#FFC045"/>
<path d="M16.1864 17.3621C17.0684 17.3621 17.7835 16.647 17.7835 15.765C17.7835 14.883 17.0684 14.168 16.1864 14.168C15.3044 14.168 14.5894 14.883 14.5894 15.765C14.5894 16.647 15.3044 17.3621 16.1864 17.3621Z" fill="#FFC045"/>
<path d="M22.4445 17.3621C23.3265 17.3621 24.0415 16.647 24.0415 15.765C24.0415 14.883 23.3265 14.168 22.4445 14.168C21.5624 14.168 20.8474 14.883 20.8474 15.765C20.8474 16.647 21.5624 17.3621 22.4445 17.3621Z" fill="#FFC045"/>
</svg>
