<svg width="37" height="43" viewBox="0 0 37 43" fill="none" xmlns="http://www.w3.org/2000/svg">
<path d="M13.9999 34.25L18.3749 40.5C19.0833 38.4167 20.95 34.25 22.75 34.25C25 34.25 34.25 28.625 34.625 16.875C35 5.125 20.75 2.125 18.3749 2.125C15.9998 2.125 3.37491 3.75 1.87491 16.875C0.674913 27.375 9.45825 32.8333 13.9999 34.25Z" fill="#6C63FF"/>
<circle cx="18.5" cy="11.5625" r="2.25" fill="#FFC045"/>
<path d="M18.5005 15.4222C17.4747 15.4222 16.7454 15.8554 16.7454 16.4936V25.1778C16.7454 25.7248 17.4748 26.2719 18.5005 26.2719C19.4806 26.2719 20.2783 25.7248 20.2783 25.1778V16.4936C20.2783 15.8554 19.4806 15.4222 18.5005 15.4222Z" fill="#FFC045"/>
<path d="M18.5 0.336365C8.48597 0.336365 0.382812 8.43541 0.382812 18.4431C0.382812 26.6149 5.76304 33.4001 13.0168 35.7046L17.137 41.7777C17.4435 42.2295 17.954 42.5 18.5 42.5C19.046 42.5 19.5565 42.2295 19.863 41.7777L23.9832 35.7046C31.2402 33.3991 36.6172 26.6113 36.6172 18.4431C36.6172 8.42907 28.5075 0.336365 18.5 0.336365ZM22.506 32.7084C22.1308 32.8133 21.8052 33.0477 21.5865 33.3699L18.5 37.9193L15.4136 33.37C15.1948 33.0478 14.8692 32.8133 14.494 32.7085C8.31954 30.982 3.67685 25.3036 3.67685 18.4431C3.67685 10.2753 10.3265 3.6304 18.5 3.6304C26.6735 3.6304 33.3232 10.2753 33.3232 18.4431C33.3232 25.3104 28.6736 30.9839 22.506 32.7084Z" fill="#6C63FF"/>
</svg>
