<?xml version="1.0" encoding="utf-8"?>
<!-- Generator: Adobe Illustrator 17.0.0, SVG Export Plug-In . SVG Version: 6.00 Build 0)  -->
<!DOCTYPE svg PUBLIC "-//W3C//DTD SVG 1.1//EN" "http://www.w3.org/Graphics/SVG/1.1/DTD/svg11.dtd">
<svg version="1.1" id="Capa_1" xmlns="http://www.w3.org/2000/svg" xmlns:xlink="http://www.w3.org/1999/xlink" x="0px" y="0px"
	 width="185.861px" height="38.785px" viewBox="-2.418 -144.339 185.861 38.785"
	 enable-background="new -2.418 -144.339 185.861 38.785" xml:space="preserve">
<g>
	<rect x="-2.418" y="-134.042" fill="#FBF8FC" width="185.861" height="28.488"/>
	<g id="icono-add_1_">
		<path id="Vector_1_" fill="#7128FB" d="M91.053-116.329c7.735,0,14.005-6.27,14.005-14.005s-6.27-14.005-14.005-14.005
			s-14.005,6.27-14.005,14.005S83.318-116.329,91.053-116.329z"/>
		
			<path id="Vector_2_1_" fill="none" stroke="#FFFFFF" stroke-width="1.0806" stroke-linecap="round" stroke-linejoin="round" stroke-miterlimit="10" d="
			M91.053-134.042v7.417"/>
		
			<path id="Vector_3_1_" fill="none" stroke="#FFFFFF" stroke-width="1.0806" stroke-linecap="round" stroke-linejoin="round" stroke-miterlimit="10" d="
			M87.345-130.334h7.417"/>
	</g>
	<g>
		<g>
			
				<path fill="none" stroke="#8126FF" stroke-width="0.6568" stroke-linecap="round" stroke-linejoin="round" stroke-miterlimit="10" d="
				M132.707-124.06c0-0.321-0.338-0.584-0.752-0.584h-7.869c-0.414,0-0.752,0.263-0.752,0.584v8.659
				c0,0.321,0.338,0.584,0.752,0.584h7.869c0.414,0,0.752-0.263,0.752-0.584V-124.06z"/>
			<g>
				
					<path fill="none" stroke="#8126FF" stroke-width="0.496" stroke-linecap="round" stroke-linejoin="round" stroke-miterlimit="10" d="
					M128.931-118.978"/>
				
					<path fill="none" stroke="#8126FF" stroke-width="0.496" stroke-linecap="round" stroke-linejoin="round" stroke-miterlimit="10" d="
					M128.931-120.611"/>
				
					<path fill="none" stroke="#8126FF" stroke-width="0.496" stroke-linecap="round" stroke-linejoin="round" stroke-miterlimit="10" d="
					M127.298-120.611v-1.385c0-0.163,0.059-0.297,0.131-0.297h1.371c0.072,0,0.131,0.134,0.131,0.297v1.385"/>
				
					<path fill="none" stroke="#8126FF" stroke-width="0.496" stroke-linecap="round" stroke-linejoin="round" stroke-miterlimit="10" d="
					M127.298-118.978"/>
				
					<path fill="none" stroke="#8126FF" stroke-width="0.496" stroke-linecap="round" stroke-linejoin="round" stroke-miterlimit="10" d="
					M127.298-120.611"/>
				
					<path fill="none" stroke="#8126FF" stroke-width="0.496" stroke-linecap="round" stroke-linejoin="round" stroke-miterlimit="10" d="
					M127.298-118.978v1.385c0,0.163,0.059,0.297,0.131,0.297h1.371c0.072,0,0.131-0.134,0.131-0.297v-1.385"/>
				
					<path fill="none" stroke="#8126FF" stroke-width="0.496" stroke-linecap="round" stroke-linejoin="round" stroke-miterlimit="10" d="
					M127.298-120.611h-1.385c-0.163,0-0.297,0.059-0.297,0.131v1.371c0,0.072,0.134,0.131,0.297,0.131h1.385"/>
				
					<path fill="none" stroke="#8126FF" stroke-width="0.496" stroke-linecap="round" stroke-linejoin="round" stroke-miterlimit="10" d="
					M128.931-118.978h1.385c0.163,0,0.297-0.059,0.297-0.131v-1.371c0-0.072-0.134-0.131-0.297-0.131h-1.385"/>
				
					<path fill="none" stroke="#8126FF" stroke-width="0.496" stroke-linecap="round" stroke-linejoin="round" stroke-miterlimit="10" d="
					M128.931-118.978"/>
				
					<path fill="none" stroke="#8126FF" stroke-width="0.496" stroke-linecap="round" stroke-linejoin="round" stroke-miterlimit="10" d="
					M127.298-118.978"/>
				
					<path fill="none" stroke="#8126FF" stroke-width="0.496" stroke-linecap="round" stroke-linejoin="round" stroke-miterlimit="10" d="
					M128.931-120.611"/>
				
					<path fill="none" stroke="#8126FF" stroke-width="0.496" stroke-linecap="round" stroke-linejoin="round" stroke-miterlimit="10" d="
					M127.298-120.611"/>
			</g>
		</g>
		<g>
			
				<path fill="none" stroke="#8126FF" stroke-width="0.5791" stroke-linecap="round" stroke-linejoin="round" stroke-miterlimit="10" d="
				M49.76-115.311c-1.238-1.091-1.356-2.98-0.265-4.218l3.685-4.178c1.091-1.238,2.98-1.356,4.218-0.265
				c1.238,1.091,1.356,2.98,0.265,4.218l-3.685,4.178C52.886-114.338,50.998-114.219,49.76-115.311z"/>
			
				<path fill="none" stroke="#8126FF" stroke-width="0.5791" stroke-linecap="round" stroke-linejoin="round" stroke-miterlimit="10" d="
				M51.337-121.618l-1.842,2.089c-1.091,1.238-0.973,3.126,0.265,4.218s3.126,0.973,4.218-0.265l1.842-2.089L51.337-121.618z"/>
			<g>
				
					<line fill="none" stroke="#8126FF" stroke-width="0.2596" stroke-linecap="round" stroke-linejoin="round" stroke-miterlimit="10" x1="53.116" y1="-121.699" x2="54.09" y2="-122.804"/>
				<circle fill="#8126FF" cx="54.522" cy="-123.296" r="0.207"/>
			</g>
		</g>
		<g>
			
				<polyline fill="none" stroke="#8126FF" stroke-width="0.6047" stroke-linecap="round" stroke-linejoin="round" stroke-miterlimit="10" points="
				10.594,-120.536 16.72,-124.69 22.873,-120.536 			"/>
			
				<path fill="none" stroke="#8126FF" stroke-width="0.6047" stroke-linecap="round" stroke-linejoin="round" stroke-miterlimit="10" d="
				M12.539-120.536"/>
			
				<path fill="none" stroke="#8126FF" stroke-width="0.6047" stroke-linecap="round" stroke-linejoin="round" stroke-miterlimit="10" d="
				M21.006-120.536"/>
			
				<polyline fill="none" stroke="#8126FF" stroke-width="0.6047" stroke-linecap="round" stroke-linejoin="round" stroke-miterlimit="10" points="
				12.539,-120.536 12.539,-114.593 15.721,-114.593 15.721,-117.039 17.759,-117.039 17.759,-114.593 21.006,-114.593 
				21.006,-120.536 			"/>
		</g>
		<g>
			<g>
				
					<line fill="none" stroke="#8126FF" stroke-width="0.5988" stroke-linecap="round" stroke-linejoin="round" stroke-miterlimit="10" x1="162.616" y1="-120.268" x2="166.546" y2="-120.268"/>
				
					<line fill="none" stroke="#8126FF" stroke-width="0.5988" stroke-linecap="round" stroke-linejoin="round" stroke-miterlimit="10" x1="162.616" y1="-118.949" x2="166.546" y2="-118.949"/>
				
					<line fill="none" stroke="#8126FF" stroke-width="0.5988" stroke-linecap="round" stroke-linejoin="round" stroke-miterlimit="10" x1="162.616" y1="-117.63" x2="166.546" y2="-117.63"/>
				
					<line fill="none" stroke="#8126FF" stroke-width="0.5988" stroke-linecap="round" stroke-linejoin="round" stroke-miterlimit="10" x1="162.616" y1="-116.311" x2="165.175" y2="-116.311"/>
			</g>
			<g>
				
					<line fill="none" stroke="#8126FF" stroke-width="0.5988" stroke-linecap="round" stroke-linejoin="round" stroke-miterlimit="10" x1="168.452" y1="-122.163" x2="165.768" y2="-124.757"/>
				
					<path fill="none" stroke="#8126FF" stroke-width="0.5988" stroke-linecap="round" stroke-linejoin="round" stroke-miterlimit="10" d="
					M165.768-124.757h-4.241c-0.332,0-0.604,0.272-0.604,0.604v8.958c0,0.332,0.272,0.604,0.604,0.604h6.321
					c0.332,0,0.604-0.272,0.604-0.604v-6.969h-2.684C165.768-122.163,165.768-124.757,165.768-124.757z"/>
			</g>
		</g>
	</g>
</g>
</svg>
