<?xml version="1.0" encoding="utf-8"?>
<!-- Generator: Adobe Illustrator 17.0.0, SVG Export Plug-In . SVG Version: 6.00 Build 0)  -->
<!DOCTYPE svg PUBLIC "-//W3C//DTD SVG 1.1//EN" "http://www.w3.org/Graphics/SVG/1.1/DTD/svg11.dtd">
<svg version="1.1" id="Capa_1" xmlns="http://www.w3.org/2000/svg" xmlns:xlink="http://www.w3.org/1999/xlink" x="0px" y="0px"
	 width="185.861px" height="38.785px" viewBox="0 0 185.861 38.785" enable-background="new 0 0 185.861 38.785"
	 xml:space="preserve">
<g>
	<rect x="0" y="10.297" fill="#FBF8FC" width="185.861" height="28.488"/>
	<g id="icono-add_1_">
		<path id="Vector_1_" fill="#7128FB" d="M93.471,28.01c7.735,0,14.005-6.27,14.005-14.005S101.206,0,93.471,0
			S79.466,6.27,79.466,14.005S85.736,28.01,93.471,28.01z"/>
		
			<path id="Vector_2_1_" fill="none" stroke="#FFFFFF" stroke-width="1.0806" stroke-linecap="round" stroke-linejoin="round" stroke-miterlimit="10" d="
			M93.471,10.297v7.417"/>
		
			<path id="Vector_3_1_" fill="none" stroke="#FFFFFF" stroke-width="1.0806" stroke-linecap="round" stroke-linejoin="round" stroke-miterlimit="10" d="
			M89.763,14.005h7.417"/>
	</g>
	<g>
		
			<path fill="none" stroke="#6F00FF" stroke-width="0.5791" stroke-linecap="round" stroke-linejoin="round" stroke-miterlimit="10" d="
			M52.178,29.028c-1.238-1.091-1.356-2.98-0.265-4.218l3.685-4.178c1.091-1.238,2.98-1.356,4.218-0.265s1.356,2.98,0.265,4.218
			l-3.685,4.178C55.304,30.001,53.416,30.12,52.178,29.028z"/>
		
			<path fill="none" stroke="#6F00FF" stroke-width="0.5791" stroke-linecap="round" stroke-linejoin="round" stroke-miterlimit="10" d="
			M53.755,22.721l-1.842,2.089c-1.091,1.238-0.973,3.126,0.265,4.218s3.126,0.973,4.218-0.265l1.842-2.089L53.755,22.721z"/>
		<g>
			
				<line fill="none" stroke="#6F00FF" stroke-width="0.2596" stroke-linecap="round" stroke-linejoin="round" stroke-miterlimit="10" x1="55.534" y1="22.64" x2="56.508" y2="21.535"/>
			<circle fill="#8126FF" cx="56.94" cy="21.043" r="0.207"/>
		</g>
	</g>
	<g>
		
			<polyline fill="none" stroke="#6F00FF" stroke-width="0.6047" stroke-linecap="round" stroke-linejoin="round" stroke-miterlimit="10" points="
			13.012,23.803 19.138,19.649 25.291,23.803 		"/>
		
			<path fill="none" stroke="#6F00FF" stroke-width="0.6047" stroke-linecap="round" stroke-linejoin="round" stroke-miterlimit="10" d="
			M14.957,23.803"/>
		
			<path fill="none" stroke="#6F00FF" stroke-width="0.6047" stroke-linecap="round" stroke-linejoin="round" stroke-miterlimit="10" d="
			M23.424,23.803"/>
		
			<polyline fill="none" stroke="#6F00FF" stroke-width="0.6047" stroke-linecap="round" stroke-linejoin="round" stroke-miterlimit="10" points="
			14.957,23.803 14.957,29.746 18.139,29.746 18.139,27.3 20.177,27.3 20.177,29.746 23.424,29.746 23.424,23.803 		"/>
	</g>
	<g>
		<g>
			
				<line fill="none" stroke="#6F00FF" stroke-width="0.5988" stroke-linecap="round" stroke-linejoin="round" stroke-miterlimit="10" x1="165.034" y1="24.071" x2="168.964" y2="24.071"/>
			
				<line fill="none" stroke="#6F00FF" stroke-width="0.5988" stroke-linecap="round" stroke-linejoin="round" stroke-miterlimit="10" x1="165.034" y1="25.39" x2="168.964" y2="25.39"/>
			
				<line fill="none" stroke="#6F00FF" stroke-width="0.5988" stroke-linecap="round" stroke-linejoin="round" stroke-miterlimit="10" x1="165.034" y1="26.709" x2="168.964" y2="26.709"/>
			
				<line fill="none" stroke="#6F00FF" stroke-width="0.5988" stroke-linecap="round" stroke-linejoin="round" stroke-miterlimit="10" x1="165.034" y1="28.028" x2="167.593" y2="28.028"/>
		</g>
		<g>
			
				<line fill="none" stroke="#6F00FF" stroke-width="0.5988" stroke-linecap="round" stroke-linejoin="round" stroke-miterlimit="10" x1="170.87" y1="22.176" x2="168.186" y2="19.582"/>
			
				<path fill="none" stroke="#6F00FF" stroke-width="0.5988" stroke-linecap="round" stroke-linejoin="round" stroke-miterlimit="10" d="
				M168.186,19.582h-4.241c-0.332,0-0.604,0.272-0.604,0.604v8.958c0,0.332,0.272,0.604,0.604,0.604h6.321
				c0.332,0,0.604-0.272,0.604-0.604v-6.969h-2.684C168.186,22.176,168.186,19.582,168.186,19.582z"/>
		</g>
	</g>
	<g>
		<g>
			<g id="Group_7_5_">
				<path id="Vector_23_5_" fill="#6F00FF" d="M129.72,20.895c-0.024,0-0.044,0.02-0.044,0.044v0.462
					c0,0.024,0.02,0.044,0.044,0.044h1.69c0.024,0,0.044-0.02,0.044-0.044v-0.462c0-0.024-0.02-0.044-0.044-0.044H129.72
					L129.72,20.895z"/>
				<path id="Vector_24_5_" fill="#6F00FF" d="M129.72,20.895c-0.024,0-0.044,0.02-0.044,0.044v0.462
					c0,0.024,0.02,0.044,0.044,0.044h1.69c0.024,0,0.044-0.02,0.044-0.044v-0.462c0-0.024-0.02-0.044-0.044-0.044H129.72
					L129.72,20.895z"/>
			</g>
			<g id="Group_8_5_">
				<path id="Vector_25_5_" fill="#6F00FF" d="M130.289,22.015c0,0.024,0.02,0.044,0.044,0.044h0.462
					c0.024,0,0.044-0.02,0.044-0.044v-1.69c0-0.024-0.02-0.044-0.044-0.044h-0.462c-0.024,0-0.044,0.02-0.044,0.044V22.015
					L130.289,22.015z"/>
				<path id="Vector_26_5_" fill="#6F00FF" d="M130.289,22.015c0,0.024,0.02,0.044,0.044,0.044h0.462
					c0.024,0,0.044-0.02,0.044-0.044v-1.69c0-0.024-0.02-0.044-0.044-0.044h-0.462c-0.024,0-0.044,0.02-0.044,0.044V22.015
					L130.289,22.015z"/>
			</g>
		</g>
		<g>
			
				<path fill="none" stroke="#6F00FF" stroke-width="0.5746" stroke-linecap="round" stroke-linejoin="round" stroke-miterlimit="10" d="
				M132.585,22.396c0,0.144-0.118,0.262-0.262,0.262h-3.5c-0.144,0-0.262-0.118-0.262-0.262v-2.542c0-0.144,0.118-0.262,0.262-0.262
				h3.5c0.144,0,0.262,0.118,0.262,0.262V22.396z"/>
		</g>
		
			<polyline fill="none" stroke="#6F00FF" stroke-width="0.5125" stroke-linecap="round" stroke-linejoin="round" stroke-miterlimit="10" points="
			135.525,25.655 135.525,29.601 125.71,29.601 125.71,25.655 		"/>
		<g>
			
				<path fill="none" stroke="#6F00FF" stroke-width="0.4451" stroke-linecap="round" stroke-linejoin="round" stroke-miterlimit="10" d="
				M128.959,26.82c0-0.143-0.117-0.26-0.26-0.26h-1.477c-0.143,0-0.26,0.117-0.26,0.26v2.481c0,0.143,0.117,0.26,0.26,0.26h1.477
				c0.143,0,0.26-0.117,0.26-0.26V26.82z"/>
		</g>
		<g>
			
				<path fill="none" stroke="#6F00FF" stroke-width="0.4451" stroke-linecap="round" stroke-linejoin="round" stroke-miterlimit="10" d="
				M134.235,26.863c0-0.144-0.118-0.262-0.262-0.262h-3.422c-0.144,0-0.262,0.118-0.262,0.262v1.293
				c0,0.144,0.118,0.262,0.262,0.262h3.422c0.144,0,0.262-0.118,0.262-0.262V26.863z"/>
		</g>
		<g>
			
				<path fill="none" stroke="#6F00FF" stroke-width="0.5125" stroke-linecap="round" stroke-linejoin="round" stroke-miterlimit="10" d="
				M126.488,24.778c0,0.424-0.362,0.769-0.809,0.769c-0.447,0-0.809-0.344-0.809-0.769l0.84-2.12h9.682l0.804,2.12
				c0,0.424-0.362,0.769-0.809,0.769c-0.447,0-0.809-0.344-0.809-0.769"/>
			
				<path fill="none" stroke="#6F00FF" stroke-width="0.5125" stroke-linecap="round" stroke-linejoin="round" stroke-miterlimit="10" d="
				M126.488,24.778c0,0.424,0.362,0.769,0.809,0.769s0.809-0.344,0.809-0.769"/>
			
				<path fill="none" stroke="#6F00FF" stroke-width="0.5125" stroke-linecap="round" stroke-linejoin="round" stroke-miterlimit="10" d="
				M128.106,24.778c0,0.424,0.362,0.769,0.809,0.769c0.447,0,0.809-0.344,0.809-0.769"/>
			
				<path fill="none" stroke="#6F00FF" stroke-width="0.5125" stroke-linecap="round" stroke-linejoin="round" stroke-miterlimit="10" d="
				M129.724,24.778c0,0.424,0.362,0.769,0.809,0.769c0.447,0,0.809-0.344,0.809-0.769"/>
			
				<path fill="none" stroke="#6F00FF" stroke-width="0.5125" stroke-linecap="round" stroke-linejoin="round" stroke-miterlimit="10" d="
				M131.341,24.778c0,0.424,0.362,0.769,0.809,0.769s0.809-0.344,0.809-0.769"/>
			
				<path fill="none" stroke="#6F00FF" stroke-width="0.5125" stroke-linecap="round" stroke-linejoin="round" stroke-miterlimit="10" d="
				M132.959,24.778c0,0.424,0.362,0.769,0.809,0.769c0.447,0,0.809-0.344,0.809-0.769"/>
		</g>
	</g>
</g>
</svg>
