<?xml version="1.0" encoding="utf-8"?>
<!-- Generator: Adobe Illustrator 17.0.0, SVG Export Plug-In . SVG Version: 6.00 Build 0)  -->
<!DOCTYPE svg PUBLIC "-//W3C//DTD SVG 1.1//EN" "http://www.w3.org/Graphics/SVG/1.1/DTD/svg11.dtd">
<svg version="1.1" id="Capa_1" xmlns="http://www.w3.org/2000/svg" xmlns:xlink="http://www.w3.org/1999/xlink" x="0px" y="0px"
	 width="185.861px" height="38.785px" viewBox="0 0 185.861 38.785" enable-background="new 0 0 185.861 38.785"
	 xml:space="preserve">
<rect x="-2.418" y="-134.042" fill="#FBF8FC" width="185.861" height="28.488"/>
<g id="icono-add_1_">
	<path id="Vector_1_" fill="#7128FB" d="M91.053-116.329c7.735,0,14.005-6.27,14.005-14.005s-6.27-14.005-14.005-14.005
		s-14.005,6.27-14.005,14.005S83.318-116.329,91.053-116.329z"/>
	
		<path id="Vector_2_1_" fill="none" stroke="#FFFFFF" stroke-width="1.0806" stroke-linecap="round" stroke-linejoin="round" stroke-miterlimit="10" d="
		M91.053-134.042v7.417"/>
	
		<path id="Vector_3_1_" fill="none" stroke="#FFFFFF" stroke-width="1.0806" stroke-linecap="round" stroke-linejoin="round" stroke-miterlimit="10" d="
		M87.345-130.334h7.417"/>
</g>
<g>
	
		<path fill="none" stroke="#6F00FF" stroke-width="0.5791" stroke-linecap="round" stroke-linejoin="round" stroke-miterlimit="10" d="
		M49.76-115.311c-1.238-1.091-1.356-2.98-0.265-4.218l3.685-4.178c1.091-1.238,2.98-1.356,4.218-0.265s1.356,2.98,0.265,4.218
		l-3.685,4.178C52.886-114.338,50.998-114.219,49.76-115.311z"/>
	
		<path fill="none" stroke="#6F00FF" stroke-width="0.5791" stroke-linecap="round" stroke-linejoin="round" stroke-miterlimit="10" d="
		M51.337-121.618l-1.842,2.089c-1.091,1.238-0.973,3.126,0.265,4.218s3.126,0.973,4.218-0.265l1.842-2.089L51.337-121.618z"/>
	<g>
		
			<line fill="none" stroke="#6F00FF" stroke-width="0.2596" stroke-linecap="round" stroke-linejoin="round" stroke-miterlimit="10" x1="53.116" y1="-121.699" x2="54.09" y2="-122.804"/>
		<circle fill="#8126FF" cx="54.522" cy="-123.296" r="0.207"/>
	</g>
</g>
<g>
	
		<polyline fill="none" stroke="#6F00FF" stroke-width="0.6047" stroke-linecap="round" stroke-linejoin="round" stroke-miterlimit="10" points="
		10.594,-120.536 16.72,-124.69 22.873,-120.536 	"/>
	
		<path fill="none" stroke="#6F00FF" stroke-width="0.6047" stroke-linecap="round" stroke-linejoin="round" stroke-miterlimit="10" d="
		M12.539-120.536"/>
	
		<path fill="none" stroke="#6F00FF" stroke-width="0.6047" stroke-linecap="round" stroke-linejoin="round" stroke-miterlimit="10" d="
		M21.006-120.536"/>
	
		<polyline fill="none" stroke="#6F00FF" stroke-width="0.6047" stroke-linecap="round" stroke-linejoin="round" stroke-miterlimit="10" points="
		12.539,-120.536 12.539,-114.593 15.721,-114.593 15.721,-117.039 17.759,-117.039 17.759,-114.593 21.006,-114.593 
		21.006,-120.536 	"/>
</g>
<g>
	<g>
		
			<line fill="none" stroke="#6F00FF" stroke-width="0.5988" stroke-linecap="round" stroke-linejoin="round" stroke-miterlimit="10" x1="162.616" y1="-120.268" x2="166.546" y2="-120.268"/>
		
			<line fill="none" stroke="#6F00FF" stroke-width="0.5988" stroke-linecap="round" stroke-linejoin="round" stroke-miterlimit="10" x1="162.616" y1="-118.949" x2="166.546" y2="-118.949"/>
		
			<line fill="none" stroke="#6F00FF" stroke-width="0.5988" stroke-linecap="round" stroke-linejoin="round" stroke-miterlimit="10" x1="162.616" y1="-117.63" x2="166.546" y2="-117.63"/>
		
			<line fill="none" stroke="#6F00FF" stroke-width="0.5988" stroke-linecap="round" stroke-linejoin="round" stroke-miterlimit="10" x1="162.616" y1="-116.311" x2="165.175" y2="-116.311"/>
	</g>
	<g>
		
			<line fill="none" stroke="#6F00FF" stroke-width="0.5988" stroke-linecap="round" stroke-linejoin="round" stroke-miterlimit="10" x1="168.452" y1="-122.163" x2="165.768" y2="-124.757"/>
		
			<path fill="none" stroke="#6F00FF" stroke-width="0.5988" stroke-linecap="round" stroke-linejoin="round" stroke-miterlimit="10" d="
			M165.768-124.757h-4.241c-0.332,0-0.604,0.272-0.604,0.604v8.958c0,0.332,0.272,0.604,0.604,0.604h6.321
			c0.332,0,0.604-0.272,0.604-0.604v-6.969h-2.684C165.768-122.163,165.768-124.757,165.768-124.757z"/>
	</g>
</g>
<g>
	<g>
		<g id="Group_7_5_">
			<path id="Vector_23_5_" fill="#6F00FF" d="M127.302-123.444c-0.024,0-0.044,0.02-0.044,0.044v0.462
				c0,0.024,0.02,0.044,0.044,0.044h1.69c0.024,0,0.044-0.02,0.044-0.044v-0.462c0-0.024-0.02-0.044-0.044-0.044H127.302
				L127.302-123.444z"/>
			<path id="Vector_24_5_" fill="#6F00FF" d="M127.302-123.444c-0.024,0-0.044,0.02-0.044,0.044v0.462
				c0,0.024,0.02,0.044,0.044,0.044h1.69c0.024,0,0.044-0.02,0.044-0.044v-0.462c0-0.024-0.02-0.044-0.044-0.044H127.302
				L127.302-123.444z"/>
		</g>
		<g id="Group_8_5_">
			<path id="Vector_25_5_" fill="#6F00FF" d="M127.871-122.324c0,0.024,0.02,0.044,0.044,0.044h0.462
				c0.024,0,0.044-0.02,0.044-0.044v-1.69c0-0.024-0.02-0.044-0.044-0.044h-0.462c-0.024,0-0.044,0.02-0.044,0.044V-122.324
				L127.871-122.324z"/>
			<path id="Vector_26_5_" fill="#6F00FF" d="M127.871-122.324c0,0.024,0.02,0.044,0.044,0.044h0.462
				c0.024,0,0.044-0.02,0.044-0.044v-1.69c0-0.024-0.02-0.044-0.044-0.044h-0.462c-0.024,0-0.044,0.02-0.044,0.044V-122.324
				L127.871-122.324z"/>
		</g>
	</g>
	<g>
		
			<path fill="none" stroke="#6F00FF" stroke-width="0.5746" stroke-linecap="round" stroke-linejoin="round" stroke-miterlimit="10" d="
			M130.167-121.943c0,0.144-0.118,0.262-0.262,0.262h-3.5c-0.144,0-0.262-0.118-0.262-0.262v-2.542c0-0.144,0.118-0.262,0.262-0.262
			h3.5c0.144,0,0.262,0.118,0.262,0.262V-121.943z"/>
	</g>
	
		<polyline fill="none" stroke="#6F00FF" stroke-width="0.5125" stroke-linecap="round" stroke-linejoin="round" stroke-miterlimit="10" points="
		133.107,-118.684 133.107,-114.738 123.292,-114.738 123.292,-118.684 	"/>
	<g>
		
			<path fill="none" stroke="#6F00FF" stroke-width="0.4451" stroke-linecap="round" stroke-linejoin="round" stroke-miterlimit="10" d="
			M126.541-117.519c0-0.143-0.117-0.26-0.26-0.26h-1.477c-0.143,0-0.26,0.117-0.26,0.26v2.481c0,0.143,0.117,0.26,0.26,0.26h1.477
			c0.143,0,0.26-0.117,0.26-0.26V-117.519z"/>
	</g>
	<g>
		
			<path fill="none" stroke="#6F00FF" stroke-width="0.4451" stroke-linecap="round" stroke-linejoin="round" stroke-miterlimit="10" d="
			M131.817-117.476c0-0.144-0.118-0.262-0.262-0.262h-3.422c-0.144,0-0.262,0.118-0.262,0.262v1.293
			c0,0.144,0.118,0.262,0.262,0.262h3.422c0.144,0,0.262-0.118,0.262-0.262V-117.476z"/>
	</g>
	<g>
		
			<path fill="none" stroke="#6F00FF" stroke-width="0.5125" stroke-linecap="round" stroke-linejoin="round" stroke-miterlimit="10" d="
			M124.07-119.561c0,0.424-0.362,0.769-0.809,0.769c-0.447,0-0.809-0.344-0.809-0.769l0.84-2.12h9.682l0.804,2.12
			c0,0.424-0.362,0.769-0.809,0.769c-0.447,0-0.809-0.344-0.809-0.769"/>
		
			<path fill="none" stroke="#6F00FF" stroke-width="0.5125" stroke-linecap="round" stroke-linejoin="round" stroke-miterlimit="10" d="
			M124.07-119.561c0,0.424,0.362,0.769,0.809,0.769s0.809-0.344,0.809-0.769"/>
		
			<path fill="none" stroke="#6F00FF" stroke-width="0.5125" stroke-linecap="round" stroke-linejoin="round" stroke-miterlimit="10" d="
			M125.688-119.561c0,0.424,0.362,0.769,0.809,0.769s0.809-0.344,0.809-0.769"/>
		
			<path fill="none" stroke="#6F00FF" stroke-width="0.5125" stroke-linecap="round" stroke-linejoin="round" stroke-miterlimit="10" d="
			M127.306-119.561c0,0.424,0.362,0.769,0.809,0.769c0.447,0,0.809-0.344,0.809-0.769"/>
		
			<path fill="none" stroke="#6F00FF" stroke-width="0.5125" stroke-linecap="round" stroke-linejoin="round" stroke-miterlimit="10" d="
			M128.923-119.561c0,0.424,0.362,0.769,0.809,0.769s0.809-0.344,0.809-0.769"/>
		
			<path fill="none" stroke="#6F00FF" stroke-width="0.5125" stroke-linecap="round" stroke-linejoin="round" stroke-miterlimit="10" d="
			M130.541-119.561c0,0.424,0.362,0.769,0.809,0.769c0.447,0,0.809-0.344,0.809-0.769"/>
	</g>
</g>
</svg>
