<?xml version="1.0" encoding="utf-8"?>
<!-- Generator: Adobe Illustrator 17.0.0, SVG Export Plug-In . SVG Version: 6.00 Build 0)  -->
<!DOCTYPE svg PUBLIC "-//W3C//DTD SVG 1.1//EN" "http://www.w3.org/Graphics/SVG/1.1/DTD/svg11.dtd">
<svg version="1.1" id="Capa_1" xmlns="http://www.w3.org/2000/svg" xmlns:xlink="http://www.w3.org/1999/xlink" x="0px" y="0px"
	 width="48px" height="48px" viewBox="0 0 48 48" enable-background="new 0 0 48 48" xml:space="preserve">
<g>
	
		<path fill="none" stroke="#6F00FF" stroke-width="2.3836" stroke-linecap="round" stroke-linejoin="round" stroke-miterlimit="10" d="
		M41.007,7.985c0-1.165-1.228-2.118-2.728-2.118H9.722c-1.501,0-2.728,0.953-2.728,2.118v31.423c0,1.165,1.228,2.118,2.728,2.118
		h28.557c1.501,0,2.728-0.953,2.728-2.118V7.985z"/>
	<g>
		
			<path fill="none" stroke="#6F00FF" stroke-width="1.8" stroke-linecap="round" stroke-linejoin="round" stroke-miterlimit="10" d="
			M27.305,26.429"/>
		
			<path fill="none" stroke="#6F00FF" stroke-width="1.8" stroke-linecap="round" stroke-linejoin="round" stroke-miterlimit="10" d="
			M27.305,20.502"/>
		
			<path fill="none" stroke="#6F00FF" stroke-width="1.8" stroke-linecap="round" stroke-linejoin="round" stroke-miterlimit="10" d="
			M21.378,20.502v-5.026c0-0.593,0.214-1.077,0.475-1.077h4.976c0.261,0,0.475,0.485,0.475,1.077v5.026"/>
		
			<path fill="none" stroke="#6F00FF" stroke-width="1.8" stroke-linecap="round" stroke-linejoin="round" stroke-miterlimit="10" d="
			M21.378,26.429"/>
		
			<path fill="none" stroke="#6F00FF" stroke-width="1.8" stroke-linecap="round" stroke-linejoin="round" stroke-miterlimit="10" d="
			M21.378,20.502"/>
		
			<path fill="none" stroke="#6F00FF" stroke-width="1.8" stroke-linecap="round" stroke-linejoin="round" stroke-miterlimit="10" d="
			M21.378,26.429v5.026c0,0.593,0.214,1.077,0.475,1.077h4.976c0.261,0,0.475-0.485,0.475-1.077v-5.026"/>
		
			<path fill="none" stroke="#6F00FF" stroke-width="1.8" stroke-linecap="round" stroke-linejoin="round" stroke-miterlimit="10" d="
			M21.378,20.502h-5.026c-0.592,0-1.077,0.214-1.077,0.475v4.976c0,0.261,0.485,0.475,1.077,0.475h5.026"/>
		
			<path fill="none" stroke="#6F00FF" stroke-width="1.8" stroke-linecap="round" stroke-linejoin="round" stroke-miterlimit="10" d="
			M27.305,26.429h5.026c0.593,0,1.077-0.214,1.077-0.475v-4.976c0-0.261-0.485-0.475-1.077-0.475h-5.026"/>
		
			<path fill="none" stroke="#6F00FF" stroke-width="1.8" stroke-linecap="round" stroke-linejoin="round" stroke-miterlimit="10" d="
			M27.305,26.429"/>
		
			<path fill="none" stroke="#6F00FF" stroke-width="1.8" stroke-linecap="round" stroke-linejoin="round" stroke-miterlimit="10" d="
			M21.378,26.429"/>
		
			<path fill="none" stroke="#6F00FF" stroke-width="1.8" stroke-linecap="round" stroke-linejoin="round" stroke-miterlimit="10" d="
			M27.305,20.502"/>
		
			<path fill="none" stroke="#6F00FF" stroke-width="1.8" stroke-linecap="round" stroke-linejoin="round" stroke-miterlimit="10" d="
			M21.378,20.502"/>
	</g>
</g>
</svg>
