<?xml version="1.0" encoding="utf-8"?>
<!-- Generator: Adobe Illustrator 17.0.0, SVG Export Plug-In . SVG Version: 6.00 Build 0)  -->
<!DOCTYPE svg PUBLIC "-//W3C//DTD SVG 1.1//EN" "http://www.w3.org/Graphics/SVG/1.1/DTD/svg11.dtd">
<svg version="1.1" id="Capa_1" xmlns="http://www.w3.org/2000/svg" xmlns:xlink="http://www.w3.org/1999/xlink" x="0px" y="0px"
	 width="48px" height="48px" viewBox="0 0 48 48" enable-background="new 0 0 48 48" xml:space="preserve">
<g>
	<path fill="none" stroke="#FFFFFF" stroke-width="2.5" stroke-linecap="round" stroke-linejoin="round" stroke-miterlimit="10" d="
		M16.731,36.155c0.141,0,0.286,0.036,0.415,0.107c0.938,0.524,1.954,0.947,3.02,1.253c0.327,0.094,0.567,0.373,0.609,0.71
		l0.477,3.745c0.051,0.427,0.42,0.756,0.841,0.756h3.813c0.42,0,0.79-0.329,0.839-0.747l0.478-3.752
		c0.043-0.337,0.283-0.616,0.609-0.71c1.066-0.306,2.082-0.729,3.02-1.253c0.298-0.167,0.669-0.138,0.936,0.072l2.979,2.315
		c0.342,0.266,0.822,0.243,1.115-0.058l2.698-2.698c0.308-0.3,0.332-0.78,0.066-1.124l-2.315-2.979
		c-0.209-0.269-0.238-0.638-0.072-0.936c0.524-0.938,0.947-1.954,1.253-3.02c0.094-0.327,0.373-0.567,0.71-0.609l3.745-0.477
		c0.427-0.053,0.756-0.422,0.756-0.843v-3.813c0-0.42-0.329-0.79-0.747-0.839l-3.752-0.478c-0.337-0.043-0.616-0.283-0.71-0.609
		c-0.306-1.066-0.729-2.082-1.253-3.02c-0.167-0.298-0.14-0.667,0.072-0.936l2.315-2.979c0.267-0.344,0.243-0.824-0.056-1.113
		l-2.698-2.698c-0.298-0.31-0.78-0.334-1.124-0.066l-2.979,2.315c-0.271,0.209-0.64,0.238-0.938,0.072
		c-0.935-0.524-1.951-0.945-3.02-1.253c-0.327-0.094-0.567-0.373-0.609-0.71l-0.477-3.745c-0.053-0.429-0.422-0.758-0.843-0.758
		h-3.813c-0.42,0-0.79,0.329-0.839,0.747l-0.478,3.752c-0.043,0.337-0.283,0.616-0.609,0.712c-1.069,0.306-2.085,0.729-3.02,1.251
		c-0.298,0.169-0.667,0.138-0.938-0.07l-2.979-2.315c-0.344-0.267-0.822-0.243-1.113,0.056l-2.698,2.7
		c-0.308,0.3-0.332,0.78-0.066,1.124l2.315,2.979c0.209,0.269,0.238,0.638,0.072,0.936c-0.526,0.938-0.947,1.954-1.253,3.02
		c-0.094,0.327-0.373,0.567-0.71,0.609L6.03,21.255c-0.427,0.051-0.756,0.42-0.756,0.841v3.813c0,0.42,0.329,0.79,0.747,0.839
		l3.752,0.478c0.337,0.043,0.616,0.283,0.71,0.609c0.306,1.066,0.729,2.082,1.253,3.02c0.167,0.298,0.14,0.667-0.072,0.936
		L9.349,34.77c-0.267,0.344-0.243,0.824,0.056,1.113l2.698,2.698c0.298,0.308,0.776,0.332,1.124,0.066l2.979-2.315
		C16.361,36.217,16.545,36.155,16.731,36.155L16.731,36.155z"/>
	
		<circle fill="none" stroke="#FFFFFF" stroke-width="2.5" stroke-linecap="round" stroke-linejoin="round" stroke-miterlimit="10" cx="24" cy="24" r="7.648"/>
</g>
</svg>
