<svg width="284" height="156" viewBox="0 0 284 156" fill="none" xmlns="http://www.w3.org/2000/svg">
<g id="Group 53">
<path id="b901917b-4981-4312-adbf-d5b8f006e98e_2_" d="M179.442 124.243C179.442 124.243 181.93 120.153 185.124 122.571C188.318 124.989 194.233 129.069 194.233 129.069C194.233 129.069 195.445 131.678 192.309 130.698C189.173 129.718 178.937 128.141 178.937 128.141L179.442 124.243Z" fill="#FEB8B8"/>
<path id="Vector" d="M109.914 98.2719C110.707 91.8847 114.658 85.5913 120.738 83.5127C118.34 90.0869 118.34 97.2991 120.739 103.873C121.674 106.405 122.976 109.123 122.097 111.675C121.55 113.263 120.213 114.478 118.718 115.237C117.222 115.997 115.563 116.359 113.924 116.714L113.601 116.981C111 111.096 109.121 104.659 109.914 98.2719Z" fill="#56A074"/>
<path id="Vector_2" d="M120.798 83.6334C117.257 87.6083 115.056 92.5997 114.508 97.8987C114.37 99.0374 114.412 100.191 114.632 101.316C114.882 102.406 115.419 103.409 116.186 104.22C116.887 104.991 117.693 105.698 118.194 106.627C118.698 107.595 118.766 108.734 118.381 109.756C117.938 111.028 117.066 112.064 116.178 113.048C115.192 114.14 114.15 115.259 113.731 116.707C113.68 116.883 113.412 116.794 113.462 116.619C114.192 114.099 116.633 112.668 117.797 110.398C118.34 109.339 118.569 108.11 118.059 106.992C117.614 106.015 116.784 105.284 116.068 104.51C115.307 103.729 114.749 102.774 114.442 101.727C114.166 100.617 114.079 99.4667 114.188 98.3268C114.391 95.7571 114.995 93.2353 115.98 90.8536C117.089 88.1292 118.655 85.6153 120.61 83.4201C120.731 83.2849 120.918 83.4986 120.798 83.6334Z" fill="white"/>
<path id="Vector_3" d="M114.585 96.1822C112.778 95.7426 111.555 94.0562 111.696 92.1985C111.71 92.0166 111.993 92.0305 111.979 92.2127C111.844 93.9429 112.988 95.5133 114.674 95.9129C114.851 95.955 114.761 96.2241 114.585 96.1822Z" fill="white"/>
<path id="Vector_4" d="M115.78 103.876C117.361 102.931 118.527 101.423 119.047 99.6546C119.099 99.4794 119.367 99.5684 119.316 99.7437C118.771 101.583 117.554 103.149 115.907 104.13C115.751 104.223 115.624 103.969 115.78 103.876Z" fill="white"/>
<path id="Vector_5" d="M117.352 88.3986C118.005 88.7094 118.77 88.6706 119.388 88.295C119.544 88.1997 119.67 88.4537 119.516 88.5483C118.831 88.9598 117.988 89.0046 117.264 88.6677C117.191 88.6411 117.152 88.5626 117.173 88.4886C117.199 88.4147 117.278 88.3744 117.352 88.3986Z" fill="white"/>
<path id="Vector_6" d="M139.271 94.9208C139.175 94.9831 139.079 95.0453 138.984 95.11C137.703 95.9535 136.493 96.9001 135.366 97.9399C135.277 98.0189 135.189 98.1003 135.103 98.1817C132.413 100.716 130.217 103.729 128.625 107.067C127.992 108.395 127.462 109.77 127.038 111.18C126.452 113.126 125.972 115.283 124.813 116.875C124.694 117.043 124.565 117.203 124.426 117.354H113.952C113.928 117.342 113.904 117.333 113.88 117.321L113.462 117.34C113.479 117.266 113.498 117.189 113.514 117.115C113.524 117.072 113.536 117.029 113.546 116.986C113.553 116.957 113.56 116.928 113.565 116.902C113.567 116.892 113.569 116.883 113.572 116.875C113.577 116.849 113.584 116.825 113.589 116.801C113.694 116.373 113.802 115.944 113.914 115.516C113.914 115.513 113.914 115.513 113.916 115.511C114.774 112.248 115.911 109.027 117.501 106.083C117.548 105.994 117.596 105.903 117.649 105.814C118.372 104.491 119.203 103.229 120.132 102.041C120.642 101.392 121.185 100.77 121.759 100.176C123.244 98.6448 124.96 97.3569 126.844 96.3597C130.601 94.3726 134.95 93.6112 138.965 94.8251C139.068 94.8562 139.168 94.8873 139.271 94.9208Z" fill="#68C18C"/>
<path id="Vector_7" d="M139.247 95.0546C134.032 96.0925 129.275 98.7505 125.653 102.651C124.858 103.477 124.198 104.423 123.698 105.454C123.243 106.475 123.069 107.599 123.194 108.71C123.29 109.748 123.508 110.799 123.35 111.843C123.171 112.921 122.541 113.871 121.619 114.454C120.502 115.203 119.182 115.504 117.882 115.754C116.438 116.031 114.934 116.297 113.729 117.2C113.583 117.309 113.422 117.076 113.568 116.967C115.665 115.395 118.474 115.725 120.767 114.615C121.837 114.097 122.758 113.253 123.023 112.054C123.255 111.004 123.031 109.921 122.925 108.87C122.787 107.788 122.916 106.689 123.299 105.668C123.746 104.614 124.368 103.644 125.139 102.8C126.846 100.87 128.844 99.2217 131.062 97.9142C133.584 96.408 136.345 95.345 139.226 94.7716C139.404 94.7362 139.424 95.0194 139.247 95.0546Z" fill="white"/>
<path id="Vector_8" d="M126.745 101.326C125.567 99.8845 125.603 97.8003 126.832 96.4019C126.953 96.2654 127.17 96.4471 127.05 96.5838C125.903 97.8844 125.872 99.8282 126.978 101.164C127.094 101.304 126.861 101.465 126.745 101.326Z" fill="white"/>
<path id="Vector_9" d="M123.076 108.19C124.906 108.388 126.743 107.888 128.222 106.79C128.368 106.681 128.529 106.914 128.383 107.023C126.843 108.163 124.929 108.68 123.026 108.469C122.844 108.449 122.896 108.17 123.076 108.19Z" fill="white"/>
<path id="Vector_10" d="M133.632 96.7811C133.967 97.4232 134.601 97.8535 135.32 97.9267C135.502 97.9447 135.45 98.2236 135.27 98.2059C134.476 98.1216 133.775 97.6485 133.399 96.9427C133.358 96.8778 133.373 96.7914 133.435 96.7454C133.5 96.7009 133.587 96.7169 133.632 96.7811Z" fill="white"/>
<path id="Vector_11" d="M194.388 140.605C194.695 138.129 196.226 135.69 198.583 134.885C197.653 137.433 197.654 140.228 198.583 142.776C198.945 143.757 199.45 144.81 199.109 145.799C198.865 146.411 198.397 146.905 197.8 147.18C197.207 147.449 196.583 147.642 195.942 147.752L195.817 147.856C194.809 145.575 194.081 143.08 194.388 140.605Z" fill="#F0F0F0"/>
<path id="Vector_12" d="M198.606 134.931C197.234 136.472 196.381 138.406 196.169 140.46C196.115 140.901 196.131 141.348 196.217 141.784C196.314 142.207 196.522 142.595 196.819 142.91C197.115 143.188 197.376 143.501 197.597 143.842C197.792 144.218 197.819 144.659 197.669 145.055C197.473 145.534 197.182 145.968 196.816 146.331C196.433 146.754 196.03 147.188 195.867 147.75C195.848 147.817 195.744 147.783 195.763 147.715C196.046 146.738 196.992 146.184 197.443 145.304C197.679 144.904 197.716 144.416 197.545 143.984C197.34 143.624 197.08 143.3 196.773 143.022C196.478 142.72 196.262 142.349 196.143 141.944C196.036 141.513 196.002 141.068 196.044 140.626C196.123 139.63 196.357 138.653 196.739 137.73C197.169 136.674 197.776 135.7 198.533 134.849C198.581 134.796 198.653 134.879 198.606 134.931Z" fill="white"/>
<path id="Vector_13" d="M196.198 139.795C195.498 139.625 195.024 138.971 195.078 138.251C195.084 138.18 195.194 138.186 195.188 138.256C195.136 138.927 195.579 139.536 196.233 139.691C196.301 139.707 196.266 139.811 196.198 139.795Z" fill="white"/>
<path id="Vector_14" d="M196.661 142.776C197.273 142.41 197.725 141.826 197.927 141.14C197.947 141.072 198.051 141.107 198.031 141.175C197.82 141.888 197.348 142.495 196.71 142.874C196.649 142.911 196.6 142.812 196.661 142.776Z" fill="white"/>
<path id="Vector_15" d="M197.271 136.778C197.524 136.899 197.82 136.884 198.06 136.738C198.12 136.701 198.169 136.8 198.109 136.836C197.844 136.996 197.517 137.013 197.236 136.883C197.208 136.872 197.193 136.842 197.202 136.813C197.211 136.785 197.242 136.769 197.271 136.778Z" fill="white"/>
<path id="Vector_16" d="M205.765 139.306C205.728 139.33 205.691 139.354 205.654 139.379C205.158 139.706 204.689 140.073 204.252 140.476C204.218 140.507 204.184 140.538 204.15 140.57C203.108 141.552 202.256 142.719 201.64 144.013C201.395 144.528 201.189 145.061 201.025 145.607C200.798 146.361 200.612 147.197 200.163 147.814C200.117 147.879 200.066 147.941 200.013 148H195.953C195.944 147.995 195.935 147.992 195.926 147.987L195.764 147.994C195.77 147.966 195.778 147.936 195.784 147.907C195.788 147.891 195.792 147.874 195.796 147.857C195.799 147.846 195.801 147.835 195.803 147.825C195.804 147.821 195.805 147.817 195.806 147.814C195.808 147.804 195.811 147.795 195.813 147.786C195.853 147.62 195.895 147.454 195.939 147.287L195.94 147.286C196.257 146.017 196.723 144.79 197.329 143.632C197.347 143.597 197.366 143.562 197.386 143.528C197.667 143.015 197.988 142.526 198.348 142.065C198.546 141.814 198.757 141.573 198.979 141.342C199.554 140.749 200.22 140.25 200.95 139.863C202.406 139.093 204.091 138.798 205.647 139.269C205.687 139.281 205.726 139.293 205.765 139.306Z" fill="#F0F0F0"/>
<path id="Vector_17" d="M205.756 139.358C203.735 139.76 201.891 140.79 200.487 142.302C200.179 142.622 199.924 142.988 199.73 143.388C199.553 143.784 199.486 144.219 199.534 144.65C199.604 145.051 199.624 145.458 199.595 145.864C199.526 146.282 199.282 146.65 198.924 146.876C198.48 147.139 197.987 147.311 197.476 147.38C196.916 147.487 196.333 147.59 195.866 147.94C195.81 147.982 195.747 147.892 195.804 147.85C196.617 147.24 197.705 147.368 198.594 146.938C199.023 146.76 199.346 146.394 199.468 145.945C199.521 145.535 199.508 145.118 199.43 144.711C199.377 144.292 199.427 143.866 199.575 143.471C199.748 143.062 199.989 142.686 200.288 142.359C200.95 141.611 201.724 140.972 202.583 140.466C203.561 139.882 204.631 139.47 205.747 139.248C205.817 139.234 205.825 139.344 205.756 139.358Z" fill="white"/>
<path id="Vector_18" d="M200.911 141.788C200.454 141.229 200.468 140.422 200.945 139.88C200.992 139.827 201.076 139.897 201.029 139.95C200.584 140.454 200.572 141.207 201.001 141.725C201.046 141.78 200.956 141.842 200.911 141.788Z" fill="white"/>
<path id="Vector_19" d="M203.58 140.027C203.709 140.275 203.955 140.442 204.234 140.47C204.304 140.477 204.284 140.586 204.214 140.579C203.907 140.546 203.635 140.363 203.49 140.089C203.473 140.064 203.479 140.03 203.503 140.013C203.529 139.995 203.563 140.002 203.58 140.027Z" fill="white"/>
<path id="Vector_20" d="M264.129 88.0232C262.911 78.2057 256.838 68.5327 247.492 65.3379C251.178 75.4428 251.177 86.5281 247.49 96.6325C246.054 100.524 244.053 104.703 245.403 108.625C246.244 111.066 248.3 112.933 250.598 114.1C252.896 115.268 255.447 115.824 257.966 116.37L258.461 116.78C262.46 107.735 265.348 97.8408 264.129 88.0232Z" fill="#56A074"/>
<path id="Vector_21" d="M247.4 65.5237C252.842 71.6331 256.225 79.3051 257.067 87.4503C257.237 89.1964 257.258 90.9825 256.877 92.7036C256.493 94.3784 255.668 95.9195 254.488 97.1669C253.412 98.352 252.173 99.4394 251.403 100.866C250.591 102.37 250.559 104.079 251.116 105.676C251.796 107.63 253.136 109.223 254.501 110.736C256.017 112.415 257.618 114.135 258.262 116.361C258.34 116.631 258.753 116.493 258.675 116.224C257.554 112.351 253.802 110.151 252.012 106.663C251.177 105.036 250.827 103.146 251.609 101.428C252.294 99.9254 253.57 98.8028 254.67 97.6124C255.826 96.3624 256.712 94.9908 257.168 93.3357C257.635 91.6425 257.684 89.8519 257.56 88.1092C257.248 84.1593 256.318 80.2831 254.805 76.6226C253.1 72.4354 250.693 68.571 247.688 65.1969C247.502 64.9879 247.215 65.3161 247.4 65.5237Z" fill="white"/>
<path id="Vector_22" d="M256.95 84.8117C259.727 84.136 261.607 81.5439 261.391 78.6886C261.369 78.4089 260.934 78.4303 260.956 78.7104C261.163 81.3698 259.405 83.7836 256.813 84.3977C256.541 84.4626 256.679 84.8761 256.95 84.8117Z" fill="white"/>
<path id="Vector_23" d="M255.113 96.6375C252.684 95.1845 250.891 92.8676 250.091 90.149C250.012 89.8797 249.599 90.0166 249.678 90.2857C250.515 93.1133 252.386 95.5204 254.917 97.0271C255.158 97.1705 255.353 96.7802 255.113 96.6375Z" fill="white"/>
<path id="Vector_24" d="M252.696 72.8483C251.692 73.3262 250.516 73.2663 249.566 72.6891C249.327 72.5426 249.133 72.9331 249.37 73.0786C250.423 73.7112 251.719 73.7799 252.832 73.2625C252.944 73.2216 253.004 73.1011 252.971 72.9872C252.933 72.8732 252.81 72.8112 252.696 72.8483Z" fill="white"/>
<path id="Vector_25" d="M219.006 82.873C219.153 82.9688 219.3 83.0643 219.447 83.1637C221.415 84.4604 223.275 85.9151 225.008 87.5134C225.144 87.6348 225.28 87.76 225.412 87.885C229.546 91.7806 232.923 96.4112 235.37 101.541C236.342 103.584 237.157 105.697 237.809 107.864C238.709 110.855 239.447 114.171 241.228 116.618C241.411 116.875 241.61 117.121 241.823 117.354H257.923C257.959 117.336 257.996 117.321 258.033 117.303L258.676 117.332C258.65 117.218 258.621 117.1 258.595 116.986C258.58 116.92 258.562 116.854 258.547 116.787C258.536 116.743 258.525 116.699 258.517 116.659C258.514 116.644 258.51 116.629 258.506 116.618C258.499 116.578 258.488 116.541 258.481 116.504C258.319 115.845 258.152 115.186 257.981 114.528C257.981 114.524 257.981 114.524 257.978 114.52C256.659 109.504 254.911 104.555 252.468 100.029C252.394 99.8923 252.321 99.7525 252.24 99.6165C251.128 97.5824 249.851 95.6426 248.424 93.8168C247.639 92.8197 246.804 91.8627 245.922 90.95C243.64 88.5963 241.003 86.6168 238.106 85.0841C232.332 82.0298 225.647 80.8595 219.476 82.7253C219.318 82.7737 219.164 82.8216 219.006 82.873Z" fill="#68C18C"/>
<path id="Vector_26" d="M219.043 83.0777C227.06 84.673 234.371 88.7584 239.938 94.7537C241.123 96.0454 242.213 97.4591 242.943 99.063C243.643 100.632 243.91 102.36 243.718 104.068C243.57 105.663 243.235 107.278 243.477 108.882C243.733 110.573 244.735 111.956 246.138 112.896C247.856 114.046 249.884 114.51 251.882 114.894C254.101 115.32 256.413 115.728 258.265 117.117C258.49 117.285 258.737 116.926 258.513 116.758C255.291 114.342 250.973 114.849 247.448 113.144C245.803 112.348 244.387 111.05 243.98 109.206C243.624 107.594 243.968 105.928 244.131 104.314C244.302 102.619 244.186 100.989 243.555 99.3922C242.911 97.7586 241.874 96.2994 240.727 94.9831C238.104 92.0174 235.033 89.4834 231.624 87.4737C227.747 85.1585 223.503 83.525 219.076 82.6434C218.802 82.5886 218.771 83.0236 219.043 83.0777Z" fill="white"/>
<path id="Vector_27" d="M238.259 92.7174C240.07 90.5026 240.014 87.2989 238.125 85.1496C237.939 84.9397 237.605 85.2191 237.791 85.4293C239.554 87.4282 239.601 90.4159 237.901 92.4691C237.723 92.6853 238.081 92.9324 238.259 92.7174Z" fill="white"/>
<path id="Vector_28" d="M243.899 103.268C241.086 103.573 238.263 102.805 235.99 101.117C235.765 100.949 235.518 101.308 235.742 101.475C238.11 103.228 241.051 104.021 243.977 103.697C244.256 103.666 244.176 103.237 243.899 103.268Z" fill="white"/>
<path id="Vector_29" d="M227.673 85.7317C227.159 86.7186 226.184 87.3801 225.079 87.4924C224.8 87.5199 224.879 87.9487 225.156 87.9214C226.377 87.7917 227.453 87.0646 228.031 85.98C228.095 85.8802 228.071 85.7475 227.976 85.6767C227.877 85.6087 227.742 85.6331 227.673 85.7317Z" fill="white"/>
<path id="Vector_30" d="M282.865 118H47.3136C47.1543 118 47.025 117.776 47.025 117.5C47.025 117.224 -57.143 117 47.3136 117H282.77C282.93 117 283.059 117.224 283.059 117.5C283.059 117.776 283.024 118 282.865 118Z" fill="#CACACA"/>
<path id="Vector_31" d="M156.117 139H81.0166C80.7867 139 80.6001 138.776 80.6001 138.5C80.6001 138.224 80.7867 138 81.0166 138H155.981C156.211 138 156.397 138.224 156.397 138.5C156.397 138.776 156.347 139 156.117 139Z" fill="#CACACA"/>
<path id="Vector_32" d="M264.258 138.423H221.165C221.033 138.423 220.926 138.316 220.926 138.184C220.926 138.052 221.033 137.944 221.165 137.944H264.18C264.312 137.944 264.419 138.052 264.419 138.184C264.419 138.316 264.39 138.423 264.258 138.423Z" fill="#CACACA"/>
<path id="ea820f77-130a-433d-b966-41522e2706cd_2_" d="M167.22 129.325C164.543 129.325 162.092 129.069 160.145 128.461C157.831 127.739 156.378 126.571 155.825 124.988C155.297 123.619 155.542 122.072 156.465 120.934C159.889 116.464 171.77 115.203 173.364 115.054L176.599 108.919C176.806 107.455 175.827 106.347 177.518 106.319L197.528 106.047C199.189 106.012 198.718 107.043 199.002 108.47L202.051 113.922L188.93 119.47L190.914 124.313L190.784 124.389C186.945 126.621 175.901 129.325 167.22 129.325Z" fill="#2F2E41"/>
<path id="e2cf09bf-0dcf-4d32-bd8b-d83345e69099_2_" d="M200.235 114.155C200.235 114.155 218.559 112.054 217.364 120.458C216.169 128.862 202.227 134.815 181.114 120.458L183.504 116.256C183.504 116.256 191.372 115.864 196.152 113.763L200.235 114.155Z" fill="#2F2E41"/>
<path id="e394c6e3-5a9b-4b6a-ab2c-d395b6ec401d_2_" d="M174.293 76.0831C174.293 76.0831 170.81 75.4486 169.86 80.8413C168.91 86.2339 167.388 99.0074 167.388 99.0074L162.664 115.416C161.043 116.278 160.426 118.294 161.287 119.919C162.147 121.544 164.16 122.162 165.782 121.299C167.191 120.55 167.87 118.903 167.399 117.375L173.721 99.9603L174.926 84.9662V77.1097C174.926 76.6749 174.681 76.2775 174.293 76.0831Z" fill="#FEB8B8"/>
<path id="bce87157-538b-4a9f-a71d-b40a66ba2871_2_" d="M198.807 76.0831C198.807 76.0831 202.29 75.4486 203.24 80.8413C204.189 86.2339 205.711 99.0074 205.711 99.0074L210.435 115.416C212.057 116.278 212.674 118.294 211.813 119.919C210.952 121.544 208.939 122.162 207.318 121.299C205.908 120.55 205.229 118.903 205.7 117.375L199.379 99.9603L198.174 84.9662V77.1097C198.174 76.6749 198.419 76.2775 198.807 76.0831Z" fill="#FEB8B8"/>
<path id="Vector_33" d="M198.542 71.6258L191.954 69.1574L179.185 68.9922L173.689 71.6258L175.233 80.5144C175.233 80.5144 172.116 85.802 175.548 91.09L176.318 109.933C176.318 109.933 188.628 117.085 199.02 108.496L196.671 90.977C196.671 90.977 200.6 82.8488 197.555 79.829L198.542 71.6258Z" fill="#6C63FF"/>
<path id="Vector_34" d="M195.858 74.3881L198.542 71.626C198.542 71.626 204.397 74.7118 204.277 85.0334L196.89 82.7527L195.858 74.3881Z" fill="#6C63FF"/>
<path id="Vector_35" d="M176.669 74.3883L173.819 71.5322C173.819 71.5322 168.789 75.4304 168.909 85.7518L175.638 82.7528L176.669 74.3883Z" fill="#6C63FF"/>
<path id="fa495a93-2d48-4158-a295-a9de2db8cd68_2_" d="M195.253 122.201C195.253 122.201 193.201 117.876 189.774 119.949C186.347 122.023 180.042 125.467 180.042 125.467C180.042 125.467 178.567 127.937 181.787 127.287C185.007 126.637 195.352 126.131 195.352 126.131L195.253 122.201Z" fill="#FEB8B8"/>
<path id="Vector_36" d="M189.552 44.8789C189.581 44.8509 189.611 44.826 189.64 44.7973C191.473 42.9602 191.845 40.3539 190.47 38.9761C189.17 37.6739 186.776 37.9367 184.969 39.5198C183.42 38.0421 181.343 37.63 179.998 38.6502C178.447 39.8265 178.459 42.4594 180.025 44.5306C180.132 44.6723 180.245 44.8064 180.36 44.9354C176.093 46.5005 173.255 50.5689 173.255 55.1217V65.4454C173.255 66.7186 174.285 67.7505 175.556 67.7505H194.601C195.829 67.7505 196.824 66.7531 196.824 65.5228V55.1217C196.824 50.5048 193.905 46.3942 189.552 44.8789Z" fill="#2F2E41"/>
<path id="Vector_37" d="M185.341 66.7209C190.332 66.7209 194.378 62.6672 194.378 57.6666C194.378 52.6661 190.332 48.6123 185.341 48.6123C180.349 48.6123 176.303 52.6661 176.303 57.6666C176.303 62.6672 180.349 66.7209 185.341 66.7209Z" fill="#FFB6B6"/>
<path id="Vector_38" d="M175.844 51.9716C177.909 53.3976 180.361 54.1566 182.869 54.1465C181.974 54.768 180.956 55.1877 179.883 55.3771C183.218 56.0937 186.665 56.1131 190.007 55.4341C190.75 55.3146 191.467 55.068 192.127 54.7048C192.791 54.333 193.267 53.6957 193.435 52.952C193.657 51.6807 192.668 50.5258 191.641 49.7474C188.455 47.371 184.372 46.5536 180.519 47.5208C179.277 47.8426 178.033 48.3861 177.226 49.3857C176.419 50.3852 176.18 51.9261 176.949 52.9554L175.844 51.9716Z" fill="#2F2E41"/>
<path id="Vector_39" d="M127.506 33.9032L127.791 33.5184L135.378 39.1567C134.966 37.8976 133.506 33.9065 131.114 32.3142C128.256 30.4118 126.245 31.0036 125.149 32.6556C124.054 34.3076 124.288 36.3941 127.147 38.2968C129.569 39.9095 133.885 39.6851 135.145 39.5796L127.506 33.9032Z" fill="#68C18C"/>
<path id="Vector_40" d="M241.661 3.03391L242.013 3.3576L235.627 10.3311C236.92 10.0513 241.034 9.01218 242.863 6.79397C245.049 4.14385 244.671 2.07863 243.145 0.81522C241.619 -0.448191 239.523 -0.431431 237.337 2.21869C235.484 4.46515 235.258 8.78904 235.232 10.0546L241.661 3.03391Z" fill="#6C14EE"/>
<path id="Vector_41" d="M138.665 77.4929L139.017 77.8166L132.631 84.7901C133.924 84.5102 138.038 83.4712 139.867 81.253C142.053 78.6028 141.675 76.5376 140.149 75.2742C138.623 74.0108 136.527 74.0276 134.341 76.6777C132.488 78.9241 132.262 83.248 132.236 84.5136L138.665 77.4929Z" fill="#68C18C"/>
<path id="Vector_42" d="M192.667 11.0252L193.081 11.2651L188.35 19.4568C189.551 18.9035 193.344 16.9982 194.652 14.4362C196.214 11.3754 195.399 9.44093 193.637 8.5376C191.874 7.63427 189.832 8.10449 188.269 11.1655C186.945 13.76 187.656 18.0308 187.904 19.2722L192.667 11.0252Z" fill="#6C14EE"/>
<path id="Vector_43" d="M236.876 62.261L237.29 62.5009L232.559 70.6926C233.76 70.1393 237.553 68.234 238.861 65.672C240.423 62.6113 239.608 60.6768 237.846 59.7734C236.083 58.8701 234.041 59.3403 232.478 62.4013C231.154 64.9959 231.865 69.2666 232.113 70.508L236.876 62.261Z" fill="#68C18C"/>
<path id="Vector_44" d="M202.207 155.448C202.918 155.525 203.632 155.332 204.206 154.906C204.263 154.864 204.326 154.954 204.269 154.996C203.67 155.438 202.927 155.638 202.187 155.557C202.116 155.549 202.137 155.441 202.207 155.448Z" fill="white"/>
</g>
</svg>
