<?xml version="1.0" encoding="utf-8"?>
<!-- Generator: Adobe Illustrator 17.0.0, SVG Export Plug-In . SVG Version: 6.00 Build 0)  -->
<!DOCTYPE svg PUBLIC "-//W3C//DTD SVG 1.1//EN" "http://www.w3.org/Graphics/SVG/1.1/DTD/svg11.dtd">
<svg version="1.1" id="Capa_1" xmlns="http://www.w3.org/2000/svg" xmlns:xlink="http://www.w3.org/1999/xlink" x="0px" y="0px"
	 width="360px" height="714.104px" viewBox="0 0 360 714.104" enable-background="new 0 0 360 714.104" xml:space="preserve">
<g id="Informacion">
	
		<linearGradient id="_x30_1_-_BG_1_" gradientUnits="userSpaceOnUse" x1="98.6055" y1="279.6184" x2="354.5533" y2="35.3954" gradientTransform="matrix(1 0 0 -1 -40 510)">
		<stop  offset="0" style="stop-color:#7A41F0"/>
		<stop  offset="0.691" style="stop-color:#6000E3"/>
	</linearGradient>
	<path id="_x30_1_-_BG_16_" fill="url(#_x30_1_-_BG_1_)" d="M367-23.39H-7v739.21h374V-23.39z"/>
	<g>
		<g>
			<defs>
				<rect id="SVGID_3_" x="-7" y="-23.39" width="374" height="667"/>
			</defs>
			<clipPath id="SVGID_4_">
				<use xlink:href="#SVGID_3_"  overflow="visible"/>
			</clipPath>
			
				<circle opacity="0.05" clip-path="url(#SVGID_4_)" fill="#FFFFFF" enable-background="new    " cx="28.986" cy="45.916" r="120.245"/>
		</g>
		<g>
			<defs>
				<rect id="SVGID_5_" x="-7" y="-23.39" width="374" height="667"/>
			</defs>
			<clipPath id="SVGID_6_">
				<use xlink:href="#SVGID_5_"  overflow="visible"/>
			</clipPath>
			
				<circle opacity="0.05" clip-path="url(#SVGID_6_)" fill="#FFFFFF" enable-background="new    " cx="121.446" cy="104.446" r="65.658"/>
		</g>
	</g>
	
		<linearGradient id="SVGID_7_" gradientUnits="userSpaceOnUse" x1="211.804" y1="-43.143" x2="355.432" y2="-43.143" gradientTransform="matrix(1 0 0 -1 -40 510)">
		<stop  offset="0" style="stop-color:#745DDD"/>
		<stop  offset="1" style="stop-color:#5D00FF"/>
	</linearGradient>
	<circle fill="url(#SVGID_7_)" cx="243.618" cy="553.143" r="71.814"/>
	
		<linearGradient id="SVGID_8_" gradientUnits="userSpaceOnUse" x1="291.718" y1="3.714" x2="364.51" y2="3.714" gradientTransform="matrix(1 0 0 -1 -40 510)">
		<stop  offset="0" style="stop-color:#745DDD"/>
		<stop  offset="1" style="stop-color:#4527AF"/>
	</linearGradient>
	<circle fill="url(#SVGID_8_)" cx="288.114" cy="506.286" r="36.396"/>
	
		<linearGradient id="SVGID_9_" gradientUnits="userSpaceOnUse" x1="291.719" y1="-2.9505" x2="352.595" y2="-2.9505" gradientTransform="matrix(1 0 0 -1 -40 510)">
		<stop  offset="0" style="stop-color:#745DDD"/>
		<stop  offset="1" style="stop-color:#5D00FF"/>
	</linearGradient>
	<path fill="url(#SVGID_9_)" d="M259.965,483.22c-5.151,6.279-8.246,14.31-8.246,23.065c0,20.101,16.295,36.396,36.396,36.396
		c9.44,0,18.013-3.624,24.48-9.519C305.425,508.373,285.27,489.114,259.965,483.22z"/>
	<g>
		<path fill="#725EF2" d="M191.541,427.2c-3.956,3.252-6.596,8.079-6.877,13.597c-0.531,10.404,7.473,19.268,17.877,19.799
			c5.872,0.299,11.252-2.122,14.922-6.157C204.521,450.72,194.597,440.219,191.541,427.2z"/>
		<path fill="#725EF2" d="M204.462,422.919c-4.886-0.249-9.418,1.4-12.922,4.281c3.056,13.02,12.98,23.52,25.922,27.238
			c2.832-3.114,4.646-7.189,4.877-11.72C222.87,432.314,214.866,423.45,204.462,422.919z"/>
		
			<linearGradient id="SVGID_10_" gradientUnits="userSpaceOnUse" x1="231.54" y1="71.3338" x2="262.364" y2="71.3338" gradientTransform="matrix(1 0 0 -1 -40 510)">
			<stop  offset="0" style="stop-color:#745DDD"/>
			<stop  offset="1" style="stop-color:#845DDD"/>
		</linearGradient>
		<path fill="url(#SVGID_10_)" d="M204.462,422.919c-4.886-0.249-9.418,1.4-12.922,4.281c3.056,13.02,12.98,23.52,25.922,27.238
			c2.832-3.114,4.646-7.189,4.877-11.72C222.87,432.314,214.866,423.45,204.462,422.919z"/>
	</g>
	<g>
		
			<linearGradient id="SVGID_11_" gradientUnits="userSpaceOnUse" x1="299.192" y1="102.4144" x2="314.9501" y2="102.4144" gradientTransform="matrix(1 0 0 -1 -40 510)">
			<stop  offset="0" style="stop-color:#745DDD"/>
			<stop  offset="0.8572" style="stop-color:#5D00FF"/>
		</linearGradient>
		<path fill="url(#SVGID_11_)" d="M259.192,408.774c0.863,2.053,2.545,3.754,4.809,4.558c4.269,1.516,8.958-0.715,10.474-4.984
			c0.856-2.409,0.517-4.952-0.708-6.984C270.608,406.293,264.998,409.121,259.192,408.774z"/>
		<path fill="#725EF2" d="M259.017,402.857c-0.712,2.005-0.589,4.099,0.175,5.917c5.805,0.347,11.416-2.481,14.576-7.41
			c-0.945-1.568-2.417-2.831-4.276-3.491C265.223,396.357,260.533,398.588,259.017,402.857z"/>
		
			<linearGradient id="SVGID_12_" gradientUnits="userSpaceOnUse" x1="298.5454" y1="106.8998" x2="313.768" y2="106.8998" gradientTransform="matrix(1 0 0 -1 -40 510)">
			<stop  offset="0" style="stop-color:#745DDD"/>
			<stop  offset="0.1762" style="stop-color:#7357DF"/>
			<stop  offset="0.4135" style="stop-color:#6E46E5"/>
			<stop  offset="0.6854" style="stop-color:#672AF0"/>
			<stop  offset="0.9813" style="stop-color:#5E03FE"/>
			<stop  offset="1" style="stop-color:#5D00FF"/>
		</linearGradient>
		<path fill="url(#SVGID_12_)" d="M259.017,402.857c-0.712,2.005-0.589,4.099,0.175,5.917c5.805,0.347,11.416-2.481,14.576-7.41
			c-0.945-1.568-2.417-2.831-4.276-3.491C265.223,396.357,260.533,398.588,259.017,402.857z"/>
	</g>
	<g>
		
			<linearGradient id="SVGID_13_" gradientUnits="userSpaceOnUse" x1="147.184" y1="120.1341" x2="161.7037" y2="120.1341" gradientTransform="matrix(1 0 0 -1 -40 510)">
			<stop  offset="0" style="stop-color:#745DDD"/>
			<stop  offset="0.6396" style="stop-color:#5D00FF"/>
		</linearGradient>
		<path fill="url(#SVGID_13_)" d="M107.184,394.025c1.419,1.717,3.521,2.859,5.921,2.975c4.525,0.219,8.37-3.272,8.589-7.797
			c0.123-2.554-0.936-4.891-2.695-6.481C117.397,388.353,112.842,392.681,107.184,394.025z"/>
		<path fill="#725EF2" d="M105.307,388.411c-0.103,2.125,0.62,4.094,1.877,5.614c5.658-1.344,10.213-5.672,11.814-11.304
			c-1.357-1.228-3.131-2.012-5.102-2.107C109.371,380.395,105.526,383.886,105.307,388.411z"/>
		
			<linearGradient id="SVGID_14_" gradientUnits="userSpaceOnUse" x1="145.2973" y1="122.6853" x2="158.998" y2="122.6853" gradientTransform="matrix(1 0 0 -1 -40 510)">
			<stop  offset="0" style="stop-color:#745DDD"/>
			<stop  offset="1" style="stop-color:#5D00FF"/>
		</linearGradient>
		<path fill="url(#SVGID_14_)" d="M105.307,388.411c-0.103,2.125,0.62,4.094,1.877,5.614c5.658-1.344,10.213-5.672,11.814-11.304
			c-1.357-1.228-3.131-2.012-5.102-2.107C109.371,380.395,105.526,383.886,105.307,388.411z"/>
	</g>
	<g>
		
			<linearGradient id="SVGID_15_" gradientUnits="userSpaceOnUse" x1="111.697" y1="244.5274" x2="147.8092" y2="244.5274" gradientTransform="matrix(1 0 0 -1 -40 510)">
			<stop  offset="0" style="stop-color:#745DDD"/>
			<stop  offset="0.6396" style="stop-color:#5D00FF"/>
		</linearGradient>
		<path fill="url(#SVGID_15_)" d="M71.697,275.819c3.529,4.27,8.757,7.11,14.726,7.399c11.254,0.544,20.819-8.139,21.362-19.394
			c0.307-6.352-2.328-12.164-6.703-16.121C97.099,261.711,85.77,272.475,71.697,275.819z"/>
		<path fill="#725EF2" d="M67.029,261.855c-0.255,5.285,1.542,10.183,4.667,13.964c14.073-3.344,25.402-14.108,29.386-28.116
			c-3.376-3.054-7.789-5.004-12.691-5.241C77.137,241.918,67.573,250.601,67.029,261.855z"/>
		
			<linearGradient id="SVGID_16_" gradientUnits="userSpaceOnUse" x1="107.0051" y1="250.8716" x2="141.082" y2="250.8716" gradientTransform="matrix(1 0 0 -1 -40 510)">
			<stop  offset="0" style="stop-color:#745DDD"/>
			<stop  offset="1" style="stop-color:#5D00FF"/>
		</linearGradient>
		<path fill="url(#SVGID_16_)" d="M67.029,261.855c-0.255,5.285,1.542,10.183,4.667,13.964
			c14.073-3.344,25.402-14.108,29.386-28.116c-3.376-3.054-7.789-5.004-12.691-5.241C77.137,241.918,67.573,250.601,67.029,261.855z
			"/>
	</g>
	<g>
		<circle fill="#AE84FD" cx="146.718" cy="149.941" r="3.466"/>
		<circle fill="#AE84FD" cx="191.541" cy="20.683" r="3.466"/>
		<circle fill="#AE84FD" cx="217.462" cy="146.475" r="4.056"/>
		<g>
			<circle fill="#AE84FD" cx="229.975" cy="395.49" r="10.241"/>
			<circle fill="#AE84FD" cx="78.972" cy="411.859" r="8.436"/>
			<circle fill="#AE84FD" cx="134.259" cy="522.696" r="12.459"/>
		</g>
		<circle fill="#AE84FD" cx="124.921" cy="197.494" r="5.923"/>
		<circle fill="#AE84FD" cx="167.768" cy="275.819" r="8.075"/>
		<ellipse fill="#AE84FD" cx="272.114" cy="298.495" rx="6.518" ry="6.68"/>
		<ellipse fill="#AE84FD" cx="227.535" cy="293.859" rx="3.174" ry="3.253"/>
		<ellipse fill="#AE84FD" cx="134.259" cy="419.641" rx="3.174" ry="3.253"/>
		<ellipse fill="#AE84FD" cx="257.554" cy="262.84" rx="3.174" ry="3.253"/>
		<circle fill="#AE84FD" cx="180.365" cy="179.96" r="7.38"/>
		<circle fill="#AE84FD" cx="217.462" cy="223.652" r="5.64"/>
		<circle fill="#AE84FD" cx="217.462" cy="53.315" r="5.64"/>
	</g>
	<g>
		<circle fill="#AE84FD" cx="154.046" cy="603.358" r="6.333"/>
		<circle fill="#AE84FD" cx="68.466" cy="468.772" r="4.889"/>
		<circle fill="#AE84FD" cx="91.516" cy="485.441" r="3.786"/>
		<circle fill="#AE84FD" cx="98.951" cy="573.813" r="6.333"/>
		<circle fill="#AE84FD" cx="133.836" cy="523.022" r="12.459"/>
		<circle fill="#AE84FD" cx="81.919" cy="642.341" r="22.023"/>
		<circle fill="#AE84FD" cx="138.497" cy="643.46" r="3.786"/>
		<g>
			<defs>
				<rect id="SVGID_2_" x="-7.423" y="46.981" width="374" height="667"/>
			</defs>
			<clipPath id="SVGID_17_">
				<use xlink:href="#SVGID_2_"  overflow="visible"/>
			</clipPath>
			
				<circle opacity="0.15" clip-path="url(#SVGID_17_)" fill="#FFFFFF" enable-background="new    " cx="28.563" cy="633.689" r="120.245"/>
		</g>
		<g>
			<defs>
				<rect id="SVGID_1_" x="-7.423" y="46.981" width="374" height="667"/>
			</defs>
			<clipPath id="SVGID_18_">
				<use xlink:href="#SVGID_1_"  overflow="visible"/>
			</clipPath>
			
				<circle opacity="0.09" clip-path="url(#SVGID_18_)" fill="#FFFFFF" enable-background="new    " cx="121.024" cy="707.504" r="65.658"/>
		</g>
	</g>
	<rect x="-7" y="-22.677" opacity="0.5" fill="#6F00FF" enable-background="new    " width="374" height="739.444"/>
</g>
</svg>
