<?xml version="1.0" encoding="utf-8"?>
<!-- Generator: Adobe Illustrator 17.0.0, SVG Export Plug-In . SVG Version: 6.00 Build 0)  -->
<!DOCTYPE svg PUBLIC "-//W3C//DTD SVG 1.1//EN" "http://www.w3.org/Graphics/SVG/1.1/DTD/svg11.dtd">
<svg version="1.1" xmlns="http://www.w3.org/2000/svg" xmlns:xlink="http://www.w3.org/1999/xlink" x="0px" y="0px" width="86.77px"
	 height="86.386px" viewBox="0 0 86.77 86.386" enable-background="new 0 0 86.77 86.386" xml:space="preserve">
<g id="Capa_3">
</g>
<g id="Capa_1">
</g>
<g id="Informacion">
	<g>
		<path fill="#FFFFFF" d="M76.296,18.258c-6.781-8.944-17.121-15.14-29.18-16.233C24.379-0.035,4.277,16.726,2.217,39.463
			C1.054,52.296,5.892,64.286,14.411,72.669C23.671,44.651,47.521,23.827,76.296,18.258z"/>
		<path fill="#3E00AF" d="M84.554,46.923c0.967-10.678-2.254-20.745-8.258-28.665c-28.775,5.569-52.625,26.393-61.885,54.412
			c6.575,6.47,15.341,10.794,25.244,11.692C62.392,86.421,82.494,69.659,84.554,46.923z"/>
		<path fill="none" stroke="#6F00FF" stroke-width="4" stroke-linecap="round" stroke-linejoin="round" stroke-miterlimit="10" d="
			M76.296,18.258c-28.775,5.569-52.625,26.393-61.885,54.412"/>
	</g>
</g>
</svg>
