<?xml version="1.0" encoding="utf-8"?>
<!-- Generator: Adobe Illustrator 17.0.0, SVG Export Plug-In . SVG Version: 6.00 Build 0)  -->
<!DOCTYPE svg PUBLIC "-//W3C//DTD SVG 1.1//EN" "http://www.w3.org/Graphics/SVG/1.1/DTD/svg11.dtd">
<svg version="1.1" id="Capa_1" xmlns="http://www.w3.org/2000/svg" xmlns:xlink="http://www.w3.org/1999/xlink" x="0px" y="0px"
	 width="231px" height="67.5px" viewBox="0 0 231 67.5" enable-background="new 0 0 231 67.5" xml:space="preserve">
<path fill="#FEFEFE" d="M3.634,47.818c-0.979,0-1.828-0.36-2.55-1.084C0.36,46.012,0,45.162,0,44.184V4.909
	c0-0.977,0.36-1.827,1.084-2.55c0.722-0.722,1.572-1.084,2.55-1.084h21.677c0.977,0,1.827,0.362,2.55,1.084
	c0.722,0.724,1.084,1.573,1.084,2.55c0,0.979-0.362,1.817-1.084,2.518c-0.724,0.701-1.573,1.052-2.55,1.052H9.5
	c-0.383,0-0.574,0.191-0.574,0.574v10.265c0,0.382,0.191,0.574,0.574,0.574h14.728c0.977,0,1.795,0.341,2.455,1.02
	c0.658,0.681,0.988,1.489,0.988,2.423c0,0.936-0.33,1.733-0.988,2.391c-0.66,0.66-1.478,0.988-2.455,0.988H9.5
	c-0.383,0-0.574,0.191-0.574,0.574V40.04c0,0.382,0.191,0.574,0.574,0.574h15.812c0.977,0,1.827,0.351,2.55,1.052
	c0.722,0.701,1.084,1.541,1.084,2.518c0,0.979-0.362,1.827-1.084,2.55c-0.724,0.724-1.573,1.084-2.55,1.084H3.634z"/>
<path fill="#FEFEFE" d="M46.161,48.455c-2.891,0-5.282-0.945-7.173-2.837c-1.892-1.892-2.837-4.347-2.837-7.364
	c0-3.698,1.414-6.567,4.24-8.607c2.826-2.04,7.15-3.06,12.975-3.06h2.614c0.383,0,0.574-0.191,0.574-0.574v-0.51
	c0-1.954-0.469-3.325-1.403-4.112c-0.936-0.786-2.593-1.18-4.973-1.18c-2.466,0-5.483,0.446-9.053,1.339
	c-0.765,0.214-1.466,0.075-2.104-0.414c-0.638-0.488-0.956-1.136-0.956-1.945c0-0.977,0.298-1.86,0.893-2.646
	c0.595-0.786,1.36-1.264,2.295-1.435c3.229-0.722,6.269-1.084,9.117-1.084c5.44,0,9.245,0.979,11.413,2.933
	c2.168,1.956,3.252,5.378,3.252,10.265v16.959c0,0.979-0.351,1.827-1.052,2.55c-0.701,0.724-1.541,1.084-2.518,1.084h-0.701
	c-1.02,0-1.892-0.351-2.614-1.052c-0.724-0.701-1.106-1.562-1.148-2.582v-0.893c0-0.042-0.022-0.064-0.064-0.064
	c-0.086,0-0.127,0.022-0.127,0.064C54.216,46.734,50.667,48.455,46.161,48.455z M53.365,31.878c-6.079,0-9.117,1.871-9.117,5.611
	c0,1.361,0.394,2.466,1.18,3.315c0.786,0.851,1.795,1.275,3.028,1.275c2.423,0,4.377-0.754,5.866-2.263
	c1.487-1.508,2.231-3.58,2.231-6.216v-1.148c0-0.383-0.191-0.574-0.574-0.574H53.365z"/>
<path fill="#FEFEFE" d="M84.284,34.429c-4.463-0.977-7.64-2.316-9.532-4.017c-1.892-1.699-2.837-3.91-2.837-6.631
	c0-3.06,1.136-5.451,3.411-7.173c2.273-1.721,5.643-2.582,10.106-2.582c2.805,0,5.588,0.255,8.352,0.765
	c0.934,0.17,1.69,0.628,2.263,1.371c0.574,0.744,0.861,1.605,0.861,2.582c0,0.808-0.319,1.457-0.956,1.945
	c-0.638,0.489-1.361,0.628-2.168,0.414c-2.381-0.596-4.889-0.893-7.523-0.893c-3.825,0-5.738,1.063-5.738,3.188
	c0,1.02,0.36,1.87,1.084,2.55c0.722,0.681,1.954,1.211,3.698,1.594c4.887,0.979,8.234,2.295,10.042,3.953
	c1.806,1.658,2.71,4.081,2.71,7.268c0,3.06-1.148,5.442-3.443,7.141c-2.295,1.701-5.633,2.55-10.01,2.55
	c-2.848,0-5.76-0.341-8.735-1.02c-0.936-0.212-1.701-0.711-2.295-1.498c-0.596-0.786-0.893-1.69-0.893-2.71
	c0-0.806,0.328-1.423,0.988-1.849c0.66-0.424,1.371-0.531,2.136-0.319c2.762,0.765,5.376,1.148,7.842,1.148
	c3.867,0,5.802-1.148,5.802-3.443c0-1.105-0.373-1.976-1.116-2.614C87.588,35.513,86.238,34.939,84.284,34.429z"/>
<path fill="#FEFEFE" d="M113.487,47.307l-10.584-29.265c-0.255-0.85-0.15-1.626,0.319-2.327c0.467-0.701,1.147-1.052,2.04-1.052
	h1.913c1.061,0,2.04,0.33,2.932,0.988c0.893,0.66,1.467,1.498,1.722,2.518l5.929,20.849c0,0.043,0.021,0.064,0.064,0.064
	c0.041,0,0.064-0.021,0.064-0.064l6.822-20.912c0.339-1.02,0.956-1.849,1.849-2.487c0.892-0.637,1.869-0.956,2.933-0.956h1.53
	c0.892,0,1.582,0.362,2.072,1.084c0.488,0.724,0.562,1.489,0.223,2.295l-15.557,40.422c-0.382,1.02-1.02,1.838-1.912,2.455
	c-0.893,0.615-1.892,0.924-2.997,0.924h-1.53c-0.851,0-1.521-0.351-2.009-1.052c-0.489-0.701-0.564-1.457-0.223-2.263l4.4-10.201
	c0.084-0.171,0.127-0.34,0.127-0.51C113.614,47.646,113.571,47.477,113.487,47.307z"/>
<path fill="#FEFEFE" d="M143.579,47.817c-0.979,0-1.817-0.36-2.519-1.084c-0.701-0.722-1.052-1.572-1.052-2.55V5.227
	c0-1.02,0.34-1.933,1.02-2.742c0.679-0.807,1.531-1.253,2.551-1.339c3.612-0.34,7.097-0.51,10.456-0.51
	c6.376,0,11.157,1.266,14.345,3.794c3.188,2.53,4.782,6.196,4.782,10.998c0,5.312-1.541,9.331-4.622,12.05
	c-3.083,2.721-7.642,4.08-13.676,4.08c-1.403,0-3.252-0.085-5.547-0.255c-0.341,0-0.51,0.17-0.51,0.51v12.369
	c0,0.979-0.362,1.827-1.084,2.55c-0.724,0.724-1.573,1.084-2.55,1.084H143.579z M148.807,8.543v15.366
	c0,0.298,0.169,0.489,0.51,0.574c1.614,0.214,3.188,0.319,4.718,0.319c3.443,0,6.066-0.754,7.874-2.263
	c1.806-1.508,2.71-3.666,2.71-6.471c0-5.652-3.529-8.48-10.584-8.48c-1.53,0-3.104,0.107-4.718,0.319
	C148.976,7.991,148.807,8.203,148.807,8.543z"/>
<path fill="#FEFEFE" d="M184.956,7.651c-0.978,0-1.828-0.36-2.55-1.084c-0.724-0.722-1.084-1.572-1.084-2.55V3.634
	c0-0.977,0.36-1.827,1.084-2.55C183.128,0.362,183.978,0,184.956,0h1.658c0.977,0,1.827,0.362,2.55,1.084
	c0.722,0.724,1.084,1.573,1.084,2.55v0.383c0,0.979-0.362,1.828-1.084,2.55c-0.723,0.724-1.573,1.084-2.55,1.084H184.956z
	 M184.956,47.818c-0.978,0-1.828-0.36-2.55-1.084c-0.724-0.722-1.084-1.572-1.084-2.55V18.298c0-0.977,0.36-1.827,1.084-2.55
	c0.722-0.722,1.572-1.084,2.55-1.084h1.658c0.977,0,1.827,0.362,2.55,1.084c0.722,0.724,1.084,1.573,1.084,2.55v25.885
	c0,0.979-0.362,1.827-1.084,2.55c-0.723,0.724-1.573,1.084-2.55,1.084H184.956z"/>
<path fill="#FEFEFE" d="M205.233,47.818c-0.978,0-1.828-0.36-2.55-1.084c-0.724-0.722-1.084-1.572-1.084-2.55V3.634
	c0-0.977,0.36-1.827,1.084-2.55C203.405,0.362,204.255,0,205.233,0h1.658c0.977,0,1.827,0.362,2.55,1.084
	c0.722,0.724,1.084,1.573,1.084,2.55v40.55c0,0.979-0.362,1.827-1.084,2.55c-0.723,0.724-1.573,1.084-2.55,1.084H205.233z"/>
<path fill="#FEFEFE" d="M225.508,47.818c-0.978,0-1.828-0.36-2.55-1.084c-0.724-0.722-1.084-1.572-1.084-2.55V3.634
	c0-0.977,0.36-1.827,1.084-2.55C223.68,0.362,224.53,0,225.508,0h1.658c0.977,0,1.827,0.362,2.55,1.084
	c0.722,0.724,1.084,1.573,1.084,2.55v40.55c0,0.979-0.362,1.827-1.084,2.55c-0.723,0.724-1.573,1.084-2.55,1.084H225.508z"/>
</svg>
