<svg width="31" height="62" viewBox="0 0 31 62" fill="none" xmlns="http://www.w3.org/2000/svg">
<path d="M30.4869 47.3021C30.3011 47.0779 30.0728 46.8925 29.8153 46.7567C29.5577 46.6208 29.2759 46.5371 28.9859 46.5104C28.6959 46.4836 28.4036 46.5144 28.1255 46.6008C27.8474 46.6873 27.5892 46.8278 27.3655 47.0142L17.7132 55.053V2.21452C17.7132 1.62719 17.48 1.06392 17.0648 0.648618C16.6497 0.233315 16.0866 0 15.4994 0C14.9123 0 14.3492 0.233315 13.934 0.648618C13.5189 1.06392 13.2856 1.62719 13.2856 2.21452V55.053L3.63341 47.0142C3.40956 46.8281 3.15125 46.6879 2.87323 46.6017C2.59521 46.5154 2.30293 46.4848 2.01307 46.5115C1.72322 46.5382 1.44147 46.6218 1.1839 46.7575C0.926336 46.8931 0.698004 47.0782 0.511942 47.3021C0.32588 47.5261 0.185732 47.7845 0.0994994 48.0626C0.0132665 48.3407 -0.0173627 48.633 0.00936152 48.923C0.0360858 49.2129 0.11964 49.4948 0.255253 49.7524C0.390866 50.0101 0.575882 50.2385 0.799738 50.4246L14.0826 61.4972L14.4147 61.6965L14.7025 61.8515C15.2153 62.0495 15.7835 62.0495 16.2964 61.8515L16.5842 61.6965L16.9163 61.4972L30.1991 50.4246C30.4233 50.2387 30.6086 50.0104 30.7444 49.7527C30.8802 49.4951 30.9639 49.2131 30.9907 48.9231C31.0174 48.633 30.9867 48.3406 30.9002 48.0624C30.8138 47.7843 30.6733 47.5259 30.4869 47.3021Z" fill="#6F00FF"/>
</svg>
