<svg width="132" height="34" viewBox="0 0 132 34" fill="none" xmlns="http://www.w3.org/2000/svg">
<rect width="132" height="34" rx="17" fill="#6F00FF"/>
<path d="M38.3193 18.7V20H32.8993V13H38.1893V14.3H34.5093V15.82H37.7593V17.08H34.5093V18.7H38.3193ZM46.3883 14.54C47.0617 14.54 47.595 14.74 47.9883 15.14C48.3883 15.5333 48.5883 16.1267 48.5883 16.92V20H47.0283V17.16C47.0283 16.7333 46.9383 16.4167 46.7583 16.21C46.585 15.9967 46.335 15.89 46.0083 15.89C45.6417 15.89 45.3517 16.01 45.1383 16.25C44.925 16.4833 44.8183 16.8333 44.8183 17.3V20H43.2583V17.16C43.2583 16.3133 42.9183 15.89 42.2383 15.89C41.8783 15.89 41.5917 16.01 41.3783 16.25C41.165 16.4833 41.0583 16.8333 41.0583 17.3V20H39.4983V14.62H40.9883V15.24C41.1883 15.0133 41.4317 14.84 41.7183 14.72C42.0117 14.6 42.3317 14.54 42.6783 14.54C43.0583 14.54 43.4017 14.6167 43.7083 14.77C44.015 14.9167 44.2617 15.1333 44.4483 15.42C44.6683 15.14 44.945 14.9233 45.2783 14.77C45.6183 14.6167 45.9883 14.54 46.3883 14.54ZM53.1666 14.54C53.6666 14.54 54.1199 14.6567 54.5266 14.89C54.9399 15.1167 55.2633 15.44 55.4966 15.86C55.7299 16.2733 55.8466 16.7567 55.8466 17.31C55.8466 17.8633 55.7299 18.35 55.4966 18.77C55.2633 19.1833 54.9399 19.5067 54.5266 19.74C54.1199 19.9667 53.6666 20.08 53.1666 20.08C52.4799 20.08 51.9399 19.8633 51.5466 19.43V21.94H49.9866V14.62H51.4766V15.24C51.8633 14.7733 52.4266 14.54 53.1666 14.54ZM52.8966 18.8C53.2966 18.8 53.6233 18.6667 53.8766 18.4C54.1366 18.1267 54.2666 17.7633 54.2666 17.31C54.2666 16.8567 54.1366 16.4967 53.8766 16.23C53.6233 15.9567 53.2966 15.82 52.8966 15.82C52.4966 15.82 52.1666 15.9567 51.9066 16.23C51.6533 16.4967 51.5266 16.8567 51.5266 17.31C51.5266 17.7633 51.6533 18.1267 51.9066 18.4C52.1666 18.6667 52.4966 18.8 52.8966 18.8ZM62.1609 17.33C62.1609 17.35 62.1509 17.49 62.1309 17.75H58.0609C58.1342 18.0833 58.3076 18.3467 58.5809 18.54C58.8542 18.7333 59.1942 18.83 59.6009 18.83C59.8809 18.83 60.1276 18.79 60.3409 18.71C60.5609 18.6233 60.7642 18.49 60.9509 18.31L61.7809 19.21C61.2742 19.79 60.5342 20.08 59.5609 20.08C58.9542 20.08 58.4176 19.9633 57.9509 19.73C57.4842 19.49 57.1242 19.16 56.8709 18.74C56.6176 18.32 56.4909 17.8433 56.4909 17.31C56.4909 16.7833 56.6142 16.31 56.8609 15.89C57.1142 15.4633 57.4576 15.1333 57.8909 14.9C58.3309 14.66 58.8209 14.54 59.3609 14.54C59.8876 14.54 60.3642 14.6533 60.7909 14.88C61.2176 15.1067 61.5509 15.4333 61.7909 15.86C62.0376 16.28 62.1609 16.77 62.1609 17.33ZM59.3709 15.72C59.0176 15.72 58.7209 15.82 58.4809 16.02C58.2409 16.22 58.0942 16.4933 58.0409 16.84H60.6909C60.6376 16.5 60.4909 16.23 60.2509 16.03C60.0109 15.8233 59.7176 15.72 59.3709 15.72ZM65.7995 20.08C65.2262 20.08 64.7095 19.9633 64.2495 19.73C63.7962 19.49 63.4395 19.16 63.1795 18.74C62.9262 18.32 62.7995 17.8433 62.7995 17.31C62.7995 16.7767 62.9262 16.3 63.1795 15.88C63.4395 15.46 63.7962 15.1333 64.2495 14.9C64.7095 14.66 65.2262 14.54 65.7995 14.54C66.3662 14.54 66.8595 14.66 67.2795 14.9C67.7062 15.1333 68.0162 15.47 68.2095 15.91L66.9995 16.56C66.7195 16.0667 66.3162 15.82 65.7895 15.82C65.3828 15.82 65.0462 15.9533 64.7795 16.22C64.5128 16.4867 64.3795 16.85 64.3795 17.31C64.3795 17.77 64.5128 18.1333 64.7795 18.4C65.0462 18.6667 65.3828 18.8 65.7895 18.8C66.3228 18.8 66.7262 18.5533 66.9995 18.06L68.2095 18.72C68.0162 19.1467 67.7062 19.48 67.2795 19.72C66.8595 19.96 66.3662 20.08 65.7995 20.08ZM74.3093 17.33C74.3093 17.35 74.2993 17.49 74.2793 17.75H70.2093C70.2827 18.0833 70.456 18.3467 70.7293 18.54C71.0027 18.7333 71.3427 18.83 71.7493 18.83C72.0293 18.83 72.276 18.79 72.4893 18.71C72.7093 18.6233 72.9127 18.49 73.0993 18.31L73.9293 19.21C73.4227 19.79 72.6827 20.08 71.7093 20.08C71.1027 20.08 70.566 19.9633 70.0993 19.73C69.6327 19.49 69.2727 19.16 69.0193 18.74C68.766 18.32 68.6393 17.8433 68.6393 17.31C68.6393 16.7833 68.7627 16.31 69.0093 15.89C69.2627 15.4633 69.606 15.1333 70.0393 14.9C70.4793 14.66 70.9693 14.54 71.5093 14.54C72.036 14.54 72.5127 14.6533 72.9393 14.88C73.366 15.1067 73.6993 15.4333 73.9393 15.86C74.186 16.28 74.3093 16.77 74.3093 17.33ZM71.5193 15.72C71.166 15.72 70.8693 15.82 70.6293 16.02C70.3893 16.22 70.2427 16.4933 70.1893 16.84H72.8393C72.786 16.5 72.6393 16.23 72.3993 16.03C72.1593 15.8233 71.866 15.72 71.5193 15.72ZM82.2379 14.54C82.9113 14.54 83.4446 14.74 83.8379 15.14C84.2379 15.5333 84.4379 16.1267 84.4379 16.92V20H82.8779V17.16C82.8779 16.7333 82.7879 16.4167 82.6079 16.21C82.4346 15.9967 82.1846 15.89 81.8579 15.89C81.4913 15.89 81.2013 16.01 80.9879 16.25C80.7746 16.4833 80.6679 16.8333 80.6679 17.3V20H79.1079V17.16C79.1079 16.3133 78.7679 15.89 78.0879 15.89C77.7279 15.89 77.4413 16.01 77.2279 16.25C77.0146 16.4833 76.9079 16.8333 76.9079 17.3V20H75.3479V14.62H76.8379V15.24C77.0379 15.0133 77.2813 14.84 77.5679 14.72C77.8613 14.6 78.1813 14.54 78.5279 14.54C78.9079 14.54 79.2513 14.6167 79.5579 14.77C79.8646 14.9167 80.1113 15.1333 80.2979 15.42C80.5179 15.14 80.7946 14.9233 81.1279 14.77C81.4679 14.6167 81.8379 14.54 82.2379 14.54ZM88.4548 20.08C87.8881 20.08 87.3781 19.9633 86.9248 19.73C86.4781 19.49 86.1281 19.16 85.8748 18.74C85.6215 18.32 85.4948 17.8433 85.4948 17.31C85.4948 16.7767 85.6215 16.3 85.8748 15.88C86.1281 15.46 86.4781 15.1333 86.9248 14.9C87.3781 14.66 87.8881 14.54 88.4548 14.54C89.0215 14.54 89.5281 14.66 89.9748 14.9C90.4215 15.1333 90.7715 15.46 91.0248 15.88C91.2781 16.3 91.4048 16.7767 91.4048 17.31C91.4048 17.8433 91.2781 18.32 91.0248 18.74C90.7715 19.16 90.4215 19.49 89.9748 19.73C89.5281 19.9633 89.0215 20.08 88.4548 20.08ZM88.4548 18.8C88.8548 18.8 89.1815 18.6667 89.4348 18.4C89.6948 18.1267 89.8248 17.7633 89.8248 17.31C89.8248 16.8567 89.6948 16.4967 89.4348 16.23C89.1815 15.9567 88.8548 15.82 88.4548 15.82C88.0548 15.82 87.7248 15.9567 87.4648 16.23C87.2048 16.4967 87.0748 16.8567 87.0748 17.31C87.0748 17.7633 87.2048 18.1267 87.4648 18.4C87.7248 18.6667 88.0548 18.8 88.4548 18.8ZM94.2575 20.08C93.8109 20.08 93.3742 20.0267 92.9475 19.92C92.5209 19.8067 92.1809 19.6667 91.9275 19.5L92.4475 18.38C92.6875 18.5333 92.9775 18.66 93.3175 18.76C93.6575 18.8533 93.9909 18.9 94.3175 18.9C94.9775 18.9 95.3075 18.7367 95.3075 18.41C95.3075 18.2567 95.2175 18.1467 95.0375 18.08C94.8575 18.0133 94.5809 17.9567 94.2075 17.91C93.7675 17.8433 93.4042 17.7667 93.1175 17.68C92.8309 17.5933 92.5809 17.44 92.3675 17.22C92.1609 17 92.0575 16.6867 92.0575 16.28C92.0575 15.94 92.1542 15.64 92.3475 15.38C92.5475 15.1133 92.8342 14.9067 93.2075 14.76C93.5875 14.6133 94.0342 14.54 94.5475 14.54C94.9275 14.54 95.3042 14.5833 95.6775 14.67C96.0575 14.75 96.3709 14.8633 96.6175 15.01L96.0975 16.12C95.6242 15.8533 95.1075 15.72 94.5475 15.72C94.2142 15.72 93.9642 15.7667 93.7975 15.86C93.6309 15.9533 93.5475 16.0733 93.5475 16.22C93.5475 16.3867 93.6375 16.5033 93.8175 16.57C93.9975 16.6367 94.2842 16.7 94.6775 16.76C95.1175 16.8333 95.4775 16.9133 95.7575 17C96.0375 17.08 96.2809 17.23 96.4875 17.45C96.6942 17.67 96.7975 17.9767 96.7975 18.37C96.7975 18.7033 96.6975 19 96.4975 19.26C96.2975 19.52 96.0042 19.7233 95.6175 19.87C95.2375 20.01 94.7842 20.08 94.2575 20.08ZM97.56 13H99.42L99.11 17.57H97.87L97.56 13ZM98.49 20.08C98.2167 20.08 97.9867 19.9933 97.8 19.82C97.62 19.64 97.53 19.4233 97.53 19.17C97.53 18.9167 97.62 18.7067 97.8 18.54C97.98 18.3667 98.21 18.28 98.49 18.28C98.77 18.28 99 18.3667 99.18 18.54C99.36 18.7067 99.45 18.9167 99.45 19.17C99.45 19.4233 99.3567 19.64 99.17 19.82C98.99 19.9933 98.7634 20.08 98.49 20.08Z" fill="white"/>
</svg>
