<svg width="68" height="34" viewBox="0 0 68 34" fill="none" xmlns="http://www.w3.org/2000/svg">
<rect width="68" height="34" rx="17" fill="#BD8AFF" fill-opacity="0.5"/>
<path d="M21.4229 20.12C20.6962 20.12 20.0396 19.9633 19.4529 19.65C18.8729 19.3367 18.4162 18.9067 18.0829 18.36C17.7562 17.8067 17.5929 17.1867 17.5929 16.5C17.5929 15.8133 17.7562 15.1967 18.0829 14.65C18.4162 14.0967 18.8729 13.6633 19.4529 13.35C20.0396 13.0367 20.6962 12.88 21.4229 12.88C22.1496 12.88 22.8029 13.0367 23.3829 13.35C23.9629 13.6633 24.4196 14.0967 24.7529 14.65C25.0862 15.1967 25.2529 15.8133 25.2529 16.5C25.2529 17.1867 25.0862 17.8067 24.7529 18.36C24.4196 18.9067 23.9629 19.3367 23.3829 19.65C22.8029 19.9633 22.1496 20.12 21.4229 20.12ZM21.4229 18.74C21.8362 18.74 22.2096 18.6467 22.5429 18.46C22.8762 18.2667 23.1362 18 23.3229 17.66C23.5162 17.32 23.6129 16.9333 23.6129 16.5C23.6129 16.0667 23.5162 15.68 23.3229 15.34C23.1362 15 22.8762 14.7367 22.5429 14.55C22.2096 14.3567 21.8362 14.26 21.4229 14.26C21.0096 14.26 20.6362 14.3567 20.3029 14.55C19.9696 14.7367 19.7062 15 19.5129 15.34C19.3262 15.68 19.2329 16.0667 19.2329 16.5C19.2329 16.9333 19.3262 17.32 19.5129 17.66C19.7062 18 19.9696 18.2667 20.3029 18.46C20.6362 18.6467 21.0096 18.74 21.4229 18.74ZM33.2504 14.54C33.9237 14.54 34.4571 14.74 34.8504 15.14C35.2504 15.5333 35.4504 16.1267 35.4504 16.92V20H33.8904V17.16C33.8904 16.7333 33.8004 16.4167 33.6204 16.21C33.4471 15.9967 33.1971 15.89 32.8704 15.89C32.5037 15.89 32.2137 16.01 32.0004 16.25C31.7871 16.4833 31.6804 16.8333 31.6804 17.3V20H30.1204V17.16C30.1204 16.3133 29.7804 15.89 29.1004 15.89C28.7404 15.89 28.4537 16.01 28.2404 16.25C28.0271 16.4833 27.9204 16.8333 27.9204 17.3V20H26.3604V14.62H27.8504V15.24C28.0504 15.0133 28.2937 14.84 28.5804 14.72C28.8737 14.6 29.1937 14.54 29.5404 14.54C29.9204 14.54 30.2637 14.6167 30.5704 14.77C30.8771 14.9167 31.1237 15.1333 31.3104 15.42C31.5304 15.14 31.8071 14.9233 32.1404 14.77C32.4804 14.6167 32.8504 14.54 33.2504 14.54ZM36.8487 14.62H38.4087V20H36.8487V14.62ZM37.6287 13.87C37.342 13.87 37.1087 13.7867 36.9287 13.62C36.7487 13.4533 36.6587 13.2467 36.6587 13C36.6587 12.7533 36.7487 12.5467 36.9287 12.38C37.1087 12.2133 37.342 12.13 37.6287 12.13C37.9154 12.13 38.1487 12.21 38.3287 12.37C38.5087 12.53 38.5987 12.73 38.5987 12.97C38.5987 13.23 38.5087 13.4467 38.3287 13.62C38.1487 13.7867 37.9154 13.87 37.6287 13.87ZM43.3265 19.74C43.1732 19.8533 42.9832 19.94 42.7565 20C42.5365 20.0533 42.3032 20.08 42.0565 20.08C41.4165 20.08 40.9198 19.9167 40.5665 19.59C40.2198 19.2633 40.0465 18.7833 40.0465 18.15V15.94H39.2165V14.74H40.0465V13.43H41.6065V14.74H42.9465V15.94H41.6065V18.13C41.6065 18.3567 41.6632 18.5333 41.7765 18.66C41.8965 18.78 42.0632 18.84 42.2765 18.84C42.5232 18.84 42.7332 18.7733 42.9065 18.64L43.3265 19.74ZM44.2022 14.62H45.7622V20H44.2022V14.62ZM44.9822 13.87C44.6955 13.87 44.4622 13.7867 44.2822 13.62C44.1022 13.4533 44.0122 13.2467 44.0122 13C44.0122 12.7533 44.1022 12.5467 44.2822 12.38C44.4622 12.2133 44.6955 12.13 44.9822 12.13C45.2689 12.13 45.5022 12.21 45.6822 12.37C45.8622 12.53 45.9522 12.73 45.9522 12.97C45.9522 13.23 45.8622 13.4467 45.6822 13.62C45.5022 13.7867 45.2689 13.87 44.9822 13.87ZM48.7 15.33C48.8867 15.07 49.1367 14.8733 49.45 14.74C49.77 14.6067 50.1367 14.54 50.55 14.54V15.98C50.3767 15.9667 50.26 15.96 50.2 15.96C49.7533 15.96 49.4033 16.0867 49.15 16.34C48.8967 16.5867 48.77 16.96 48.77 17.46V20H47.21V14.62H48.7V15.33Z" fill="white"/>
</svg>
