<svg width="223" height="263" viewBox="0 0 223 263" fill="none" xmlns="http://www.w3.org/2000/svg">
<path d="M135.26 65.9103C131.114 64.0209 129.286 59.1331 131.178 54.9932L137.565 41.0186C139.457 36.8788 144.352 35.0541 148.498 36.9435C152.644 38.833 154.471 43.7208 152.579 47.8606L146.192 61.8352C144.3 65.9751 139.405 67.7993 135.26 65.9103Z" fill="#6C63FF"/>
<path d="M134.372 48.0059L131.178 54.9934C129.286 59.1333 131.114 64.0211 135.26 65.9105C139.405 67.8 144.3 65.9752 146.192 61.8354L149.386 54.8479L134.372 48.0059Z" fill="#6F00FF"/>
<path d="M139.008 46.3657L140.696 42.6719" stroke="white" stroke-width="1.515" stroke-miterlimit="10" stroke-linecap="round" stroke-linejoin="round"/>
<path d="M141.442 41.5988C141.757 41.5988 142.012 41.3437 142.012 41.029C142.012 40.7143 141.757 40.4592 141.442 40.4592C141.127 40.4592 140.871 40.7143 140.871 41.029C140.871 41.3437 141.127 41.5988 141.442 41.5988Z" fill="white"/>
<path d="M153.114 209.227C153.114 215.788 106.404 228.82 72.6657 228.82C38.9275 228.82 22.1162 219.085 22.1162 212.523C22.1162 205.962 58.2861 197.346 92.0243 197.346C125.763 197.346 153.114 202.665 153.114 209.227Z" fill="#E5E3FF"/>
<path d="M222.468 0H175.697V31.7398H222.468V0Z" fill="#F1F1F1"/>
<path d="M222.241 51.0378H175.471V82.7777H222.241V51.0378Z" fill="#F1F1F1"/>
<path d="M222.015 102.927H175.245V134.666H222.015V102.927Z" fill="#F1F1F1"/>
<path d="M201.461 124.943C204.721 124.943 207.364 122.304 207.364 119.048C207.364 115.792 204.721 113.153 201.461 113.153C198.201 113.153 195.558 115.792 195.558 119.048C195.558 122.304 198.201 124.943 201.461 124.943Z" fill="#6C63FF"/>
<path d="M200.779 73.054C204.039 73.054 206.682 70.4148 206.682 67.1593C206.682 63.9038 204.039 61.2646 200.779 61.2646C197.519 61.2646 194.876 63.9038 194.876 67.1593C194.876 70.4148 197.519 73.054 200.779 73.054Z" fill="#3F3D56"/>
<path d="M88.9924 120.109C88.8543 120.109 88.7156 120.103 88.5765 120.091C85.8733 119.865 83.8647 117.495 84.0904 114.795C84.1061 114.61 84.1321 114.426 84.168 114.244C84.2002 114.087 84.2404 113.931 84.2887 113.778L68.1069 94.6666C67.0243 93.3777 66.9165 91.5327 67.8415 90.127L67.8708 90.0911L82.4367 75.7495C84.0952 74.1218 86.761 74.1449 88.391 75.8014C90.0173 77.4537 89.9984 80.1081 88.3489 81.7372C88.3305 81.7552 88.312 81.7731 88.2936 81.7906L77.7439 91.8053L89.2929 110.315C89.5115 110.326 89.7291 110.353 89.9444 110.395C92.6046 110.925 94.3307 113.508 93.7998 116.164C93.3418 118.455 91.3308 120.105 88.9924 120.109Z" fill="#E7CFBB"/>
<path d="M111.009 207.698H116.482L119.085 186.619L111.008 186.619L111.009 207.698Z" fill="#FFB8B8"/>
<path d="M109.613 205.914L120.391 205.913H120.391C124.184 205.913 127.259 208.983 127.259 212.771V212.994L109.613 212.995L109.613 205.914Z" fill="#2F2E41"/>
<path d="M56.6128 200.142L61.3151 202.938L74.3522 186.157L67.4118 182.031L56.6128 200.142Z" fill="#FFB8B8"/>
<path d="M56.3275 197.896L65.5883 203.402H65.5887C68.8479 205.339 69.9168 209.549 67.9763 212.803L67.8623 212.995L52.7002 203.98L56.3275 197.896Z" fill="#2F2E41"/>
<path d="M117.773 200.253H111.644C110.617 200.254 109.754 199.48 109.647 198.459L103.469 140.468C103.43 140.101 103.1 139.835 102.732 139.874C102.496 139.899 102.29 140.047 102.192 140.263L91.047 164.908L71.3141 197.038C70.7861 197.889 69.7125 198.224 68.7926 197.825L60.9097 194.361C59.8938 193.915 59.433 192.731 59.8806 191.717C59.9142 191.641 59.952 191.567 59.9946 191.496L78.1343 161.167L83.6978 135.613C81.948 124.531 89.4491 108.055 89.5253 107.889L89.5627 107.809L110.225 99.7449L110.328 99.8715C118.477 126.573 123.442 155.309 119.776 198.416C119.682 199.451 118.815 200.247 117.773 200.253Z" fill="#2F2E41"/>
<path d="M95.4247 65.2L94.3062 72.0618" stroke="#E7CFBB" stroke-width="8.97" stroke-miterlimit="10" stroke-linecap="round"/>
<path d="M85.028 120.886C85.6658 117.855 88.4452 110.122 88.4452 110.122C88.3993 110.025 83.9932 100.534 80.4515 90.1922C79.0756 86.1487 79.4598 81.7145 81.5109 77.9677C83.5886 74.1817 87.161 71.439 91.3589 70.4061C98.8089 68.623 106.443 72.5564 109.305 79.6526C112.114 86.6675 113.816 103.183 112.974 109.072C112.974 109.072 104.037 114.883 98.2212 114.511C92.4051 114.138 84.3901 123.918 85.028 120.886Z" fill="#6C63FF"/>
<path d="M134.133 54.8067C134.199 54.9276 134.26 55.0524 134.316 55.1799C135.415 57.6567 134.294 60.5535 131.813 61.6501C131.644 61.7252 131.469 61.7909 131.292 61.8462C131.138 61.8934 130.982 61.9331 130.824 61.9643L121.788 85.3072C121.174 86.8739 119.604 87.8529 117.925 87.7164L117.88 87.7079L98.2921 81.8198C96.0653 81.1503 94.8039 78.8049 95.4744 76.5819C96.1448 74.3589 98.4936 73.0988 100.72 73.7683C100.744 73.7758 100.769 73.7834 100.793 73.791L114.652 78.2342L125.382 59.2395C125.287 59.0425 125.206 58.8388 125.14 58.6305C124.33 56.0451 125.773 53.2943 128.362 52.4863C130.594 51.789 133.008 52.7599 134.133 54.8067Z" fill="#E7CFBB"/>
<path d="M92.9515 66.2755C99.0068 66.2755 103.916 61.3738 103.916 55.3272C103.916 49.2806 99.0068 44.3789 92.9515 44.3789C86.8961 44.3789 81.9873 49.2806 81.9873 55.3272C81.9873 61.3738 86.8961 66.2755 92.9515 66.2755Z" fill="#E7CFBB"/>
<path d="M85.3385 66.8719C86.5138 67.2003 91.4745 68.8728 96.005 65.0254C97.0507 64.1376 96.7768 60.81 97.83 59.4152C98.5246 58.4953 95.4633 53.1988 98.5379 53.049C100.3 52.9635 100.617 52.4664 102.171 51.5446C103.573 50.7126 102.558 49.4043 101.759 48.4867C99.8343 46.2755 97.1525 44.7938 94.2567 44.3289C87.3835 43.2256 80.8585 47.8857 79.8105 54.758C78.2495 64.9971 85.3385 66.8719 85.3385 66.8719Z" fill="black"/>
<path d="M83.8338 50.8959C85.7446 50.8959 87.2936 49.3491 87.2936 47.4411C87.2936 45.5331 85.7446 43.9863 83.8338 43.9863C81.923 43.9863 80.374 45.5331 80.374 47.4411C80.374 49.3491 81.923 50.8959 83.8338 50.8959Z" fill="black"/>
<path d="M67.7743 62.4078C67.1468 62.9166 64.4124 59.8611 64.5903 54.0425C64.7077 50.2017 66.4167 46.5187 69.2751 43.9456C70.671 42.6893 72.3147 41.7122 74.0886 41.0923C75.8157 40.4885 78.6069 39.8615 80.4011 40.4318C86.6176 42.4072 82.8214 47.5511 82.3837 48.1564C81.611 49.2242 79.7392 49.4604 78.5809 49.8842C76.763 50.5495 74.8168 50.8079 72.9923 51.4486C70.5905 52.2924 69.3584 54.3893 68.3122 56.2518C67.2656 58.1148 68.4017 61.8989 67.7743 62.4078Z" fill="black"/>
<path d="M98.2209 59.4152C98.9946 59.4152 99.6219 58.7889 99.6219 58.0162C99.6219 57.2436 98.9946 56.6172 98.2209 56.6172C97.4471 56.6172 96.8198 57.2436 96.8198 58.0162C96.8198 58.7889 97.4471 59.4152 98.2209 59.4152Z" fill="#6C63FF"/>
</svg>
