<svg width="231" height="62" viewBox="0 0 231 62" fill="none" xmlns="http://www.w3.org/2000/svg">
<path d="M3.63415 47.8178C2.65548 47.8178 1.80592 47.4576 1.08387 46.7339C0.360228 46.0119 0 45.1623 0 44.1837V4.9093C0 3.93222 0.360228 3.08266 1.08387 2.35902C1.80592 1.63697 2.65548 1.27515 3.63415 1.27515H25.3116C26.2886 1.27515 27.1382 1.63697 27.8618 2.35902C28.5839 3.08266 28.9457 3.93222 28.9457 4.9093C28.9457 5.88797 28.5839 6.72638 27.8618 7.4277C27.1382 8.12903 26.2886 8.4797 25.3116 8.4797H9.49981C9.11726 8.4797 8.92599 8.67097 8.92599 9.05351V19.3184C8.92599 19.7009 9.11726 19.8922 9.49981 19.8922H24.2277C25.2048 19.8922 26.0225 20.2333 26.6823 20.9123C27.3406 21.5929 27.6706 22.4011 27.6706 23.3351C27.6706 24.2707 27.3406 25.0677 26.6823 25.726C26.0225 26.3859 25.2048 26.7142 24.2277 26.7142H9.49981C9.11726 26.7142 8.92599 26.9055 8.92599 27.288V40.0395C8.92599 40.422 9.11726 40.6133 9.49981 40.6133H25.3116C26.2886 40.6133 27.1382 40.9639 27.8618 41.6653C28.5839 42.3666 28.9457 43.2066 28.9457 44.1837C28.9457 45.1623 28.5839 46.0103 27.8618 46.7339C27.1382 47.4576 26.2886 47.8178 25.3116 47.8178H3.63415Z" fill="#FEFEFE"/>
<path d="M46.1607 48.4552C43.2694 48.4552 40.8785 47.51 38.9881 45.618C37.0961 43.726 36.1509 41.2714 36.1509 38.2541C36.1509 34.5561 37.5647 31.6871 40.3907 29.6469C43.2168 27.6066 47.5411 26.5865 53.3653 26.5865H55.9793C56.3619 26.5865 56.5531 26.3952 56.5531 26.0127V25.5026C56.5531 23.5485 56.0845 22.1777 55.1505 21.3903C54.2149 20.6045 52.5572 20.2108 50.1774 20.2108C47.7116 20.2108 44.6943 20.6571 41.1239 21.5497C40.3588 21.7633 39.6575 21.6246 39.0199 21.1353C38.3824 20.6475 38.0636 19.9988 38.0636 19.1907C38.0636 18.2136 38.3617 17.3306 38.9562 16.5448C39.5507 15.759 40.3158 15.2808 41.2514 15.1102C44.4807 14.3882 47.5204 14.0264 50.3687 14.0264C55.8088 14.0264 59.6135 15.005 61.7812 16.9592C63.949 18.9149 65.0328 22.3371 65.0328 27.2241V44.1835C65.0328 45.1621 64.6822 46.0101 63.9808 46.7337C63.2795 47.4574 62.4395 47.8176 61.4624 47.8176H60.7611C59.741 47.8176 58.8691 47.467 58.1471 46.7656C57.4234 46.0643 57.0409 45.2036 56.9994 44.1835V43.2909C56.9994 43.2494 56.9771 43.2271 56.9357 43.2271C56.8496 43.2271 56.8082 43.2494 56.8082 43.2909C54.2164 46.7337 50.6668 48.4552 46.1607 48.4552ZM53.3653 31.8783C47.2861 31.8783 44.248 33.7496 44.248 37.489C44.248 38.8502 44.6417 39.9548 45.4275 40.8043C46.2133 41.6555 47.2223 42.0795 48.456 42.0795C50.8788 42.0795 52.8329 41.3256 54.3216 39.8161C55.8088 38.3083 56.5531 36.2361 56.5531 33.5998V32.4522C56.5531 32.0696 56.3619 31.8783 55.9793 31.8783H53.3653Z" fill="#FEFEFE"/>
<path d="M84.2839 34.4286C79.8209 33.4516 76.6442 32.1127 74.7522 30.4119C72.8602 28.7128 71.915 26.502 71.915 23.7812C71.915 20.7209 73.0515 18.33 75.326 16.6085C77.599 14.8871 80.9685 14.0264 85.4315 14.0264C88.2369 14.0264 91.0198 14.2814 93.7837 14.7915C94.7178 14.962 95.4733 15.4195 96.0471 16.1622C96.6209 16.9066 96.9078 17.7673 96.9078 18.7444C96.9078 19.5525 96.589 20.2012 95.9515 20.689C95.3139 21.1783 94.5902 21.317 93.7837 21.1034C91.4024 20.5073 88.8951 20.2108 86.2604 20.2108C82.435 20.2108 80.5222 21.274 80.5222 23.3987C80.5222 24.4188 80.8825 25.2683 81.6061 25.9489C82.3282 26.6295 83.5603 27.1603 85.304 27.5429C90.191 28.5215 93.5383 29.8381 95.3458 31.4958C97.1517 33.1535 98.0554 35.5763 98.0554 38.7641C98.0554 41.8245 96.9078 44.2058 94.6126 45.9049C92.3173 47.6056 88.9796 48.4552 84.6027 48.4552C81.7544 48.4552 78.8422 48.1141 75.868 47.4351C74.9323 47.2231 74.1673 46.7242 73.5727 45.9368C72.9766 45.151 72.6801 44.2472 72.6801 43.2271C72.6801 42.4206 73.0085 41.8037 73.6684 41.3782C74.3282 40.9542 75.0391 40.8474 75.8042 41.0594C78.5665 41.8245 81.1805 42.207 83.6463 42.207C87.5132 42.207 89.4482 41.0594 89.4482 38.7641C89.4482 37.6595 89.0753 36.7876 88.3325 36.1501C87.5881 35.5125 86.2381 34.9387 84.2839 34.4286Z" fill="#FEFEFE"/>
<path d="M113.487 47.3067L102.903 18.0422C102.648 17.1926 102.753 16.4164 103.222 15.7151C103.689 15.0137 104.369 14.6631 105.262 14.6631H107.175C108.236 14.6631 109.215 14.993 110.107 15.6513C111 16.3112 111.574 17.1496 111.829 18.1697L117.758 39.0183C117.758 39.0613 117.779 39.0821 117.822 39.0821C117.863 39.0821 117.886 39.0613 117.886 39.0183L124.708 18.106C125.047 17.0859 125.664 16.257 126.557 15.6194C127.449 14.9819 128.426 14.6631 129.49 14.6631H131.02C131.912 14.6631 132.602 15.0249 133.092 15.747C133.58 16.4706 133.654 17.2357 133.315 18.0422L117.758 58.4642C117.376 59.4843 116.738 60.302 115.846 60.9189C114.953 61.5341 113.954 61.8433 112.849 61.8433H111.319C110.468 61.8433 109.798 61.4927 109.31 60.7913C108.821 60.09 108.746 59.3345 109.087 58.528L113.487 48.3268C113.571 48.1563 113.614 47.9873 113.614 47.8168C113.614 47.6462 113.571 47.4773 113.487 47.3067Z" fill="#FEFEFE"/>
<path d="M143.579 47.817C142.6 47.817 141.762 47.4567 141.06 46.7331C140.359 46.011 140.008 45.1615 140.008 44.1828V5.22723C140.008 4.20712 140.348 3.2938 141.028 2.48567C141.707 1.67915 142.559 1.23285 143.579 1.14678C147.191 0.807269 150.676 0.636719 154.035 0.636719C160.411 0.636719 165.192 1.9023 168.38 4.43027C171.568 6.95983 173.162 10.6259 173.162 15.4284C173.162 20.7409 171.621 24.7592 168.54 27.4785C165.457 30.1993 160.898 31.5589 154.864 31.5589C153.461 31.5589 151.612 31.4744 149.317 31.3039C148.976 31.3039 148.807 31.4744 148.807 31.8139V44.1828C148.807 45.1615 148.445 46.0095 147.723 46.7331C146.999 47.4567 146.15 47.817 145.173 47.817H143.579ZM148.807 8.5426V23.9081C148.807 24.2061 148.976 24.3974 149.317 24.4819C150.931 24.6955 152.505 24.8007 154.035 24.8007C157.478 24.8007 160.101 24.0467 161.909 22.5373C163.715 21.0294 164.619 18.8712 164.619 16.0659C164.619 10.4139 161.09 7.58624 154.035 7.58624C152.505 7.58624 150.931 7.69303 149.317 7.90503C148.976 7.9911 148.807 8.20309 148.807 8.5426Z" fill="#FEFEFE"/>
<path d="M184.956 7.65085C183.978 7.65085 183.128 7.29062 182.406 6.56698C181.682 5.84493 181.322 4.99537 181.322 4.0167V3.63415C181.322 2.65708 181.682 1.80751 182.406 1.08387C183.128 0.361821 183.978 0 184.956 0H186.614C187.591 0 188.441 0.361821 189.164 1.08387C189.886 1.80751 190.248 2.65708 190.248 3.63415V4.0167C190.248 4.99537 189.886 5.84493 189.164 6.56698C188.441 7.29062 187.591 7.65085 186.614 7.65085H184.956ZM184.956 47.8178C183.978 47.8178 183.128 47.4576 182.406 46.7339C181.682 46.0119 181.322 45.1623 181.322 44.1837V18.2983C181.322 17.3212 181.682 16.4716 182.406 15.748C183.128 15.026 183.978 14.6641 184.956 14.6641H186.614C187.591 14.6641 188.441 15.026 189.164 15.748C189.886 16.4716 190.248 17.3212 190.248 18.2983V44.1837C190.248 45.1623 189.886 46.0103 189.164 46.7339C188.441 47.4576 187.591 47.8178 186.614 47.8178H184.956Z" fill="#FEFEFE"/>
<path d="M205.233 47.8178C204.255 47.8178 203.405 47.4576 202.683 46.7339C201.959 46.0119 201.599 45.1623 201.599 44.1837V3.63415C201.599 2.65708 201.959 1.80751 202.683 1.08387C203.405 0.361821 204.255 0 205.233 0H206.891C207.868 0 208.718 0.361821 209.441 1.08387C210.163 1.80751 210.525 2.65708 210.525 3.63415V44.1837C210.525 45.1623 210.163 46.0103 209.441 46.7339C208.718 47.4576 207.868 47.8178 206.891 47.8178H205.233Z" fill="#FEFEFE"/>
<path d="M225.508 47.8178C224.53 47.8178 223.68 47.4576 222.958 46.7339C222.234 46.0119 221.874 45.1623 221.874 44.1837V3.63415C221.874 2.65708 222.234 1.80751 222.958 1.08387C223.68 0.361821 224.53 0 225.508 0H227.166C228.143 0 228.993 0.361821 229.716 1.08387C230.438 1.80751 230.8 2.65708 230.8 3.63415V44.1837C230.8 45.1623 230.438 46.0103 229.716 46.7339C228.993 47.4576 228.143 47.8178 227.166 47.8178H225.508Z" fill="#FEFEFE"/>
</svg>
