<svg width="209" height="72" viewBox="0 0 209 72" fill="none" xmlns="http://www.w3.org/2000/svg">
<path d="M21.7331 70H187.448" stroke="#6F00FF" stroke-width="3" stroke-linecap="round" stroke-linejoin="round"/>
<path d="M3.2909 40.82C2.40466 40.82 1.63534 40.5125 0.981496 39.8948C0.326203 39.2784 0 38.5531 0 37.7177V4.19079C0 3.3567 0.326203 2.63146 0.981496 2.01372C1.63534 1.39733 2.40466 1.08846 3.2909 1.08846H22.9208C23.8056 1.08846 24.5749 1.39733 25.2302 2.01372C25.8841 2.63146 26.2117 3.3567 26.2117 4.19079C26.2117 5.02624 25.8841 5.74195 25.2302 6.34065C24.5749 6.93934 23.8056 7.23869 22.9208 7.23869H8.60252C8.25611 7.23869 8.0829 7.40197 8.0829 7.72853V16.4912C8.0829 16.8178 8.25611 16.9811 8.60252 16.9811H21.9393C22.8241 16.9811 23.5645 17.2723 24.1621 17.8519C24.7582 18.4329 25.057 19.1228 25.057 19.9201C25.057 20.7188 24.7582 21.3992 24.1621 21.9611C23.5645 22.5244 22.8241 22.8047 21.9393 22.8047H8.60252C8.25611 22.8047 8.0829 22.968 8.0829 23.2946V34.1799C8.0829 34.5065 8.25611 34.6698 8.60252 34.6698H22.9208C23.8056 34.6698 24.5749 34.9691 25.2302 35.5678C25.8841 36.1665 26.2117 36.8836 26.2117 37.7177C26.2117 38.5531 25.8841 39.277 25.2302 39.8948C24.5749 40.5125 23.8056 40.82 22.9208 40.82H3.2909Z" fill="#6F00FF"/>
<path d="M41.8006 41.3642C39.1823 41.3642 37.0173 40.5573 35.3054 38.9422C33.5921 37.3271 32.7362 35.2316 32.7362 32.6559C32.7362 29.4991 34.0165 27.0499 36.5756 25.3083C39.1347 23.5666 43.0506 22.6958 48.3247 22.6958H50.6918C51.0382 22.6958 51.2114 22.5325 51.2114 22.2059V21.7705C51.2114 20.1023 50.7871 18.9322 49.9412 18.26C49.094 17.5892 47.5929 17.2531 45.4379 17.2531C43.205 17.2531 40.4727 17.6341 37.2395 18.3961C36.5467 18.5784 35.9116 18.46 35.3343 18.0423C34.7569 17.6259 34.4683 17.0721 34.4683 16.3823C34.4683 15.5482 34.7382 14.7944 35.2765 14.1236C35.8149 13.4528 36.5077 13.0446 37.355 12.899C40.2793 12.2826 43.0318 11.9737 45.6111 11.9737C50.5374 11.9737 53.9827 12.8092 55.9457 14.4773C57.9087 16.1469 58.8902 19.0682 58.8902 23.24V37.7176C58.8902 38.553 58.5726 39.2769 57.9375 39.8946C57.3025 40.5124 56.5418 40.8199 55.657 40.8199H55.0219C54.0982 40.8199 53.3086 40.5206 52.6548 39.9219C51.9995 39.3232 51.6531 38.5884 51.6156 37.7176V36.9556C51.6156 36.9202 51.5954 36.9012 51.5578 36.9012C51.4799 36.9012 51.4424 36.9202 51.4424 36.9556C49.0954 39.8946 45.881 41.3642 41.8006 41.3642ZM48.3247 27.2132C42.8196 27.2132 40.0686 28.8106 40.0686 32.0028C40.0686 33.1648 40.4251 34.1077 41.1367 34.833C41.8482 35.5595 42.7619 35.9215 43.8791 35.9215C46.073 35.9215 47.8426 35.2779 49.1907 33.9893C50.5374 32.7021 51.2114 30.9333 51.2114 28.6827V27.703C51.2114 27.3765 51.0382 27.2132 50.6918 27.2132H48.3247V27.2132Z" fill="#6F00FF"/>
<path d="M76.3231 29.3903C72.2816 28.5562 69.405 27.4132 67.6917 25.9614C65.9784 24.5109 65.1225 22.6237 65.1225 20.301C65.1225 17.6885 66.1516 15.6475 68.2113 14.178C70.2695 12.7085 73.3208 11.9737 77.3623 11.9737C79.9026 11.9737 82.4228 12.1914 84.9256 12.6268C85.7714 12.7724 86.4556 13.1629 86.9752 13.797C87.4948 14.4324 87.7546 15.1672 87.7546 16.0013C87.7546 16.6911 87.4659 17.2449 86.8886 17.6613C86.3112 18.079 85.6559 18.1974 84.9256 18.0151C82.7692 17.5062 80.4987 17.2531 78.1128 17.2531C74.6487 17.2531 72.9167 18.1607 72.9167 19.9744C72.9167 20.8453 73.2429 21.5705 73.8982 22.1515C74.552 22.7325 75.6678 23.1856 77.2468 23.5122C81.6722 24.3476 84.7033 25.4715 86.3401 26.8866C87.9754 28.3017 88.7938 30.37 88.7938 33.0913C88.7938 35.7038 87.7546 37.7366 85.6761 39.1871C83.5977 40.6389 80.5752 41.3642 76.6117 41.3642C74.0324 41.3642 71.3954 41.073 68.702 40.4933C67.8548 40.3124 67.162 39.8865 66.6236 39.2143C66.0837 38.5435 65.8153 37.772 65.8153 36.9012C65.8153 36.2127 66.1126 35.6861 66.7102 35.3228C67.3077 34.9609 67.9515 34.8697 68.6443 35.0507C71.1457 35.7038 73.5128 36.0303 75.7457 36.0303C79.2473 36.0303 80.9996 35.0507 80.9996 33.0913C80.9996 32.1484 80.6618 31.4041 79.9892 30.8598C79.3152 30.3155 78.0926 29.8257 76.3231 29.3903Z" fill="#6F00FF"/>
<path d="M102.767 40.3838L93.1833 15.4019C92.9523 14.6767 93.0476 14.014 93.4719 13.4154C93.8948 12.8167 94.5112 12.5173 95.3195 12.5173H97.0515C98.0128 12.5173 98.899 12.799 99.7073 13.3609C100.516 13.9242 101.035 14.64 101.266 15.5108L106.636 33.3083C106.636 33.3451 106.654 33.3628 106.693 33.3628C106.731 33.3628 106.751 33.3451 106.751 33.3083L112.929 15.4564C113.236 14.5855 113.795 13.878 114.603 13.3337C115.411 12.7894 116.296 12.5173 117.259 12.5173H118.644C119.453 12.5173 120.078 12.8262 120.521 13.4426C120.962 14.0603 121.03 14.7134 120.723 15.4019L106.636 49.9085C106.289 50.7793 105.712 51.4774 104.903 52.0039C104.095 52.5292 103.19 52.7931 102.19 52.7931H100.804C100.034 52.7931 99.4273 52.4938 98.9856 51.8951C98.5425 51.2964 98.4747 50.6514 98.7836 49.9629L102.767 41.2547C102.844 41.1091 102.883 40.9648 102.883 40.8192C102.883 40.6736 102.844 40.5294 102.767 40.3838Z" fill="#6F00FF"/>
<path d="M130.017 40.8194C129.131 40.8194 128.372 40.5119 127.737 39.8942C127.102 39.2778 126.784 38.5525 126.784 37.7171V4.46233C126.784 3.5915 127.092 2.81184 127.708 2.12198C128.323 1.43348 129.094 1.05249 130.017 0.979016C133.288 0.689194 136.445 0.543602 139.486 0.543602C145.259 0.543602 149.589 1.62397 152.476 3.782C155.363 5.94138 156.806 9.07092 156.806 13.1706C156.806 17.7057 155.411 21.136 152.621 23.4573C149.829 25.7799 145.701 26.9406 140.236 26.9406C138.966 26.9406 137.292 26.8685 135.213 26.7229C134.905 26.7229 134.752 26.8685 134.752 27.1583V37.7171C134.752 38.5525 134.424 39.2764 133.77 39.8942C133.115 40.5119 132.345 40.8194 131.461 40.8194H130.017ZM134.752 7.29252V20.4094C134.752 20.6638 134.905 20.8271 135.213 20.8992C136.676 21.0815 138.1 21.1714 139.486 21.1714C142.604 21.1714 144.979 20.5278 146.616 19.2392C148.251 17.952 149.07 16.1097 149.07 13.7149C149.07 8.88995 145.874 6.47612 139.486 6.47612C138.1 6.47612 136.676 6.56729 135.213 6.74826C134.905 6.82173 134.752 7.0027 134.752 7.29252Z" fill="#6F00FF"/>
<path d="M167.487 6.53121C166.6 6.53121 165.831 6.2237 165.177 5.60596C164.522 4.98958 164.196 4.26434 164.196 3.42889V3.10233C164.196 2.26824 164.522 1.543 165.177 0.925255C165.831 0.308872 166.6 0 167.487 0H168.988C169.872 0 170.642 0.308872 171.297 0.925255C171.951 1.543 172.279 2.26824 172.279 3.10233V3.42889C172.279 4.26434 171.951 4.98958 171.297 5.60596C170.642 6.2237 169.872 6.53121 168.988 6.53121H167.487V6.53121ZM167.487 40.8201C166.6 40.8201 165.831 40.5126 165.177 39.8948C164.522 39.2784 164.196 38.5532 164.196 37.7178V15.6205C164.196 14.7864 164.522 14.0612 165.177 13.4434C165.831 12.827 166.6 12.5182 167.487 12.5182H168.988C169.872 12.5182 170.642 12.827 171.297 13.4434C171.951 14.0612 172.279 14.7864 172.279 15.6205V37.7178C172.279 38.5532 171.951 39.2771 171.297 39.8948C170.642 40.5126 169.872 40.8201 168.988 40.8201H167.487Z" fill="#6F00FF"/>
<path d="M185.848 40.8201C184.962 40.8201 184.193 40.5126 183.539 39.8948C182.883 39.2784 182.557 38.5532 182.557 37.7178V3.10233C182.557 2.26824 182.883 1.543 183.539 0.925255C184.193 0.308872 184.962 0 185.848 0H187.349C188.234 0 189.003 0.308872 189.659 0.925255C190.313 1.543 190.64 2.26824 190.64 3.10233V37.7178C190.64 38.5532 190.313 39.2771 189.659 39.8948C189.003 40.5126 188.234 40.8201 187.349 40.8201H185.848V40.8201Z" fill="#6F00FF"/>
<path d="M204.208 40.8201C203.322 40.8201 202.552 40.5126 201.899 39.8948C201.243 39.2784 200.917 38.5532 200.917 37.7178V3.10233C200.917 2.26824 201.243 1.543 201.899 0.925255C202.552 0.308872 203.322 0 204.208 0H205.709C206.594 0 207.363 0.308872 208.019 0.925255C208.672 1.543 209 2.26824 209 3.10233V37.7178C209 38.5532 208.672 39.2771 208.019 39.8948C207.363 40.5126 206.594 40.8201 205.709 40.8201H204.208V40.8201Z" fill="#6F00FF"/>
</svg>
