<svg width="253" height="260" viewBox="0 0 253 260" fill="none" xmlns="http://www.w3.org/2000/svg">
<path d="M127.131 181.948L139.047 210.851L148.636 206.3" stroke="black" stroke-width="8.0304" stroke-miterlimit="10" stroke-linecap="round" stroke-linejoin="round"/>
<path d="M30 218H213" stroke="white" stroke-linecap="round" stroke-linejoin="round"/>
<path d="M86.849 212.457H74L89.746 178.268" stroke="black" stroke-width="8.0304" stroke-miterlimit="10" stroke-linecap="round" stroke-linejoin="round"/>
<path d="M109.06 181.851C89.943 180.432 75.596 163.785 77.015 144.669L81.804 80.1418C83.222 61.0248 99.869 46.6778 118.986 48.0968C138.103 49.5158 152.45 66.1628 151.031 85.2788L146.242 149.806C144.824 168.923 128.176 183.27 109.06 181.851Z" fill="#6F00FF"/>
<path d="M157.431 160.784L141.748 161.27" stroke="black" stroke-width="8.0304" stroke-miterlimit="10" stroke-linecap="round" stroke-linejoin="round"/>
<path d="M79.409 112.405L77.015 144.669C75.596 163.785 89.943 180.433 109.06 181.851C128.177 183.269 144.824 168.923 146.242 149.806L148.636 117.542L79.409 112.405Z" fill="white"/>
<path d="M109.06 181.851C89.943 180.432 75.596 163.785 77.015 144.669L81.804 80.1418C83.222 61.0248 99.869 46.6778 118.986 48.0968C138.103 49.5158 152.45 66.1628 151.031 85.2788L146.242 149.806C144.824 168.923 128.176 183.27 109.06 181.851Z" stroke="white" stroke-width="2" stroke-miterlimit="10" stroke-linecap="round" stroke-linejoin="round"/>
<path d="M95.304 99.1658L96.57 82.1098" stroke="white" stroke-width="3.0152" stroke-miterlimit="10" stroke-linecap="round" stroke-linejoin="round"/>
<path d="M97.112 76.9318C98.4375 76.9318 99.512 75.8573 99.512 74.5318C99.512 73.2063 98.4375 72.1318 97.112 72.1318C95.7865 72.1318 94.712 73.2063 94.712 74.5318C94.712 75.8573 95.7865 76.9318 97.112 76.9318Z" fill="white"/>
<path d="M88.723 120.642C88.723 120.642 60.884 150.087 101.304 168.289" stroke="black" stroke-width="8.0304" stroke-miterlimit="10" stroke-linecap="round" stroke-linejoin="round"/>
<path d="M116.629 164.006C116.629 164.006 117.641 159.991 114.023 159.89C110.405 159.79 104.884 161.931 102.977 168.289C101.07 174.647 105.416 179.599 109.868 180.335C114.32 181.071 115.625 177.759 115.223 176.654C114.821 175.55 119.138 174.044 118.134 170.631C117.13 167.218 120.644 167.419 116.629 164.006Z" fill="white" stroke="black" stroke-width="0.803" stroke-miterlimit="10"/>
<path d="M110.873 176.119C111.497 176.555 114.639 177.053 115.156 176.387" stroke="black" stroke-width="0.803" stroke-miterlimit="10" stroke-linecap="round" stroke-linejoin="round"/>
<path d="M112.479 171.434C113.82 171.594 114.489 171.453 115.778 170.962C116.403 170.724 117.736 170.411 118.034 169.761" stroke="black" stroke-width="0.803" stroke-miterlimit="10" stroke-linecap="round" stroke-linejoin="round"/>
<path d="M116.695 163.337C116.197 162.937 115.038 162.261 114.416 162.798C113.66 163.451 114.661 164.52 114.821 165.077" stroke="black" stroke-width="0.803" stroke-miterlimit="10" stroke-linecap="round" stroke-linejoin="round"/>
<path d="M110.271 161.999C110.297 161.945 112.337 162.736 112.944 163.233C113.732 163.878 114.489 164.75 114.688 165.747" stroke="black" stroke-width="0.803" stroke-miterlimit="10" stroke-linecap="round" stroke-linejoin="round"/>
<path d="M116.447 125.647C116.323 128.736 114.072 131.177 111.445 131.072C108.818 130.967 106.771 128.352 106.895 125.263L107.384 113.093C107.508 110.004 109.759 107.563 112.386 107.668C115.013 107.773 117.06 110.388 116.936 113.477L116.447 125.647Z" fill="white"/>
<path d="M116.447 125.647C116.323 128.736 114.072 131.177 111.445 131.072C108.818 130.967 106.771 128.352 106.895 125.263L107.384 113.093C107.508 110.004 109.759 107.563 112.386 107.668C115.013 107.773 117.06 110.388 116.936 113.477L116.447 125.647Z" stroke="black" stroke-width="0.803" stroke-miterlimit="10" stroke-linecap="round" stroke-linejoin="round"/>
<path d="M110.747 119.271L111.988 117.571L112.079 115.31C112.14 113.793 111.577 112.527 110.828 112.497C110.079 112.467 109.416 113.684 109.355 115.201L109.024 123.43C108.963 124.947 109.526 126.213 110.275 126.243C111.024 126.273 111.687 125.056 111.748 123.539L111.87 120.504C111.412 120.008 110.747 119.271 110.747 119.271Z" fill="black"/>
<path d="M144.487 126.584C144.363 129.673 142.112 132.114 139.485 132.009C136.858 131.904 134.811 129.289 134.935 126.2L135.424 114.03C135.548 110.941 137.799 108.5 140.426 108.605C143.053 108.71 145.1 111.325 144.976 114.414L144.487 126.584Z" fill="white"/>
<path d="M144.487 126.584C144.363 129.673 142.112 132.114 139.485 132.009C136.858 131.904 134.811 129.289 134.935 126.2L135.424 114.03C135.548 110.941 137.799 108.5 140.426 108.605C143.053 108.71 145.1 111.325 144.976 114.414L144.487 126.584Z" stroke="black" stroke-width="0.803" stroke-miterlimit="10" stroke-linecap="round" stroke-linejoin="round"/>
<path d="M138.786 120.208L140.027 118.508L140.118 116.247C140.179 114.73 139.616 113.464 138.867 113.434C138.118 113.404 137.455 114.621 137.394 116.138L137.063 124.367C137.002 125.884 137.565 127.15 138.314 127.18C139.063 127.21 139.726 125.993 139.787 124.476L139.909 121.441C139.452 120.945 138.786 120.208 138.786 120.208Z" fill="black"/>
<path d="M177.076 159.169C179.786 163.787 174.566 163.987 174.868 165.192C175.169 166.397 173.764 169.81 169.247 170.145C164.73 170.481 162.323 166.37 162.323 166.37C162.323 166.37 163.606 167.384 161.417 167.099C156.997 166.524 155.996 160.875 155.796 157.061C155.595 153.247 159.711 153.548 159.711 153.548C159.711 153.548 161.691 147.626 166.824 147.927C171.957 148.228 170.953 151.039 170.953 151.039C170.953 151.039 178.682 150.236 178.783 154.853C178.884 159.47 177.076 159.169 177.076 159.169Z" fill="white" stroke="black" stroke-width="0.803" stroke-miterlimit="10" stroke-linecap="round" stroke-linejoin="round"/>
<path d="M164.729 152.645C162.697 155.223 165.557 161.498 168.948 158.898C170.33 157.838 171.727 152.513 170.551 151.039" stroke="black" stroke-width="0.803" stroke-miterlimit="10" stroke-linecap="round" stroke-linejoin="round"/>
<path d="M174.968 164.59C173.244 162.857 169.257 161.354 166.93 162.56C165.963 163.061 165.452 163.801 166.009 164.894C166.795 166.437 168.572 166.731 170.149 166.698" stroke="black" stroke-width="0.803" stroke-miterlimit="10" stroke-linecap="round" stroke-linejoin="round"/>
<path d="M160.513 161.98C160.91 163.544 161.164 165.636 162.621 166.598" stroke="black" stroke-width="0.803" stroke-miterlimit="10" stroke-linecap="round" stroke-linejoin="round"/>
</svg>
