<?xml version="1.0" encoding="utf-8"?>
<!-- Generator: Adobe Illustrator 24.0.0, SVG Export Plug-In . SVG Version: 6.00 Build 0)  -->
<svg version="1.1" id="Capa_1" xmlns="http://www.w3.org/2000/svg" xmlns:xlink="http://www.w3.org/1999/xlink" x="0px" y="0px"
	 viewBox="0 0 310.7 86.6" style="enable-background:new 0 0 310.7 86.6;" xml:space="preserve">
<style type="text/css">
	.st0{fill:#4F4797;}
	.st1{fill:#3E348B;}
	.st2{fill:none;stroke:#4F4797;stroke-width:3.374;stroke-linecap:round;stroke-linejoin:round;}
</style>
<title>Recurso 1</title>
<g id="Capa_2_1_">
	<g id="Capa_1-2">
		<g id="Informacion">
			<path class="st0" d="M39.2,9.4c1,0,2.1,0.1,3.1,0.2c9,0.8,17.2,5.2,23.1,12.2c-23.6,5.1-42.8,21.9-51,44.7
				c-12.7-13.8-12-35.2,1.7-48C22.3,12.6,30.6,9.4,39.2,9.4 M39.2,8.4c-19.3,0-34.9,15.7-34.8,35c0,9.4,3.7,18.3,10.4,24.8
				C22.7,44.6,42.7,27.1,67,22.3c-5.9-8-14.9-12.9-24.6-13.8C41.4,8.4,40.2,8.4,39.2,8.4z"/>
			<path class="st1" d="M74,46.4c0.7-8.6-1.7-17.2-6.9-24.2C42.6,27,22.6,44.5,14.8,68.1c13.7,13.5,35.8,13.3,49.3-0.4
				C69.8,62,73.2,54.5,74,46.4z"/>
			<path class="st2" d="M67,22.2C42.6,27,22.6,44.5,14.8,68.1"/>
		</g>
		<g>
			<path class="st1" d="M95,28h15c0.9,0,1.8-0.4,2.4-1c0.7-0.6,1-1.5,1-2.4c0-1.9-1.6-3.4-3.4-3.4H89.4c-1.9,0-3.4,1.5-3.4,3.4v37.2
				c0,1.9,1.6,3.4,3.4,3.4H110c1.9,0,3.4-1.5,3.4-3.4c0-0.9-0.3-1.8-1-2.4c-0.6-0.6-1.5-1-2.4-1H95c-0.3,0-0.5-0.1-0.5-0.4v-0.1
				V45.8c0-0.3,0.1-0.5,0.4-0.5H95h14c0.9,0,1.7-0.3,2.3-0.9c0.6-0.6,0.9-1.4,0.9-2.3c0-0.9-0.3-1.7-0.9-2.3s-1.4-1-2.3-1H95
				c-0.3,0-0.5-0.1-0.5-0.4v-0.1v-9.7C94.5,28.3,94.7,28.1,95,28C94.9,28,94.9,28,95,28z"/>
			<path class="st1" d="M133.7,33.3c-2.9,0-5.8,0.4-8.6,1c-0.9,0.2-1.7,0.6-2.2,1.4c-0.6,0.7-0.9,1.6-0.8,2.5c0,0.7,0.3,1.4,0.9,1.8
				c0.6,0.5,1.3,0.6,2,0.4c2.8-0.8,5.7-1.2,8.6-1.3c2.3,0,3.8,0.4,4.7,1.1s1.3,2,1.3,3.9v0.5c0,0.3-0.1,0.5-0.4,0.5h-0.1h-2.5
				c-5.5,0-9.6,1-12.3,2.9c-2.6,1.9-4.1,4.9-4,8.2c-0.1,2.6,0.9,5.1,2.7,7c1.8,1.8,4.3,2.8,6.8,2.7c4,0.1,7.8-1.7,10.1-4.9
				c0,0,0-0.1,0.1-0.1h0.1l0,0v0.8c0,0.9,0.4,1.8,1.1,2.5c0.7,0.7,1.6,1,2.5,1h0.7c0.9,0,1.8-0.3,2.4-1c0.6-0.6,1-1.5,1-2.4v-16
				c0-4.7-1-7.9-3.1-9.7C142.5,34.2,138.9,33.3,133.7,33.3z M139.6,51.8c0.1,2.2-0.6,4.3-2.1,5.9c-1.5,1.5-3.5,2.2-5.6,2.1
				c-1.1,0-2.1-0.4-2.9-1.2c-0.8-0.9-1.2-2-1.1-3.1c0-3.5,2.9-5.3,8.6-5.3h2.5c0.3,0,0.5,0.1,0.5,0.4v0.1L139.6,51.8z"/>
			<path class="st1" d="M166.8,46c-1.3-0.2-2.5-0.7-3.5-1.5c-0.7-0.6-1-1.5-1-2.4c0-2,1.8-3,5.4-3c2.4,0,4.8,0.3,7.1,0.8
				c0.7,0.2,1.5,0.1,2.1-0.4c0.6-0.4,0.9-1.1,0.9-1.8c0-0.9-0.3-1.7-0.8-2.5c-0.5-0.7-1.3-1.2-2.1-1.3c-2.6-0.5-5.3-0.7-7.9-0.7
				c-4.2,0-7.4,0.8-9.6,2.4c-2.1,1.6-3.3,4.1-3.2,6.8c-0.1,2.4,0.9,4.7,2.7,6.3s4.8,2.9,9,3.8c1.4,0.3,2.7,0.8,3.8,1.6
				c0.7,0.6,1.1,1.5,1.1,2.5c0,2.2-1.8,3.3-5.5,3.3c-2.5,0-5-0.4-7.4-1.1c-0.7-0.2-1.4-0.1-2,0.3c-0.6,0.4-1,1-0.9,1.8
				c0,0.9,0.3,1.8,0.9,2.6c0.5,0.7,1.3,1.2,2.2,1.4c2.7,0.6,5.5,1,8.3,1c4.1,0,7.3-0.8,9.5-2.4c2.1-1.6,3.4-4.1,3.3-6.8
				c0-3-0.9-5.3-2.6-6.9S171.5,47,166.8,46z"/>
			<path class="st1" d="M210.2,33.9h-1.4c-2.1,0-3.9,1.3-4.5,3.3L197.8,57c0,0,0,0.1-0.1,0.1c0,0-0.1,0-0.1-0.1l0,0L192,37.2
				c-0.2-1-0.8-1.8-1.6-2.4c-0.8-0.6-1.8-0.9-2.8-0.9h-1.8c-0.8,0-1.5,0.3-1.9,1c-0.4,0.6-0.5,1.5-0.3,2.2l10,27.8
				c0.1,0.1,0.1,0.3,0.1,0.5s0,0.3-0.1,0.5l-4.2,9.7c-0.3,0.7-0.2,1.5,0.2,2.1s1.1,1,1.9,1h1.4c1,0,2-0.3,2.8-0.9s1.5-1.4,1.8-2.3
				L212.4,37c0.3-0.7,0.2-1.5-0.2-2.2C211.7,34.2,211,33.8,210.2,33.9z"/>
			<path class="st1" d="M245.6,24.2c-3-2.4-7.6-3.6-13.6-3.6c-3.2,0-6.5,0.2-9.9,0.5c-0.9,0.1-1.8,0.5-2.4,1.3c-0.6,0.7-1,1.6-1,2.6
				v36.9c0,0.9,0.4,1.8,1,2.4c0.6,0.7,1.5,1,2.4,1h1.5c1.9,0,3.5-1.5,3.5-3.4V50.1c0-0.2,0.1-0.4,0.3-0.5h0.1
				c2.2,0.2,3.9,0.2,5.3,0.2c5.7,0,10.1-1.3,13-3.9c2.9-2.6,4.4-6.4,4.3-11.4C250.1,30,248.6,26.6,245.6,24.2z M239.5,41.3
				c-1.7,1.4-4.2,2.2-7.5,2.2c-1.5,0-3-0.1-4.5-0.3c-0.3,0-0.5-0.3-0.5-0.5V28c0-0.3,0.2-0.6,0.5-0.6c1.5-0.2,3-0.3,4.5-0.3
				c6.7,0,10,2.7,10,8C242.2,37.5,241.2,39.8,239.5,41.3z"/>
			<path class="st1" d="M262.9,33.9h-1.6c-1.9,0-3.4,1.6-3.4,3.5v24.5c0,1.9,1.6,3.4,3.4,3.4h1.6c1.9,0,3.4-1.6,3.4-3.4V37.3
				C266.3,35.4,264.8,33.9,262.9,33.9z"/>
			<path class="st1" d="M262.9,20h-1.6c-1.9,0-3.4,1.6-3.4,3.4v0.4c0,1.9,1.6,3.4,3.4,3.4h1.6c1.9,0,3.4-1.6,3.4-3.4v-0.4
				C266.3,21.5,264.8,20,262.9,20z"/>
			<path class="st1" d="M282.1,20h-1.6c-1.9,0-3.4,1.6-3.4,3.4v38.4c0,1.9,1.6,3.4,3.5,3.4h1.5c1.9,0,3.4-1.5,3.5-3.4V23.4
				C285.5,21.5,284,20,282.1,20z"/>
			<path class="st1" d="M303.8,21c-0.6-0.7-1.5-1-2.4-1h-1.6c-1.9,0-3.4,1.5-3.4,3.4v38.4c0,1.9,1.5,3.4,3.4,3.4h1.6
				c1.9,0,3.4-1.5,3.5-3.4V23.4C304.8,22.5,304.4,21.6,303.8,21z"/>
		</g>
	</g>
</g>
</svg>
