<?xml version="1.0" encoding="utf-8"?>
<!-- Generator: Adobe Illustrator 24.0.0, SVG Export Plug-In . SVG Version: 6.00 Build 0)  -->
<svg version="1.1" xmlns="http://www.w3.org/2000/svg" xmlns:xlink="http://www.w3.org/1999/xlink" x="0px" y="0px"
	 viewBox="0 0 225 155" style="enable-background:new 0 0 225 155;" xml:space="preserve">
<style type="text/css">
	.st0{display:none;}
	.st1{fill:#FFFFFF;}
	.st2{fill:#3E348B;}
	.st3{fill:none;stroke:#4F4797;stroke-width:3.6022;stroke-linecap:round;stroke-linejoin:round;stroke-miterlimit:10;}
</style>
<g id="Capa_2" class="st0">
	
		<image style="display:inline;overflow:visible;" width="251" height="174" xlink:href="52B11AF4.jpg"  transform="matrix(1 0 0 1 -12.752 -11.3976)">
	</image>
</g>
<g id="Capa_1">
	<g id="Informacion">
		<g>
			<path class="st1" d="M142.3,19.3c-6.1-8.1-15.4-13.6-26.3-14.6C95.5,2.8,77.4,17.9,75.6,38.4c-1,11.6,3.3,22.4,11,29.9
				C94.9,43.1,116.4,24.3,142.3,19.3z"/>
			<path class="st2" d="M149.7,45.1c0.9-9.6-2-18.7-7.4-25.8c-25.9,5-47.4,23.8-55.7,49c5.9,5.8,13.8,9.7,22.7,10.5
				C129.8,80.7,147.9,65.6,149.7,45.1z"/>
			<path class="st3" d="M142.3,19.3c-25.9,5-47.4,23.8-55.7,49"/>
		</g>
	</g>
	<g>
		<path class="st1" d="M12.6,100.6h15c0.9,0,1.7-0.3,2.4-1c0.7-0.7,1-1.5,1-2.4c0-0.9-0.3-1.7-1-2.4c-0.7-0.7-1.5-1-2.4-1H7.1
			c-0.9,0-1.7,0.3-2.4,1c-0.7,0.7-1,1.5-1,2.4v37.2c0,0.9,0.3,1.7,1,2.4c0.7,0.7,1.5,1,2.4,1h20.6c0.9,0,1.7-0.3,2.4-1
			c0.7-0.7,1-1.5,1-2.4c0-0.9-0.3-1.7-1-2.4c-0.7-0.7-1.5-1-2.4-1h-15c-0.4,0-0.5-0.2-0.5-0.5v-12.1c0-0.4,0.2-0.5,0.5-0.5h14
			c0.9,0,1.7-0.3,2.3-0.9c0.6-0.6,0.9-1.4,0.9-2.3c0-0.9-0.3-1.7-0.9-2.3c-0.6-0.6-1.4-1-2.3-1h-14c-0.4,0-0.5-0.2-0.5-0.5v-9.7
			C12.1,100.8,12.3,100.6,12.6,100.6z"/>
		<path class="st1" d="M51.4,105.9c-2.7,0-5.6,0.3-8.6,1c-0.9,0.2-1.6,0.6-2.2,1.4c-0.6,0.7-0.8,1.6-0.8,2.5c0,0.8,0.3,1.4,0.9,1.8
			c0.6,0.5,1.3,0.6,2,0.4c3.4-0.8,6.2-1.3,8.6-1.3c2.3,0,3.8,0.4,4.7,1.1c0.9,0.7,1.3,2,1.3,3.9v0.5c0,0.4-0.2,0.5-0.5,0.5h-2.5
			c-5.5,0-9.6,1-12.3,2.9c-2.7,1.9-4,4.7-4,8.2c0,2.9,0.9,5.2,2.7,7c1.8,1.8,4.1,2.7,6.8,2.7c4.3,0,7.6-1.6,10.1-4.9
			c0,0,0-0.1,0.1-0.1c0,0,0.1,0,0.1,0.1v0.8c0,1,0.4,1.8,1.1,2.4c0.7,0.7,1.5,1,2.5,1h0.7c0.9,0,1.7-0.3,2.4-1c0.7-0.7,1-1.5,1-2.4
			v-16.1c0-4.6-1-7.9-3.1-9.7C60.2,106.8,56.6,105.9,51.4,105.9z M57.3,124.4c0,2.5-0.7,4.5-2.1,5.9c-1.4,1.4-3.3,2.1-5.6,2.1
			c-1.2,0-2.1-0.4-2.9-1.2c-0.7-0.8-1.1-1.9-1.1-3.1c0-3.5,2.9-5.3,8.6-5.3h2.5c0.4,0,0.5,0.2,0.5,0.5V124.4z"/>
		<path class="st1" d="M84.5,118.7c-1.7-0.4-2.8-0.9-3.5-1.5c-0.7-0.6-1-1.5-1-2.4c0-2,1.8-3,5.4-3c2.5,0,4.9,0.3,7.1,0.8
			c0.8,0.2,1.5,0.1,2.1-0.4c0.6-0.5,0.9-1.1,0.9-1.8c0-0.9-0.3-1.7-0.8-2.4c-0.5-0.7-1.3-1.1-2.1-1.3c-2.6-0.5-5.3-0.7-7.9-0.7
			c-4.2,0-7.4,0.8-9.6,2.4c-2.2,1.6-3.2,3.9-3.2,6.8c0,2.6,0.9,4.7,2.7,6.3c1.8,1.6,4.8,2.9,9,3.8c1.9,0.5,3.1,1,3.8,1.6
			c0.7,0.6,1.1,1.4,1.1,2.5c0,2.2-1.8,3.3-5.5,3.3c-2.3,0-4.8-0.4-7.4-1.1c-0.7-0.2-1.4-0.1-2,0.3c-0.6,0.4-0.9,1-0.9,1.8
			c0,1,0.3,1.8,0.8,2.6c0.6,0.7,1.3,1.2,2.2,1.4c2.8,0.6,5.6,1,8.3,1c4.1,0,7.3-0.8,9.5-2.4c2.2-1.6,3.3-3.9,3.3-6.8
			c0-3-0.9-5.3-2.6-6.9C92.3,120.8,89.2,119.6,84.5,118.7z"/>
		<path class="st1" d="M127.9,106.5h-1.5c-1,0-1.9,0.3-2.8,0.9c-0.8,0.6-1.4,1.4-1.8,2.4l-6.5,19.8c0,0,0,0.1-0.1,0.1
			c0,0-0.1,0-0.1-0.1l-5.6-19.8c-0.2-1-0.8-1.8-1.6-2.4c-0.8-0.6-1.8-0.9-2.8-0.9h-1.8c-0.8,0-1.5,0.3-1.9,1
			c-0.4,0.7-0.5,1.4-0.3,2.2l10,27.7c0.1,0.2,0.1,0.3,0.1,0.5c0,0.2,0,0.3-0.1,0.5l-4.2,9.7c-0.3,0.8-0.3,1.5,0.2,2.1
			c0.5,0.7,1.1,1,1.9,1h1.5c1,0,2-0.3,2.8-0.9c0.8-0.6,1.5-1.4,1.8-2.3l14.7-38.3c0.3-0.8,0.3-1.5-0.2-2.2
			C129.4,106.8,128.7,106.5,127.9,106.5z"/>
		<path class="st1" d="M163.3,96.8c-3-2.4-7.6-3.6-13.6-3.6c-3.2,0-6.5,0.2-9.9,0.5c-1,0.1-1.8,0.5-2.4,1.3c-0.6,0.8-1,1.6-1,2.6
			v36.9c0,0.9,0.3,1.7,1,2.4c0.7,0.7,1.5,1,2.4,1h1.5c0.9,0,1.7-0.3,2.4-1c0.7-0.7,1-1.5,1-2.4v-11.7c0-0.3,0.2-0.5,0.5-0.5
			c2.2,0.2,3.9,0.2,5.3,0.2c5.7,0,10-1.3,13-3.9c2.9-2.6,4.4-6.4,4.4-11.4C167.8,102.6,166.3,99.2,163.3,96.8z M157.1,113.9
			c-1.7,1.4-4.2,2.1-7.5,2.1c-1.5,0-2.9-0.1-4.5-0.3c-0.3-0.1-0.5-0.3-0.5-0.5v-14.6c0-0.3,0.2-0.5,0.5-0.6c1.5-0.2,3-0.3,4.5-0.3
			c6.7,0,10,2.7,10,8C159.7,110.5,158.9,112.5,157.1,113.9z"/>
		<path class="st1" d="M180.6,106.5H179c-0.9,0-1.7,0.3-2.4,1c-0.7,0.7-1,1.5-1,2.4v24.5c0,0.9,0.3,1.7,1,2.4c0.7,0.7,1.5,1,2.4,1
			h1.6c0.9,0,1.7-0.3,2.4-1c0.7-0.7,1-1.5,1-2.4v-24.5c0-0.9-0.3-1.7-1-2.4C182.3,106.8,181.5,106.5,180.6,106.5z"/>
		<path class="st1" d="M180.6,92.6H179c-0.9,0-1.7,0.3-2.4,1c-0.7,0.7-1,1.5-1,2.4v0.4c0,0.9,0.3,1.7,1,2.4c0.7,0.7,1.5,1,2.4,1h1.6
			c0.9,0,1.7-0.3,2.4-1c0.7-0.7,1-1.5,1-2.4V96c0-0.9-0.3-1.7-1-2.4C182.3,92.9,181.5,92.6,180.6,92.6z"/>
		<path class="st1" d="M199.8,92.6h-1.6c-0.9,0-1.7,0.3-2.4,1c-0.7,0.7-1,1.5-1,2.4v38.4c0,0.9,0.3,1.7,1,2.4c0.7,0.7,1.5,1,2.4,1
			h1.6c0.9,0,1.7-0.3,2.4-1c0.7-0.7,1-1.5,1-2.4V96c0-0.9-0.3-1.7-1-2.4C201.5,92.9,200.7,92.6,199.8,92.6z"/>
		<path class="st1" d="M221.4,93.6c-0.7-0.7-1.5-1-2.4-1h-1.6c-0.9,0-1.7,0.3-2.4,1c-0.7,0.7-1,1.5-1,2.4v38.4c0,0.9,0.3,1.7,1,2.4
			c0.7,0.7,1.5,1,2.4,1h1.6c0.9,0,1.7-0.3,2.4-1c0.7-0.7,1-1.5,1-2.4V96C222.5,95.1,222.1,94.3,221.4,93.6z"/>
	</g>
</g>
</svg>
