<svg width="185" height="72" viewBox="0 0 185 72" fill="none" xmlns="http://www.w3.org/2000/svg">
<path d="M19.1554 70H165.215" stroke="black" stroke-width="3" stroke-linecap="round" stroke-linejoin="round"/>
<path d="M2.90056 40.82C2.11945 40.82 1.44138 40.5125 0.865081 39.8948C0.287512 39.2784 0 38.5531 0 37.7177V4.19079C0 3.3567 0.287512 2.63146 0.865081 2.01372C1.44138 1.39733 2.11945 1.08846 2.90056 1.08846H20.2022C20.982 1.08846 21.6601 1.39733 22.2377 2.01372C22.814 2.63146 23.1027 3.3567 23.1027 4.19079C23.1027 5.02624 22.814 5.74195 22.2377 6.34065C21.6601 6.93934 20.982 7.23869 20.2022 7.23869H7.58218C7.27685 7.23869 7.12419 7.40197 7.12419 7.72853V16.4912C7.12419 16.8178 7.27685 16.9811 7.58218 16.9811H19.3371C20.1169 16.9811 20.7696 17.2723 21.2962 17.8519C21.8217 18.4329 22.085 19.1228 22.085 19.9201C22.085 20.7188 21.8217 21.3992 21.2962 21.9611C20.7696 22.5245 20.1169 22.8047 19.3371 22.8047H7.58218C7.27685 22.8047 7.12419 22.968 7.12419 23.2946V34.1799C7.12419 34.5065 7.27685 34.6698 7.58218 34.6698H20.2022C20.982 34.6698 21.6601 34.9691 22.2377 35.5678C22.814 36.1665 23.1027 36.8836 23.1027 37.7177C23.1027 38.5531 22.814 39.277 22.2377 39.8948C21.6601 40.5125 20.982 40.82 20.2022 40.82H2.90056Z" fill="black"/>
<path d="M36.8426 41.3642C34.5349 41.3642 32.6266 40.5573 31.1178 38.9422C29.6078 37.3271 28.8534 35.2316 28.8534 32.6559C28.8534 29.4991 29.9818 27.0499 32.2374 25.3083C34.4929 23.5666 37.9443 22.6958 42.5929 22.6958H44.6792C44.9846 22.6958 45.1372 22.5325 45.1372 22.2059V21.7705C45.1372 20.1023 44.7632 18.9322 44.0177 18.26C43.2709 17.5892 41.9479 17.2531 40.0485 17.2531C38.0805 17.2531 35.6722 17.6341 32.8226 18.3961C32.2119 18.5784 31.6522 18.46 31.1433 18.0423C30.6344 17.6259 30.38 17.0721 30.38 16.3823C30.38 15.5482 30.6179 14.7944 31.0924 14.1236C31.5669 13.4528 32.1776 13.0446 32.9243 12.899C35.5018 12.2826 37.9278 11.9737 40.2012 11.9737C44.5431 11.9737 47.5798 12.8092 49.31 14.4773C51.0401 16.1469 51.9052 19.0682 51.9052 23.2401V37.7176C51.9052 38.553 51.6253 39.2769 51.0656 39.8946C50.5058 40.5124 49.8354 40.8199 49.0555 40.8199H48.4958C47.6816 40.8199 46.9857 40.5206 46.4094 39.9219C45.8318 39.3232 45.5265 38.5884 45.4934 37.7176V36.9556C45.4934 36.9202 45.4756 36.9012 45.4425 36.9012C45.3739 36.9012 45.3408 36.9202 45.3408 36.9556C43.2722 39.8946 40.4391 41.3642 36.8426 41.3642ZM42.5929 27.2132C37.7408 27.2132 35.316 28.8106 35.316 32.0028C35.316 33.1648 35.6302 34.1077 36.2574 34.833C36.8846 35.5596 37.6899 35.9215 38.6746 35.9215C40.6083 35.9215 42.168 35.2779 43.3562 33.9893C44.5431 32.7021 45.1372 30.9333 45.1372 28.6827V27.703C45.1372 27.3765 44.9846 27.2132 44.6792 27.2132H42.5929V27.2132Z" fill="black"/>
<path d="M67.2704 29.3903C63.7083 28.5562 61.1728 27.4132 59.6628 25.9614C58.1527 24.5109 57.3983 22.6237 57.3983 20.301C57.3983 17.6885 58.3053 15.6475 60.1207 14.178C61.9349 12.7085 64.6243 11.9737 68.1863 11.9737C70.4254 11.9737 72.6466 12.1914 74.8526 12.6268C75.598 12.7724 76.2011 13.1629 76.6591 13.797C77.117 14.4324 77.346 15.1672 77.346 16.0013C77.346 16.6911 77.0916 17.2449 76.5827 17.6613C76.0738 18.079 75.4963 18.1974 74.8526 18.0151C72.9519 17.5062 70.9508 17.2531 68.8479 17.2531C65.7947 17.2531 64.268 18.1607 64.268 19.9744C64.268 20.8453 64.5556 21.5705 65.1331 22.1515C65.7094 22.7325 66.6928 23.1856 68.0846 23.5122C71.9851 24.3476 74.6566 25.4715 76.0993 26.8866C77.5407 28.3017 78.262 30.37 78.262 33.0913C78.262 35.7038 77.346 37.7366 75.5141 39.1871C73.6822 40.6389 71.0182 41.3642 67.5248 41.3642C65.2514 41.3642 62.9272 41.073 60.5533 40.4933C59.8065 40.3124 59.1959 39.8865 58.7214 39.2143C58.2456 38.5435 58.0089 37.772 58.0089 36.9012C58.0089 36.2127 58.271 35.6861 58.7977 35.3228C59.3244 34.9609 59.8918 34.8697 60.5024 35.0507C62.7071 35.7038 64.7935 36.0303 66.7615 36.0303C69.8478 36.0303 71.3922 35.0507 71.3922 33.0913C71.3922 32.1484 71.0945 31.4041 70.5017 30.8598C69.9076 30.3155 68.8301 29.8257 67.2704 29.3903Z" fill="black"/>
<path d="M90.5781 40.3838L82.1308 15.4019C81.9273 14.6767 82.0112 14.014 82.3852 13.4154C82.758 12.8167 83.3012 12.5173 84.0136 12.5173H85.5402C86.3875 12.5173 87.1686 12.799 87.8811 13.3609C88.5935 13.9242 89.0514 14.64 89.255 15.5108L93.9875 33.3083C93.9875 33.3451 94.004 33.3628 94.0384 33.3628C94.0715 33.3628 94.0893 33.3451 94.0893 33.3083L99.5342 15.4564C99.8052 14.5855 100.297 13.878 101.01 13.3337C101.722 12.7894 102.502 12.5173 103.351 12.5173H104.572C105.284 12.5173 105.835 12.8262 106.226 13.4426C106.615 14.0603 106.675 14.7134 106.404 15.4019L93.9875 49.9085C93.6822 50.7793 93.1733 51.4774 92.4609 52.0039C91.7485 52.5292 90.9508 52.7931 90.0692 52.7931H88.8479C88.1686 52.7931 87.6342 52.4938 87.245 51.8951C86.8544 51.2964 86.7946 50.6514 87.0669 49.9629L90.5781 41.2547C90.6455 41.1091 90.6798 40.9648 90.6798 40.8192C90.6798 40.6736 90.6455 40.5294 90.5781 40.3838Z" fill="black"/>
<path d="M114.596 40.8194C113.815 40.8194 113.146 40.5119 112.586 39.8942C112.026 39.2778 111.746 38.5525 111.746 37.7171V4.46233C111.746 3.5915 112.017 2.81184 112.56 2.12198C113.102 1.43348 113.782 1.05249 114.596 0.979016C117.479 0.689194 120.261 0.543602 122.941 0.543602C128.03 0.543602 131.847 1.62397 134.391 3.782C136.935 5.94138 138.208 9.07092 138.208 13.1706C138.208 17.7057 136.977 21.136 134.518 23.4573C132.058 25.7799 128.419 26.9406 123.603 26.9406C122.483 26.9406 121.008 26.8685 119.176 26.7229C118.904 26.7229 118.769 26.8685 118.769 27.1583V37.7171C118.769 38.5525 118.48 39.2764 117.904 39.8942C117.326 40.5119 116.648 40.8194 115.868 40.8194H114.596ZM118.769 7.29252V20.4094C118.769 20.6638 118.904 20.8271 119.176 20.8992C120.465 21.0815 121.72 21.1714 122.941 21.1714C125.689 21.1714 127.783 20.5278 129.226 19.2392C130.667 17.952 131.389 16.1097 131.389 13.7149C131.389 8.88995 128.572 6.47612 122.941 6.47612C121.72 6.47612 120.465 6.56729 119.176 6.74826C118.904 6.82173 118.769 7.0027 118.769 7.29252Z" fill="black"/>
<path d="M147.621 6.53121C146.84 6.53121 146.162 6.2237 145.586 5.60596C145.008 4.98958 144.72 4.26434 144.72 3.42889V3.10233C144.72 2.26824 145.008 1.543 145.586 0.925255C146.162 0.308872 146.84 0 147.621 0H148.944C149.724 0 150.402 0.308872 150.98 0.925255C151.556 1.543 151.845 2.26824 151.845 3.10233V3.42889C151.845 4.26434 151.556 4.98958 150.98 5.60596C150.402 6.2237 149.724 6.53121 148.944 6.53121H147.621V6.53121ZM147.621 40.8201C146.84 40.8201 146.162 40.5126 145.586 39.8948C145.008 39.2785 144.72 38.5532 144.72 37.7178V15.6205C144.72 14.7864 145.008 14.0612 145.586 13.4434C146.162 12.827 146.84 12.5182 147.621 12.5182H148.944C149.724 12.5182 150.402 12.827 150.98 13.4434C151.556 14.0612 151.845 14.7864 151.845 15.6205V37.7178C151.845 38.5532 151.556 39.2771 150.98 39.8948C150.402 40.5126 149.724 40.8201 148.944 40.8201H147.621Z" fill="black"/>
<path d="M163.805 40.8201C163.024 40.8201 162.346 40.5126 161.769 39.8948C161.192 39.2785 160.904 38.5532 160.904 37.7178V3.10233C160.904 2.26824 161.192 1.543 161.769 0.925255C162.346 0.308872 163.024 0 163.805 0H165.128C165.908 0 166.586 0.308872 167.163 0.925255C167.74 1.543 168.028 2.26824 168.028 3.10233V37.7178C168.028 38.5532 167.74 39.2771 167.163 39.8948C166.586 40.5126 165.908 40.8201 165.128 40.8201H163.805V40.8201Z" fill="black"/>
<path d="M179.987 40.8201C179.206 40.8201 178.528 40.5126 177.951 39.8948C177.374 39.2785 177.086 38.5532 177.086 37.7178V3.10233C177.086 2.26824 177.374 1.543 177.951 0.925255C178.528 0.308872 179.206 0 179.987 0H181.31C182.09 0 182.768 0.308872 183.345 0.925255C183.922 1.543 184.211 2.26824 184.211 3.10233V37.7178C184.211 38.5532 183.922 39.2771 183.345 39.8948C182.768 40.5126 182.09 40.8201 181.31 40.8201H179.987V40.8201Z" fill="black"/>
</svg>
