<?xml version="1.0" encoding="utf-8"?>
<!-- Generator: Adobe Illustrator 24.0.0, SVG Export Plug-In . SVG Version: 6.00 Build 0)  -->
<svg version="1.1" id="Capa_1" xmlns="http://www.w3.org/2000/svg" xmlns:xlink="http://www.w3.org/1999/xlink" x="0px" y="0px"
	 viewBox="0 0 375 120" style="enable-background:new 0 0 375 120;" xml:space="preserve">
<style type="text/css">
	.st0{fill:#4F4797;stroke:#4F4797;stroke-width:3.8103;stroke-linecap:round;stroke-linejoin:round;}
	.st1{fill:none;stroke:#020203;stroke-width:4.1523;stroke-linecap:round;stroke-linejoin:round;stroke-miterlimit:10;}
	.st2{fill:#4F4797;}
	.st3{fill:#FFFFFF;}
	.st4{fill:none;stroke:#FFFFFF;stroke-width:1.0341;stroke-linecap:round;stroke-linejoin:round;stroke-miterlimit:10;}
	.st5{fill:none;stroke:#FFFFFF;stroke-width:1.5591;stroke-linecap:round;stroke-linejoin:round;stroke-miterlimit:10;}
	.st6{fill:#FFFFFF;stroke:#020203;stroke-width:0.4152;stroke-miterlimit:10;}
	.st7{fill:none;stroke:#020203;stroke-width:0.4152;stroke-linecap:round;stroke-linejoin:round;stroke-miterlimit:10;}
	.st8{fill:#020203;}
	.st9{fill:#FFFFFF;stroke:#020203;stroke-width:0.4152;stroke-linecap:round;stroke-linejoin:round;stroke-miterlimit:10;}
</style>
<g>
	<path class="st0" d="M38.8,111.4H334"/>
	<g>
		<g>
			<path class="st1" d="M67.2,74.2l6.2,14.9l5-2.4"/>
			<path class="st1" d="M46.4,90h-6.6l8.1-17.7"/>
			<path class="st2" d="M57.9,74.2C48,73.4,40.6,64.8,41.3,55l2.5-33.4C44.5,11.7,53.1,4.3,63,5c9.9,0.7,17.3,9.3,16.6,19.2
				l-2.5,33.4C76.4,67.5,67.8,74.9,57.9,74.2z"/>
			<path class="st1" d="M82.9,63.3l-8.1,0.3"/>
			<path class="st3" d="M42.5,38.3L41.3,55c-0.7,9.9,6.7,18.5,16.6,19.2c9.9,0.7,18.5-6.7,19.2-16.6l1.2-16.7L42.5,38.3z"/>
			<path class="st4" d="M57.9,74.2C48,73.4,40.6,64.8,41.3,55l2.5-33.4C44.5,11.7,53.1,4.3,63,5c9.9,0.7,17.3,9.3,16.6,19.2
				l-2.5,33.4C76.4,67.5,67.8,74.9,57.9,74.2z"/>
			<path class="st5" d="M50.8,31.4l0.7-8.8"/>
			<path class="st3" d="M51.7,19.9c0.7,0,1.2-0.6,1.2-1.2s-0.6-1.2-1.2-1.2s-1.2,0.6-1.2,1.2S51,19.9,51.7,19.9z"/>
			<path class="st1" d="M47.4,42.5c0,0-14.4,15.2,6.5,24.6"/>
			<path class="st6" d="M61.8,65c0,0,0.5-2.1-1.3-2.1c-1.9-0.1-4.7,1.1-5.7,4.3c-1,3.3,1.3,5.8,3.6,6.2c2.3,0.4,3-1.3,2.8-1.9
				c-0.2-0.6,2-1.3,1.5-3.1C62,66.6,63.9,66.7,61.8,65z"/>
			<path class="st7" d="M58.8,71.2c0.3,0.2,1.9,0.5,2.2,0.1"/>
			<path class="st7" d="M59.6,68.8c0.7,0.1,1,0,1.7-0.2c0.3-0.1,1-0.3,1.2-0.6"/>
			<path class="st7" d="M61.8,64.6c-0.3-0.2-0.9-0.6-1.2-0.3c-0.4,0.3,0.1,0.9,0.2,1.2"/>
			<path class="st7" d="M58.5,63.9c0,0,1.1,0.4,1.4,0.6c0.4,0.3,0.8,0.8,0.9,1.3"/>
			<path class="st3" d="M61.7,45.1c-0.1,1.6-1.2,2.9-2.6,2.8c-1.4-0.1-2.4-1.4-2.4-3l0.3-6.3c0.1-1.6,1.2-2.9,2.6-2.8
				c1.4,0.1,2.4,1.4,2.4,3L61.7,45.1z"/>
			<path class="st7" d="M61.7,45.1c-0.1,1.6-1.2,2.9-2.6,2.8c-1.4-0.1-2.4-1.4-2.4-3l0.3-6.3c0.1-1.6,1.2-2.9,2.6-2.8
				c1.4,0.1,2.4,1.4,2.4,3L61.7,45.1z"/>
			<path class="st8" d="M58.7,41.8l0.6-0.9l0-1.2c0-0.8-0.3-1.4-0.6-1.5s-0.7,0.6-0.8,1.4L57.9,44c0,0.8,0.3,1.4,0.6,1.5
				c0.4,0,0.7-0.6,0.8-1.4l0.1-1.6C59.1,42.2,58.7,41.8,58.7,41.8z"/>
			<path class="st3" d="M76.2,45.6c-0.1,1.6-1.2,2.9-2.6,2.8s-2.4-1.4-2.4-3l0.3-6.3c0.1-1.6,1.2-2.9,2.6-2.8c1.4,0.1,2.4,1.4,2.4,3
				L76.2,45.6z"/>
			<path class="st7" d="M76.2,45.6c-0.1,1.6-1.2,2.9-2.6,2.8s-2.4-1.4-2.4-3l0.3-6.3c0.1-1.6,1.2-2.9,2.6-2.8c1.4,0.1,2.4,1.4,2.4,3
				L76.2,45.6z"/>
			<path class="st8" d="M73.2,42.3l0.6-0.9l0-1.2c0-0.8-0.3-1.4-0.6-1.5c-0.4,0-0.7,0.6-0.8,1.4l-0.2,4.3c0,0.8,0.3,1.4,0.6,1.5
				c0.4,0,0.7-0.6,0.8-1.4l0.1-1.6C73.6,42.7,73.2,42.3,73.2,42.3z"/>
			<path class="st9" d="M93,62.5c1.4,2.4-1.3,2.5-1.1,3.1c0.2,0.6-0.6,2.4-2.9,2.6c-2.3,0.2-3.6-2-3.6-2s0.7,0.5-0.5,0.4
				c-2.3-0.3-2.8-3.2-2.9-5.2c-0.1-2,2-1.8,2-1.8s1-3.1,3.7-2.9c2.7,0.2,2.1,1.6,2.1,1.6s4-0.4,4,2C94,62.6,93,62.5,93,62.5z"/>
			<path class="st7" d="M86.7,59.1c-1.1,1.3,0.4,4.6,2.2,3.2c0.7-0.5,1.4-3.3,0.8-4.1"/>
			<path class="st7" d="M92,65.3c-0.9-0.9-3-1.7-4.2-1c-0.5,0.3-0.8,0.6-0.5,1.2c0.4,0.8,1.3,0.9,2.1,0.9"/>
			<path class="st7" d="M84.5,63.9c0.2,0.8,0.3,1.9,1.1,2.4"/>
		</g>
		<g>
			<path class="st2" d="M114.9,52.5h15.8c1,0,1.8-0.4,2.6-1.1c0.7-0.7,1.1-1.5,1.1-2.5c0-1-0.4-1.8-1.1-2.6
				c-0.7-0.7-1.6-1.1-2.6-1.1H109c-1,0-1.8,0.4-2.6,1.1c-0.7,0.7-1.1,1.6-1.1,2.6v39.3c0,1,0.4,1.8,1.1,2.6c0.7,0.7,1.6,1.1,2.6,1.1
				h21.7c1,0,1.8-0.4,2.6-1.1c0.7-0.7,1.1-1.6,1.1-2.6c0-1-0.4-1.8-1.1-2.5c-0.7-0.7-1.6-1.1-2.6-1.1h-15.8c-0.4,0-0.6-0.2-0.6-0.6
				V71.3c0-0.4,0.2-0.6,0.6-0.6h14.7c1,0,1.8-0.3,2.5-1c0.7-0.7,1-1.5,1-2.4c0-0.9-0.3-1.7-1-2.4c-0.7-0.7-1.5-1-2.5-1h-14.7
				c-0.4,0-0.6-0.2-0.6-0.6V53.1C114.3,52.7,114.5,52.5,114.9,52.5z"/>
			<path class="st2" d="M155.7,58.1c-2.8,0-5.9,0.4-9.1,1.1c-0.9,0.2-1.7,0.6-2.3,1.4c-0.6,0.8-0.9,1.7-0.9,2.6c0,0.8,0.3,1.5,1,1.9
				c0.6,0.5,1.3,0.6,2.1,0.4c3.6-0.9,6.6-1.3,9.1-1.3c2.4,0,4,0.4,5,1.2c0.9,0.8,1.4,2.2,1.4,4.1v0.5c0,0.4-0.2,0.6-0.6,0.6h-2.6
				c-5.8,0-10.1,1-13,3.1c-2.8,2-4.2,4.9-4.2,8.6c0,3,0.9,5.5,2.8,7.4c1.9,1.9,4.3,2.8,7.2,2.8c4.5,0,8.1-1.7,10.6-5.2
				c0,0,0-0.1,0.1-0.1c0,0,0.1,0,0.1,0.1v0.9c0,1,0.4,1.9,1.1,2.6c0.7,0.7,1.6,1.1,2.6,1.1h0.7c1,0,1.8-0.4,2.5-1.1
				c0.7-0.7,1.1-1.6,1.1-2.6v-17c0-4.9-1.1-8.3-3.3-10.3C165,59.1,161.2,58.1,155.7,58.1z M161.9,77.6c0,2.6-0.7,4.7-2.2,6.2
				c-1.5,1.5-3.4,2.3-5.9,2.3c-1.2,0-2.2-0.4-3-1.3c-0.8-0.8-1.2-2-1.2-3.3c0-3.7,3-5.6,9.1-5.6h2.6c0.4,0,0.6,0.2,0.6,0.6V77.6z"/>
			<path class="st2" d="M190.7,71.6c-1.7-0.4-3-0.9-3.7-1.6c-0.7-0.7-1.1-1.5-1.1-2.6c0-2.1,1.9-3.2,5.7-3.2c2.6,0,5.1,0.3,7.5,0.9
				c0.8,0.2,1.5,0.1,2.2-0.4c0.6-0.5,1-1.1,1-1.9c0-1-0.3-1.8-0.9-2.6c-0.6-0.7-1.3-1.2-2.3-1.4c-2.8-0.5-5.5-0.8-8.4-0.8
				c-4.5,0-7.8,0.9-10.1,2.6c-2.3,1.7-3.4,4.1-3.4,7.2c0,2.7,0.9,4.9,2.8,6.6c1.9,1.7,5.1,3,9.5,4c2,0.5,3.3,1.1,4,1.7
				c0.7,0.6,1.1,1.5,1.1,2.6c0,2.3-1.9,3.4-5.8,3.4c-2.5,0-5.1-0.4-7.8-1.1c-0.8-0.2-1.5-0.1-2.1,0.3c-0.7,0.4-1,1-1,1.8
				c0,1,0.3,1.9,0.9,2.7c0.6,0.8,1.4,1.3,2.3,1.5c3,0.7,5.9,1,8.7,1c4.4,0,7.7-0.8,10-2.6c2.3-1.7,3.4-4.1,3.4-7.1
				c0-3.2-0.9-5.6-2.7-7.3C198.9,73.9,195.6,72.6,190.7,71.6z"/>
			<path class="st2" d="M236.4,58.7h-1.5c-1.1,0-2,0.3-2.9,1c-0.9,0.6-1.5,1.5-1.8,2.5l-6.8,20.9c0,0,0,0.1-0.1,0.1
				c0,0-0.1,0-0.1-0.1l-5.9-20.8c-0.3-1-0.8-1.9-1.7-2.5c-0.9-0.7-1.9-1-2.9-1h-1.9c-0.9,0-1.6,0.4-2,1.1c-0.5,0.7-0.6,1.5-0.3,2.3
				l10.6,29.3c0.1,0.2,0.1,0.3,0.1,0.5c0,0.2,0,0.3-0.1,0.5l-4.4,10.2c-0.3,0.8-0.3,1.6,0.2,2.3c0.5,0.7,1.2,1.1,2,1.1h1.5
				c1.1,0,2.1-0.3,3-0.9c0.9-0.6,1.5-1.4,1.9-2.5l15.6-40.4c0.3-0.8,0.3-1.6-0.2-2.3C238,59.1,237.3,58.7,236.4,58.7z"/>
			<path class="st2" d="M273.8,48.5c-3.2-2.5-8-3.8-14.3-3.8c-3.4,0-6.8,0.2-10.5,0.5c-1,0.1-1.9,0.5-2.6,1.3c-0.7,0.8-1,1.7-1,2.7
				v39c0,1,0.4,1.8,1.1,2.6c0.7,0.7,1.5,1.1,2.5,1.1h1.6c1,0,1.8-0.4,2.5-1.1c0.7-0.7,1.1-1.6,1.1-2.6V75.9c0-0.3,0.2-0.5,0.5-0.5
				c2.3,0.2,4.1,0.3,5.5,0.3c6,0,10.6-1.4,13.7-4.1c3.1-2.7,4.6-6.7,4.6-12.1C278.5,54.7,276.9,51,273.8,48.5z M267.3,66.6
				c-1.8,1.5-4.4,2.3-7.9,2.3c-1.5,0-3.1-0.1-4.7-0.3c-0.3-0.1-0.5-0.3-0.5-0.6V52.6c0-0.3,0.2-0.6,0.5-0.6c1.6-0.2,3.2-0.3,4.7-0.3
				c7.1,0,10.6,2.8,10.6,8.5C270,62.9,269.1,65.1,267.3,66.6z"/>
			<path class="st2" d="M292,58.7h-1.7c-1,0-1.8,0.4-2.5,1.1c-0.7,0.7-1.1,1.6-1.1,2.6v25.9c0,1,0.4,1.8,1.1,2.6
				c0.7,0.7,1.6,1.1,2.5,1.1h1.7c1,0,1.8-0.4,2.5-1.1c0.7-0.7,1.1-1.6,1.1-2.6V62.3c0-1-0.4-1.8-1.1-2.6
				C293.8,59.1,293,58.7,292,58.7z"/>
			<path class="st2" d="M292,44h-1.7c-1,0-1.8,0.4-2.5,1.1c-0.7,0.7-1.1,1.6-1.1,2.6v0.4c0,1,0.4,1.8,1.1,2.6
				c0.7,0.7,1.6,1.1,2.5,1.1h1.7c1,0,1.8-0.4,2.5-1.1c0.7-0.7,1.1-1.6,1.1-2.6v-0.4c0-1-0.4-1.8-1.1-2.6C293.8,44.4,293,44,292,44z"
				/>
			<path class="st2" d="M312.3,44h-1.7c-1,0-1.8,0.4-2.6,1.1c-0.7,0.7-1.1,1.6-1.1,2.6v40.5c0,1,0.4,1.8,1.1,2.6
				c0.7,0.7,1.6,1.1,2.6,1.1h1.7c1,0,1.8-0.4,2.5-1.1c0.7-0.7,1.1-1.6,1.1-2.6V47.7c0-1-0.4-1.8-1.1-2.6
				C314.1,44.4,313.2,44,312.3,44z"/>
			<path class="st2" d="M335.1,45.1c-0.7-0.7-1.6-1.1-2.5-1.1h-1.7c-1,0-1.8,0.4-2.5,1.1c-0.7,0.7-1.1,1.6-1.1,2.6v40.5
				c0,1,0.4,1.8,1.1,2.6c0.7,0.7,1.6,1.1,2.5,1.1h1.7c1,0,1.8-0.4,2.5-1.1c0.7-0.7,1.1-1.6,1.1-2.6V47.7
				C336.2,46.7,335.8,45.9,335.1,45.1z"/>
		</g>
	</g>
</g>
</svg>
