<?xml version="1.0" encoding="utf-8"?>
<!-- Generator: Adobe Illustrator 24.0.0, SVG Export Plug-In . SVG Version: 6.00 Build 0)  -->
<svg version="1.1" id="Capa_1" xmlns="http://www.w3.org/2000/svg" xmlns:xlink="http://www.w3.org/1999/xlink" x="0px" y="0px"
	 viewBox="0 0 512 512" style="enable-background:new 0 0 512 512;" xml:space="preserve">
<style type="text/css">
	.st0{fill:#6F00FF;}
</style>
<g>
	<g>
		<path class="st0" d="M125.7,126c-5.5,0-10,4.5-10,10s4.5,10,10,10s10-4.5,10-10S131.2,126,125.7,126z"/>
	</g>
</g>
<g>
	<g>
		<path class="st0" d="M215.7,313h-30v-30c0-5.5-4.5-10-10-10s-10,4.5-10,10v30h-30c-5.5,0-10,4.5-10,10s4.5,10,10,10h30v30
			c0,5.5,4.5,10,10,10s10-4.5,10-10v-30h30c5.5,0,10-4.5,10-10S221.2,313,215.7,313z"/>
	</g>
</g>
<g>
	<g>
		<path class="st0" d="M485.6,322c-22.1-38.3-71-51.4-109.3-29.3l-40.6,23.5v-86.8c0-10.7-3.5-21.4-10-30l-50-66.7v-28.4
			c11.6-4.1,20-15.2,20-28.3V30c0-16.5-13.5-30-30-30h-180c-16.5,0-30,13.5-30,30v46c0,13,8.4,24.2,20,28.3v28.4l-50,66.7
			c-6.4,8.6-10,19.3-10,30V423c0,27.6,22.4,50,50,50h160.7c22.4,37.6,70.8,50.2,108.7,28.3l121.2-70
			C494.3,409.3,507.8,360.5,485.6,322z M75.7,30c0-5.5,4.5-10,10-10h180c5.5,0,10,4.5,10,10v46c0,5.5-4.5,10-10,10h-180
			c-5.5,0-10-4.5-10-10L75.7,30L75.7,30z M41.7,211.3l52-69.3c1.3-1.7,2-3.8,2-6v-30h160v20h-90c-5.5,0-10,4.5-10,10s4.5,10,10,10
			h95l49,65.3c3.2,4.3,5.2,9.4,5.8,14.7H35.9C36.5,220.7,38.5,215.6,41.7,211.3z M65.7,453c-16.5,0-30-13.5-30-30v-10.1h181.7
			c-3.2,13-3.1,26.8,0.5,40.1H65.7L65.7,453z M225.2,393H35.7V246h280v81.7l-60.6,35C242.4,370,232.2,380.4,225.2,393z M325.1,483.9
			c-28.7,16.6-65.4,6.8-81.9-21.9c-16.7-29-6.6-65.5,22-82l54.3-31.3l60,103.9L325.1,483.9z M446.3,413.9l-49.6,28.7l-60-103.9
			l49.6-28.7c28.7-16.6,65.4-6.8,82,22S474.8,397.5,446.3,413.9z"/>
	</g>
</g>
</svg>
