<svg width="375" height="84" viewBox="0 0 375 84" fill="none" xmlns="http://www.w3.org/2000/svg">
<path fill-rule="evenodd" clip-rule="evenodd" d="M244 25C231.297 25 221.464 36.4459 213.305 46.1822C207.252 53.4063 198.162 58 188 58C177.838 58 168.748 53.4063 162.695 46.1822C154.536 36.4459 144.703 25 132 25H10C4.47715 25 0 29.4772 0 35V74C0 79.5228 4.47714 84 9.99999 84H365C370.523 84 375 79.5228 375 74V35C375 29.4772 370.523 25 365 25H244Z" fill="#F5F1FB"/>
<g filter="url(#filter0_d)">
<path d="M188 50C201.807 50 213 38.8071 213 25C213 11.1929 201.807 0 188 0C174.193 0 163 11.1929 163 25C163 38.8071 174.193 50 188 50Z" fill="#6C63FF"/>
<path d="M188 11.272V38.7284" stroke="white" stroke-width="2" stroke-miterlimit="10" stroke-linecap="round" stroke-linejoin="round"/>
<path d="M174.272 25H201.728" stroke="white" stroke-width="2" stroke-miterlimit="10" stroke-linecap="round" stroke-linejoin="round"/>
</g>
<path d="M39 52.2864L53.8557 42L68.7752 52.2864" fill="#6F00FF"/>
<path d="M39 52.2864L53.8557 42L68.7752 52.2864" stroke="#E7D8FB" stroke-opacity="0.7" stroke-width="1.5" stroke-miterlimit="10" stroke-linecap="round" stroke-linejoin="round"/>
<path d="M43.7183 52.2864V67H51.4331V60.9453H56.3744V67H64.2486V52.2864" fill="#6F00FF"/>
<path d="M43.7183 52.2864V67H51.4331V60.9453H56.3744V67H64.2486V52.2864" stroke="#E7D8FB" stroke-opacity="0.7" stroke-width="1.5" stroke-miterlimit="10" stroke-linecap="round" stroke-linejoin="round"/>
<path d="M105.601 65.1609C102.616 62.4736 102.33 57.8247 104.962 54.7774L113.846 44.491C116.477 41.4437 121.03 41.1518 124.015 43.8391C126.999 46.5264 127.285 51.1753 124.653 54.2226L115.77 64.509C113.138 67.5563 108.585 67.8482 105.601 65.1609Z" stroke="#6F00FF" stroke-width="1.5" stroke-miterlimit="10" stroke-linecap="round" stroke-linejoin="round"/>
<path d="M109.404 49.6343L104.962 54.7774C102.33 57.8247 102.616 62.4737 105.601 65.161C108.585 67.8483 113.138 67.5563 115.77 64.5091L120.211 59.3659L109.404 49.6343Z" stroke="#6F00FF" stroke-width="1.5" stroke-miterlimit="10" stroke-linecap="round" stroke-linejoin="round"/>
<path d="M113.693 49.4331L116.041 46.7141" stroke="#6F00FF" stroke-width="1.5" stroke-miterlimit="10" stroke-linecap="round" stroke-linejoin="round"/>
<path d="M117.587 46.0317C118.141 46.0317 118.59 45.5738 118.59 45.009C118.59 44.4442 118.141 43.9863 117.587 43.9863C117.033 43.9863 116.583 44.4442 116.583 45.009C116.583 45.5738 117.033 46.0317 117.587 46.0317Z" fill="#6F00FF"/>
<path d="M247.984 53.0378H257.45" stroke="#6F00FF" stroke-width="1.5" stroke-miterlimit="10" stroke-linecap="round" stroke-linejoin="round"/>
<path d="M247.984 56.2815H257.45" stroke="#6F00FF" stroke-width="1.5" stroke-miterlimit="10" stroke-linecap="round" stroke-linejoin="round"/>
<path d="M247.984 59.5249H257.45" stroke="#6F00FF" stroke-width="1.5" stroke-miterlimit="10" stroke-linecap="round" stroke-linejoin="round"/>
<path d="M247.984 62.7686H254.147" stroke="#6F00FF" stroke-width="1.5" stroke-miterlimit="10" stroke-linecap="round" stroke-linejoin="round"/>
<path d="M262.04 48.3776L255.576 42" stroke="#6F00FF" stroke-width="1.5" stroke-miterlimit="10" stroke-linecap="round" stroke-linejoin="round"/>
<path d="M255.576 42H245.362C244.562 42 243.907 42.6683 243.907 43.4852V65.5148C243.907 66.3317 244.562 67 245.362 67H260.586C261.386 67 262.04 66.3317 262.04 65.5148V48.3776H255.576V42Z" stroke="#6F00FF" stroke-width="1.5" stroke-miterlimit="10" stroke-linecap="round" stroke-linejoin="round"/>
<path d="M326.977 43.1637L326.839 42.8872H326.53H320.455H320.146L320.008 43.1637C319.9 43.3789 319.83 43.7114 319.83 44.0885V49.463C319.77 49.4537 319.708 49.4489 319.645 49.4489H319.428V44.0918C319.436 43.5429 319.561 43.1195 319.732 42.8504C319.899 42.5876 320.084 42.5 320.252 42.5H326.732C326.91 42.5 327.093 42.5892 327.254 42.8482C327.42 43.117 327.541 43.5438 327.541 44.1041V49.4177H327.355C327.287 49.4177 327.22 49.4234 327.154 49.4343V44.0885C327.154 43.7114 327.084 43.3789 326.977 43.1637ZM319.645 50.4489C319.73 50.4489 319.8 50.4981 319.83 50.5706V50.6347C319.83 50.7485 319.742 50.836 319.629 50.836C319.516 50.836 319.428 50.7485 319.428 50.6347V50.4489H319.645ZM318.428 50.4489V50.6347C318.428 50.7088 318.435 50.7813 318.448 50.8516H313.103C312.726 50.8516 312.393 50.9215 312.178 51.0291L311.902 51.1674V51.4763V57.5549V57.8638L312.178 58.002C312.393 58.1097 312.726 58.1796 313.103 58.1796H318.456C318.448 58.2351 318.444 58.292 318.444 58.3498V58.5511H313.103C312.543 58.5511 312.117 58.431 311.848 58.2641C311.589 58.1034 311.5 57.9207 311.5 57.7419V51.2581C311.5 51.0793 311.589 50.8966 311.848 50.7359C312.117 50.569 312.543 50.4489 313.103 50.4489H318.428ZM327.355 50.4177H327.541V50.6502C327.541 50.7236 327.491 50.791 327.426 50.8204H327.355C327.242 50.8204 327.154 50.7329 327.154 50.6191C327.154 50.5053 327.242 50.4177 327.355 50.4177ZM328.528 50.8204C328.536 50.7648 328.541 50.708 328.541 50.6502V50.4177H333.897C334.446 50.4177 334.873 50.5403 335.146 50.7102C335.412 50.8765 335.5 51.0613 335.5 51.2269V57.7361C335.495 57.9182 335.399 58.1034 335.14 58.2641C334.871 58.4315 334.448 58.5511 333.897 58.5511H328.572V58.3498C328.572 58.2811 328.566 58.2138 328.555 58.1484H333.897C334.274 58.1484 334.607 58.0785 334.822 57.9708L335.098 57.8326V57.5237V51.4451V51.1362L334.822 50.998C334.607 50.8903 334.274 50.8204 333.897 50.8204H328.528ZM319.846 58.38V58.3818C319.846 58.4291 319.828 58.4656 319.796 58.4951C319.761 58.5274 319.707 58.5511 319.645 58.5511H319.444V58.3498C319.444 58.2769 319.48 58.2148 319.536 58.1796H319.645C319.758 58.1796 319.845 58.2666 319.846 58.38ZM319.444 59.5511H319.645C319.712 59.5511 319.78 59.5454 319.846 59.5344V64.8959C319.846 65.273 319.916 65.6055 320.023 65.8208L320.161 66.0973H320.47H326.545H326.854L326.992 65.8208C327.1 65.6055 327.17 65.273 327.17 64.8959V59.537C327.23 59.5463 327.292 59.5511 327.355 59.5511H327.572V64.8895C327.557 65.4499 327.43 65.8778 327.259 66.1486C327.094 66.4109 326.91 66.5 326.732 66.5H320.252C320.074 66.5 319.892 66.4108 319.731 66.1518C319.564 65.883 319.444 65.4562 319.444 64.8959V59.5511ZM327.572 58.3498V58.5511H327.355C327.27 58.5511 327.2 58.5019 327.17 58.4294V58.3498C327.17 58.2359 327.258 58.1484 327.371 58.1484C327.484 58.1484 327.572 58.236 327.572 58.3498Z" stroke="#6F00FF"/>
<defs>
<filter id="filter0_d" x="159" y="0" width="58" height="58" filterUnits="userSpaceOnUse" color-interpolation-filters="sRGB">
<feFlood flood-opacity="0" result="BackgroundImageFix"/>
<feColorMatrix in="SourceAlpha" type="matrix" values="0 0 0 0 0 0 0 0 0 0 0 0 0 0 0 0 0 0 127 0" result="hardAlpha"/>
<feOffset dy="4"/>
<feGaussianBlur stdDeviation="2"/>
<feComposite in2="hardAlpha" operator="out"/>
<feColorMatrix type="matrix" values="0 0 0 0 0 0 0 0 0 0 0 0 0 0 0 0 0 0 0.25 0"/>
<feBlend mode="normal" in2="BackgroundImageFix" result="effect1_dropShadow"/>
<feBlend mode="normal" in="SourceGraphic" in2="effect1_dropShadow" result="shape"/>
</filter>
</defs>
</svg>
