<?xml version="1.0" encoding="utf-8"?>
<!-- Generator: Adobe Illustrator 17.0.0, SVG Export Plug-In . SVG Version: 6.00 Build 0)  -->
<!DOCTYPE svg PUBLIC "-//W3C//DTD SVG 1.1//EN" "http://www.w3.org/Graphics/SVG/1.1/DTD/svg11.dtd">
<svg version="1.1" id="Capa_1" xmlns="http://www.w3.org/2000/svg" xmlns:xlink="http://www.w3.org/1999/xlink" x="0px" y="0px"
	 width="360px" height="714.104px" viewBox="0 0 360 714.104" enable-background="new 0 0 360 714.104" xml:space="preserve">
<g opacity="0.4">
	<path fill="#725EF2" d="M290.177,376.096c-7.088,5.91-11.816,14.68-12.321,24.708c-0.95,18.906,13.389,35.014,32.029,35.978
		c10.52,0.544,20.159-3.856,26.733-11.188C313.432,418.837,295.653,399.756,290.177,376.096z"/>
	<path fill="#725EF2" d="M313.328,368.317c-8.754-0.452-16.874,2.546-23.15,7.779c5.476,23.66,23.254,42.741,46.441,49.498
		c5.073-5.659,8.324-13.063,8.737-21.298C346.307,385.39,331.967,369.282,313.328,368.317z"/>
	
		<linearGradient id="SVGID_1_" gradientUnits="userSpaceOnUse" x1="330.178" y1="187.171" x2="385.4008" y2="187.171" gradientTransform="matrix(1 0 0 -1 -40 584.104)">
		<stop  offset="0" style="stop-color:#745DDD"/>
		<stop  offset="1" style="stop-color:#845DDD"/>
	</linearGradient>
	<path fill="url(#SVGID_1_)" d="M313.328,368.317c-8.754-0.452-16.874,2.546-23.15,7.779c5.476,23.66,23.254,42.741,46.441,49.498
		c5.073-5.659,8.324-13.063,8.737-21.298C346.307,385.39,331.967,369.282,313.328,368.317z"/>
</g>
<g opacity="0.4">
	
		<linearGradient id="SVGID_2_" gradientUnits="userSpaceOnUse" x1="266.32" y1="-104.5429" x2="433.324" y2="-104.5429" gradientTransform="matrix(1 0 0 -1 -40 584.104)">
		<stop  offset="0" style="stop-color:#745DDD"/>
		<stop  offset="1" style="stop-color:#5D00FF"/>
	</linearGradient>
	<path opacity="0.5" fill="url(#SVGID_2_)" enable-background="new    " d="M309.822,773.344c46.117,0,83.502-37.92,83.502-84.697
		c0-46.777-37.385-84.697-83.502-84.697s-83.502,37.92-83.502,84.697C226.32,735.424,263.705,773.344,309.822,773.344z"/>
	
		<linearGradient id="SVGID_3_" gradientUnits="userSpaceOnUse" x1="359.24" y1="-49.2779" x2="443.88" y2="-49.2779" gradientTransform="matrix(1 0 0 -1 -40 584.104)">
		<stop  offset="0" style="stop-color:#745DDD"/>
		<stop  offset="1" style="stop-color:#4527AF"/>
	</linearGradient>
	<path opacity="0.5" fill="url(#SVGID_3_)" enable-background="new    " d="M361.56,676.307c23.372,0,42.32-19.218,42.32-42.925
		c0-23.707-18.948-42.925-42.32-42.925c-23.373,0-42.32,19.218-42.32,42.925C319.24,657.089,338.187,676.307,361.56,676.307z"/>
	
		<linearGradient id="SVGID_4_" gradientUnits="userSpaceOnUse" x1="359.241" y1="-57.1394" x2="430.024" y2="-57.1394" gradientTransform="matrix(1 0 0 -1 -40 584.104)">
		<stop  offset="0" style="stop-color:#745DDD"/>
		<stop  offset="1" style="stop-color:#5D00FF"/>
	</linearGradient>
	<path opacity="0.5" fill="url(#SVGID_4_)" enable-background="new    " d="M328.83,606.18c-5.99,7.406-9.589,16.876-9.589,27.203
		c0,23.707,18.947,42.924,42.319,42.924c10.977,0,20.944-4.274,28.464-11.226C381.688,635.845,358.252,613.13,328.83,606.18z"/>
</g>
<g opacity="0.6">
	<path opacity="0.6" fill="#AE84FD" enable-background="new    " d="M138.15,380.609c1.394,0,2.524-1.146,2.524-2.56
		s-1.13-2.561-2.524-2.561c-1.394,0-2.524,1.147-2.524,2.561S136.756,380.609,138.15,380.609z"/>
	<path opacity="0.6" fill="#AE84FD" enable-background="new    " d="M170.795,285.125c1.394,0,2.524-1.146,2.524-2.561
		c0-1.414-1.13-2.561-2.524-2.561s-2.524,1.146-2.524,2.561C168.271,283.979,169.401,285.125,170.795,285.125z"/>
	<path opacity="0.6" fill="#AE84FD" enable-background="new    " d="M189.673,378.485c1.631,0,2.954-1.341,2.954-2.996
		c0-1.654-1.323-2.996-2.954-2.996s-2.954,1.342-2.954,2.996C186.719,377.144,188.042,378.485,189.673,378.485z"/>
	<g opacity="0.6">
		<path opacity="0.6" fill="#AE84FD" enable-background="new    " d="M198.786,567.006c4.119,0,7.458-3.387,7.458-7.565
			c0-4.178-3.339-7.565-7.458-7.565c-4.119,0-7.459,3.387-7.459,7.565C191.327,563.619,194.667,567.006,198.786,567.006z"/>
		<path opacity="0.6" fill="#AE84FD" enable-background="new    " d="M88.811,577.764c3.393,0,6.144-2.79,6.144-6.232
			c0-3.441-2.751-6.231-6.144-6.231c-3.393,0-6.144,2.79-6.144,6.231C82.668,574.974,85.418,577.764,88.811,577.764z"/>
	</g>
	<path opacity="0.6" fill="#AE84FD" enable-background="new    " d="M122.276,417.554c2.382,0,4.314-1.959,4.314-4.376
		c0-2.416-1.931-4.375-4.314-4.375c-2.382,0-4.314,1.959-4.314,4.375C117.962,415.595,119.893,417.554,122.276,417.554z"/>
	<path opacity="0.6" fill="#AE84FD" enable-background="new    " d="M153.481,477.004c3.248,0,5.88-2.67,5.88-5.965
		c0-3.294-2.633-5.965-5.88-5.965c-3.248,0-5.881,2.671-5.881,5.965C147.6,474.334,150.233,477.004,153.481,477.004z"/>
	<path opacity="0.6" fill="#AE84FD" enable-background="new    " d="M229.476,492.725c2.621,0,4.746-2.209,4.746-4.934
		c0-2.725-2.125-4.934-4.746-4.934c-2.622,0-4.747,2.209-4.747,4.934C224.729,490.516,226.854,492.725,229.476,492.725z"/>
	<path opacity="0.6" fill="#AE84FD" enable-background="new    " d="M128.653,589.193c1.277,0,2.312-1.075,2.312-2.402
		s-1.035-2.403-2.312-2.403c-1.277,0-2.312,1.076-2.312,2.403S127.376,589.193,128.653,589.193z"/>
	<path opacity="0.6" fill="#AE84FD" enable-background="new    " d="M162.655,405.677c2.969,0,5.375-2.441,5.375-5.452
		s-2.406-5.451-5.375-5.451c-2.969,0-5.375,2.44-5.375,5.451S159.686,405.677,162.655,405.677z"/>
</g>
<path opacity="0.48" fill="#AE84FD" enable-background="new    " d="M159.076,642.616c5.012,0,9.075-4.12,9.075-9.204
	c0-5.083-4.063-9.204-9.075-9.204c-5.011,0-9.074,4.121-9.074,9.204C150.002,638.496,154.065,642.616,159.076,642.616z"/>
<path opacity="0.6" fill="#F9E8FC" enable-background="new    " d="M62.051,441.167c52.043,0,94.232-42.793,94.232-95.582
	c0-52.788-42.189-95.581-94.232-95.581s-94.233,42.793-94.233,95.581C-32.181,398.374,10.008,441.167,62.051,441.167z"/>
<path fill="#F9E8FC" d="M117.622,452.745c28.418,0,51.454-23.366,51.454-52.191c0-28.824-23.037-52.191-51.454-52.191
	s-51.454,23.367-51.454,52.191C66.167,429.379,89.204,452.745,117.622,452.745z"/>
</svg>
