<svg width="724" height="26" viewBox="0 0 724 26" fill="none" xmlns="http://www.w3.org/2000/svg">
<rect x="0.375" y="16.125" width="5.875" height="7.75" rx="1" fill="white"/>
<rect x="9.25" y="12" width="5.875" height="11.875" rx="1" fill="white"/>
<rect x="18.125" y="7.125" width="5.875" height="16.75" rx="1" fill="white"/>
<rect x="27" y="3" width="5.875" height="20.875" rx="1" fill="white"/>
<path d="M57.002 16.1162C57.002 18.8669 56.5322 20.9108 55.5928 22.248C54.6533 23.5853 53.1849 24.2539 51.1875 24.2539C49.2155 24.2539 47.7555 23.6022 46.8076 22.2988C45.8597 20.987 45.3688 19.0319 45.335 16.4336V13.2979C45.335 10.5811 45.8047 8.5625 46.7441 7.24219C47.6836 5.92188 49.1562 5.26172 51.1621 5.26172C53.151 5.26172 54.6152 5.90072 55.5547 7.17871C56.4941 8.44824 56.9766 10.4118 57.002 13.0693V16.1162ZM54.6533 12.9043C54.6533 10.9154 54.374 9.4681 53.8154 8.5625C53.2568 7.64844 52.3724 7.19141 51.1621 7.19141C49.9603 7.19141 49.0843 7.64421 48.5342 8.5498C47.984 9.4554 47.7005 10.8477 47.6836 12.7266V16.4844C47.6836 18.4818 47.9714 19.9587 48.5469 20.915C49.1309 21.863 50.0111 22.3369 51.1875 22.3369C52.347 22.3369 53.2061 21.8883 53.7646 20.9912C54.3317 20.0941 54.6279 18.6807 54.6533 16.751V12.9043ZM72.1221 24H60.0107V22.3115L66.4092 15.2021C67.3571 14.1273 68.0088 13.2555 68.3643 12.5869C68.7282 11.9098 68.9102 11.2116 68.9102 10.4922C68.9102 9.52734 68.6182 8.736 68.0342 8.11816C67.4502 7.50033 66.6715 7.19141 65.6982 7.19141C64.5303 7.19141 63.6204 7.52572 62.9688 8.19434C62.3255 8.85449 62.0039 9.77702 62.0039 10.9619H59.6553C59.6553 9.26074 60.2012 7.88542 61.293 6.83594C62.3932 5.78646 63.8617 5.26172 65.6982 5.26172C67.4163 5.26172 68.7747 5.71452 69.7734 6.62012C70.7721 7.51725 71.2715 8.71484 71.2715 10.2129C71.2715 12.0326 70.112 14.1992 67.793 16.7129L62.8418 22.083H72.1221V24Z" fill="white"/>
<path d="M101.826 17.792H104.391V19.709H101.826V24H99.4648V19.709H91.0479V18.3252L99.3252 5.51562H101.826V17.792ZM93.7139 17.792H99.4648V8.72754L99.1855 9.23535L93.7139 17.792ZM120.768 21.5752C120.141 22.4723 119.265 23.1452 118.14 23.5938C117.022 24.0339 115.719 24.2539 114.229 24.2539C112.723 24.2539 111.386 23.9027 110.218 23.2002C109.05 22.4893 108.144 21.4821 107.501 20.1787C106.866 18.8753 106.54 17.3646 106.523 15.6465V14.0342C106.523 11.2497 107.171 9.09147 108.466 7.55957C109.769 6.02767 111.597 5.26172 113.95 5.26172C115.88 5.26172 117.433 5.75684 118.609 6.74707C119.786 7.72884 120.505 9.12533 120.768 10.9365H118.33C117.873 8.49056 116.417 7.26758 113.963 7.26758C112.329 7.26758 111.09 7.8431 110.243 8.99414C109.405 10.1367 108.982 11.7956 108.974 13.9707V15.4814C108.974 17.555 109.448 19.2054 110.396 20.4326C111.343 21.6514 112.626 22.2607 114.242 22.2607C115.156 22.2607 115.956 22.1592 116.642 21.9561C117.327 21.7529 117.894 21.4102 118.343 20.9277V16.7764H114.064V14.7959H120.768V21.5752Z" fill="white"/>
<path d="M611.755 24H609.394V8.34668L604.658 10.0859V7.95312L611.387 5.42676H611.755V24ZM630.227 16.1162C630.227 18.8669 629.757 20.9108 628.817 22.248C627.878 23.5853 626.41 24.2539 624.412 24.2539C622.44 24.2539 620.98 23.6022 620.032 22.2988C619.084 20.987 618.593 19.0319 618.56 16.4336V13.2979C618.56 10.5811 619.029 8.5625 619.969 7.24219C620.908 5.92188 622.381 5.26172 624.387 5.26172C626.376 5.26172 627.84 5.90072 628.779 7.17871C629.719 8.44824 630.201 10.4118 630.227 13.0693V16.1162ZM627.878 12.9043C627.878 10.9154 627.599 9.4681 627.04 8.5625C626.481 7.64844 625.597 7.19141 624.387 7.19141C623.185 7.19141 622.309 7.64421 621.759 8.5498C621.209 9.4554 620.925 10.8477 620.908 12.7266V16.4844C620.908 18.4818 621.196 19.9587 621.771 20.915C622.355 21.863 623.236 22.3369 624.412 22.3369C625.572 22.3369 626.431 21.8883 626.989 20.9912C627.556 20.0941 627.853 18.6807 627.878 16.751V12.9043ZM644.826 16.1162C644.826 18.8669 644.356 20.9108 643.417 22.248C642.478 23.5853 641.009 24.2539 639.012 24.2539C637.04 24.2539 635.58 23.6022 634.632 22.2988C633.684 20.987 633.193 19.0319 633.159 16.4336V13.2979C633.159 10.5811 633.629 8.5625 634.568 7.24219C635.508 5.92188 636.98 5.26172 638.986 5.26172C640.975 5.26172 642.439 5.90072 643.379 7.17871C644.318 8.44824 644.801 10.4118 644.826 13.0693V16.1162ZM642.478 12.9043C642.478 10.9154 642.198 9.4681 641.64 8.5625C641.081 7.64844 640.197 7.19141 638.986 7.19141C637.785 7.19141 636.909 7.64421 636.358 8.5498C635.808 9.4554 635.525 10.8477 635.508 12.7266V16.4844C635.508 18.4818 635.796 19.9587 636.371 20.915C636.955 21.863 637.835 22.3369 639.012 22.3369C640.171 22.3369 641.03 21.8883 641.589 20.9912C642.156 20.0941 642.452 18.6807 642.478 16.751V12.9043ZM654.081 9.07031C654.081 7.96159 654.432 7.04753 655.135 6.32812C655.846 5.60872 656.756 5.24902 657.864 5.24902C658.99 5.24902 659.9 5.61296 660.594 6.34082C661.296 7.06022 661.647 7.99544 661.647 9.14648V10.0479C661.647 11.165 661.292 12.0791 660.581 12.79C659.879 13.4925 658.981 13.8438 657.89 13.8438C656.789 13.8438 655.88 13.4925 655.16 12.79C654.441 12.0791 654.081 11.1354 654.081 9.95898V9.07031ZM655.833 10.0479C655.833 10.708 656.019 11.2539 656.392 11.6855C656.764 12.1087 657.263 12.3203 657.89 12.3203C658.491 12.3203 658.973 12.113 659.337 11.6982C659.709 11.2835 659.896 10.7165 659.896 9.99707V9.07031C659.896 8.41016 659.714 7.86426 659.35 7.43262C658.986 7.00098 658.491 6.78516 657.864 6.78516C657.238 6.78516 656.743 7.00098 656.379 7.43262C656.015 7.86426 655.833 8.42708 655.833 9.12109V10.0479ZM663.082 19.4678C663.082 18.359 663.433 17.4492 664.136 16.7383C664.847 16.0189 665.757 15.6592 666.865 15.6592C667.974 15.6592 668.884 16.0146 669.595 16.7256C670.306 17.4365 670.661 18.3802 670.661 19.5566V20.458C670.661 21.5667 670.306 22.4808 669.595 23.2002C668.892 23.9111 667.991 24.2666 666.891 24.2666C665.79 24.2666 664.881 23.9154 664.161 23.2129C663.442 22.502 663.082 21.5583 663.082 20.3818V19.4678ZM664.834 20.458C664.834 21.1266 665.02 21.6768 665.393 22.1084C665.765 22.5316 666.264 22.7432 666.891 22.7432C667.5 22.7432 667.987 22.5358 668.351 22.1211C668.715 21.6979 668.896 21.1266 668.896 20.4072V19.4678C668.896 18.7992 668.71 18.2533 668.338 17.8301C667.974 17.4069 667.483 17.1953 666.865 17.1953C666.264 17.1953 665.773 17.4069 665.393 17.8301C665.02 18.2448 664.834 18.8076 664.834 19.5186V20.458ZM658.423 22.6035L657.09 21.7656L666.116 7.31836L667.449 8.15625L658.423 22.6035Z" fill="white"/>
<rect x="679.5" y="3.75" width="42.75" height="20.75" rx="3.75" stroke="white" stroke-width="2.5"/>
<rect x="682.5" y="6.25" width="7.375" height="14.625" rx="3" fill="white"/>
<rect x="692.375" y="6.25" width="7.375" height="14.625" rx="3" fill="white"/>
<rect x="702.25" y="6.25" width="7.375" height="14.625" rx="3" fill="white"/>
<rect x="711.125" y="6.25" width="7.375" height="14.625" rx="3" fill="white"/>
</svg>
