<?xml version="1.0" encoding="utf-8"?>
<!-- Generator: Adobe Illustrator 17.0.0, SVG Export Plug-In . SVG Version: 6.00 Build 0)  -->
<!DOCTYPE svg PUBLIC "-//W3C//DTD SVG 1.1//EN" "http://www.w3.org/Graphics/SVG/1.1/DTD/svg11.dtd">
<svg version="1.1" id="Capa_1" xmlns="http://www.w3.org/2000/svg" xmlns:xlink="http://www.w3.org/1999/xlink" x="0px" y="0px"
	 width="33.717px" height="33px" viewBox="-1.051 0 33.717 33" enable-background="new -1.051 0 33.717 33" xml:space="preserve">
<g>
	<circle fill="#6F00FF" cx="15.807" cy="225.057" r="16.462"/>
	<path fill="#FFFFFF" d="M12.419,229.894v-7.82H9.82v7.82H12.419L12.419,229.894z M11.12,221.007c0.906,0,1.47-0.601,1.47-1.351
		c-0.017-0.767-0.564-1.351-1.453-1.351c-0.89,0-1.471,0.584-1.471,1.351c0,0.75,0.564,1.351,1.436,1.351H11.12L11.12,221.007z
		 M13.858,229.894h2.599v-4.366c0-0.233,0.017-0.467,0.086-0.634c0.188-0.467,0.615-0.951,1.334-0.951
		c0.94,0,1.317,0.717,1.317,1.768v4.183h2.599v-4.484c0-2.402-1.282-3.519-2.992-3.519c-1.402,0-2.018,0.784-2.36,1.317h0.017
		v-1.134h-2.599C13.892,222.808,13.858,229.894,13.858,229.894L13.858,229.894z"/>
</g>
<g>
	<circle fill="#FFFFFF" cx="15.807" cy="16.5" r="16.462"/>
	<g>
		<g>
			<g>
				<path fill="#6F00FF" d="M16.028,17.578c-0.122,0.107-0.321,0.107-0.442,0l-6.252-5.491c-0.122-0.107-0.089-0.194,0.073-0.194
					h12.801c0.162,0,0.195,0.087,0.073,0.194L16.028,17.578z"/>
			</g>
			<g>
				<path fill="#6F00FF" d="M12.919,16.304c0.122,0.107,0.122,0.282,0,0.388L8.67,20.424c-0.122,0.107-0.221,0.062-0.221-0.1v-7.652
					c0-0.162,0.1-0.207,0.221-0.1L12.919,16.304z"/>
			</g>
			<g>
				<path fill="#6F00FF" d="M13.527,17.226c0.122-0.107,0.321-0.107,0.442,0l1.616,1.419c0.122,0.107,0.321,0.107,0.442,0
					l1.616-1.419c0.122-0.107,0.321-0.107,0.442,0l4.198,3.687c0.122,0.107,0.089,0.194-0.073,0.194H9.403
					c-0.162,0-0.195-0.087-0.073-0.194L13.527,17.226z"/>
			</g>
			<g>
				<path fill="#6F00FF" d="M18.695,16.692c-0.122-0.107-0.122-0.282,0-0.388l4.25-3.732c0.122-0.107,0.221-0.062,0.221,0.1v7.652
					c0,0.162-0.1,0.207-0.221,0.1L18.695,16.692z"/>
			</g>
		</g>
	</g>
</g>
</svg>
