<?xml version="1.0" encoding="utf-8"?>
<!-- Generator: Adobe Illustrator 17.0.0, SVG Export Plug-In . SVG Version: 6.00 Build 0)  -->
<!DOCTYPE svg PUBLIC "-//W3C//DTD SVG 1.1//EN" "http://www.w3.org/Graphics/SVG/1.1/DTD/svg11.dtd">
<svg version="1.1" id="Capa_1" xmlns="http://www.w3.org/2000/svg" xmlns:xlink="http://www.w3.org/1999/xlink" x="0px" y="0px"
	 width="33.717px" height="33px" viewBox="-1.051 0 33.717 33" enable-background="new -1.051 0 33.717 33" xml:space="preserve">
<g>
	<circle fill="#6F00FF" cx="15.807" cy="16.5" r="16.462"/>
	<path fill="#FFFFFF" d="M12.419,21.337v-7.82H9.82v7.82H12.419L12.419,21.337z M11.12,12.45c0.906,0,1.47-0.6,1.47-1.351
		c-0.017-0.767-0.564-1.351-1.453-1.351c-0.89,0-1.471,0.584-1.471,1.351c0,0.75,0.564,1.351,1.436,1.351H11.12L11.12,12.45z
		 M13.858,21.337h2.599v-4.366c0-0.233,0.017-0.467,0.086-0.634c0.188-0.467,0.615-0.951,1.334-0.951
		c0.94,0,1.317,0.717,1.317,1.768v4.183h2.599v-4.484c0-2.402-1.282-3.519-2.992-3.519c-1.402,0-2.018,0.784-2.36,1.317h0.017
		v-1.134h-2.599C13.892,14.251,13.858,21.337,13.858,21.337L13.858,21.337z"/>
</g>
</svg>
